<svg xmlns="http://www.w3.org/2000/svg" version="1.1" xmlns:xlink="http://www.w3.org/1999/xlink" xmlns:svgjs="http://svgjs.com/svgjs" width="1440" height="560" preserveAspectRatio="none" viewBox="0 0 1440 560">
    <g mask="url(&quot;#SvgjsMask1193&quot;)" fill="none">
        <path d="M228.03 62.07 a1 1 0 1 0 2 0 a1 1 0 1 0 -2 0zM230.03 64.07 a1 1 0 1 0 2 0 a1 1 0 1 0 -2 0zM230.03 62.07 a1 1 0 1 0 2 0 a1 1 0 1 0 -2 0zM230.03 60.07 a1 1 0 1 0 2 0 a1 1 0 1 0 -2 0zM232.03 68.07 a1 1 0 1 0 2 0 a1 1 0 1 0 -2 0zM232.03 66.07 a1 1 0 1 0 2 0 a1 1 0 1 0 -2 0zM232.03 64.07 a1 1 0 1 0 2 0 a1 1 0 1 0 -2 0zM232.03 62.07 a1 1 0 1 0 2 0 a1 1 0 1 0 -2 0zM232.03 60.07 a1 1 0 1 0 2 0 a1 1 0 1 0 -2 0zM234.03 72.07 a1 1 0 1 0 2 0 a1 1 0 1 0 -2 0zM234.03 70.07 a1 1 0 1 0 2 0 a1 1 0 1 0 -2 0zM234.03 68.07 a1 1 0 1 0 2 0 a1 1 0 1 0 -2 0zM234.03 66.07 a1 1 0 1 0 2 0 a1 1 0 1 0 -2 0zM234.03 64.07 a1 1 0 1 0 2 0 a1 1 0 1 0 -2 0zM234.03 62.07 a1 1 0 1 0 2 0 a1 1 0 1 0 -2 0zM234.03 60.07 a1 1 0 1 0 2 0 a1 1 0 1 0 -2 0zM236.03 72.07 a1 1 0 1 0 2 0 a1 1 0 1 0 -2 0zM236.03 70.07 a1 1 0 1 0 2 0 a1 1 0 1 0 -2 0zM236.03 68.07 a1 1 0 1 0 2 0 a1 1 0 1 0 -2 0zM236.03 66.07 a1 1 0 1 0 2 0 a1 1 0 1 0 -2 0zM236.03 64.07 a1 1 0 1 0 2 0 a1 1 0 1 0 -2 0zM236.03 62.07 a1 1 0 1 0 2 0 a1 1 0 1 0 -2 0zM238.03 72.07 a1 1 0 1 0 2 0 a1 1 0 1 0 -2 0zM238.03 70.07 a1 1 0 1 0 2 0 a1 1 0 1 0 -2 0zM238.03 68.07 a1 1 0 1 0 2 0 a1 1 0 1 0 -2 0zM238.03 66.07 a1 1 0 1 0 2 0 a1 1 0 1 0 -2 0zM238.03 64.07 a1 1 0 1 0 2 0 a1 1 0 1 0 -2 0zM238.03 62.07 a1 1 0 1 0 2 0 a1 1 0 1 0 -2 0zM240.03 72.07 a1 1 0 1 0 2 0 a1 1 0 1 0 -2 0zM240.03 70.07 a1 1 0 1 0 2 0 a1 1 0 1 0 -2 0zM240.03 68.07 a1 1 0 1 0 2 0 a1 1 0 1 0 -2 0zM240.03 66.07 a1 1 0 1 0 2 0 a1 1 0 1 0 -2 0zM240.03 64.07 a1 1 0 1 0 2 0 a1 1 0 1 0 -2 0zM240.03 62.07 a1 1 0 1 0 2 0 a1 1 0 1 0 -2 0zM242.03 70.07 a1 1 0 1 0 2 0 a1 1 0 1 0 -2 0zM242.03 68.07 a1 1 0 1 0 2 0 a1 1 0 1 0 -2 0zM242.03 66.07 a1 1 0 1 0 2 0 a1 1 0 1 0 -2 0zM244.03 70.07 a1 1 0 1 0 2 0 a1 1 0 1 0 -2 0zM244.03 68.07 a1 1 0 1 0 2 0 a1 1 0 1 0 -2 0zM246.03 70.07 a1 1 0 1 0 2 0 a1 1 0 1 0 -2 0zM246.03 68.07 a1 1 0 1 0 2 0 a1 1 0 1 0 -2 0z" transform="scale(3.73)" fill="#ffffff"></path>
    </g>
    <defs>
        <mask id="SvgjsMask1193">
            <rect width="1440" height="560" fill="#ffffff"></rect>
        </mask>
    </defs>
</svg>