<svg xmlns="http://www.w3.org/2000/svg" version="1.1" xmlns:xlink="http://www.w3.org/1999/xlink" xmlns:svgjs="http://svgjs.com/svgjs" width="1440" height="560" preserveAspectRatio="none" viewBox="0 0 1440 560">
    <g mask="url(&quot;#SvgjsMask1028&quot;)" fill="none">
        <path d="M184.03 62.07 a1 1 0 1 0 2 0 a1 1 0 1 0 -2 0zM186.03 64.07 a1 1 0 1 0 2 0 a1 1 0 1 0 -2 0zM186.03 62.07 a1 1 0 1 0 2 0 a1 1 0 1 0 -2 0zM188.03 64.07 a1 1 0 1 0 2 0 a1 1 0 1 0 -2 0zM188.03 62.07 a1 1 0 1 0 2 0 a1 1 0 1 0 -2 0zM188.03 60.07 a1 1 0 1 0 2 0 a1 1 0 1 0 -2 0zM190.03 66.07 a1 1 0 1 0 2 0 a1 1 0 1 0 -2 0zM190.03 64.07 a1 1 0 1 0 2 0 a1 1 0 1 0 -2 0zM190.03 62.07 a1 1 0 1 0 2 0 a1 1 0 1 0 -2 0zM190.03 60.07 a1 1 0 1 0 2 0 a1 1 0 1 0 -2 0zM190.03 58.07 a1 1 0 1 0 2 0 a1 1 0 1 0 -2 0zM192.03 68.07 a1 1 0 1 0 2 0 a1 1 0 1 0 -2 0zM192.03 66.07 a1 1 0 1 0 2 0 a1 1 0 1 0 -2 0zM192.03 64.07 a1 1 0 1 0 2 0 a1 1 0 1 0 -2 0zM192.03 62.07 a1 1 0 1 0 2 0 a1 1 0 1 0 -2 0zM192.03 60.07 a1 1 0 1 0 2 0 a1 1 0 1 0 -2 0zM192.03 58.07 a1 1 0 1 0 2 0 a1 1 0 1 0 -2 0zM192.03 56.07 a1 1 0 1 0 2 0 a1 1 0 1 0 -2 0zM194.03 68.07 a1 1 0 1 0 2 0 a1 1 0 1 0 -2 0zM194.03 66.07 a1 1 0 1 0 2 0 a1 1 0 1 0 -2 0zM194.03 64.07 a1 1 0 1 0 2 0 a1 1 0 1 0 -2 0zM194.03 62.07 a1 1 0 1 0 2 0 a1 1 0 1 0 -2 0zM194.03 60.07 a1 1 0 1 0 2 0 a1 1 0 1 0 -2 0zM194.03 58.07 a1 1 0 1 0 2 0 a1 1 0 1 0 -2 0zM194.03 56.07 a1 1 0 1 0 2 0 a1 1 0 1 0 -2 0zM194.03 54.07 a1 1 0 1 0 2 0 a1 1 0 1 0 -2 0zM196.03 70.07 a1 1 0 1 0 2 0 a1 1 0 1 0 -2 0zM196.03 68.07 a1 1 0 1 0 2 0 a1 1 0 1 0 -2 0zM196.03 66.07 a1 1 0 1 0 2 0 a1 1 0 1 0 -2 0zM196.03 64.07 a1 1 0 1 0 2 0 a1 1 0 1 0 -2 0zM196.03 62.07 a1 1 0 1 0 2 0 a1 1 0 1 0 -2 0zM196.03 60.07 a1 1 0 1 0 2 0 a1 1 0 1 0 -2 0zM196.03 58.07 a1 1 0 1 0 2 0 a1 1 0 1 0 -2 0zM196.03 56.07 a1 1 0 1 0 2 0 a1 1 0 1 0 -2 0zM196.03 54.07 a1 1 0 1 0 2 0 a1 1 0 1 0 -2 0zM198.03 70.07 a1 1 0 1 0 2 0 a1 1 0 1 0 -2 0zM198.03 68.07 a1 1 0 1 0 2 0 a1 1 0 1 0 -2 0zM198.03 66.07 a1 1 0 1 0 2 0 a1 1 0 1 0 -2 0zM198.03 64.07 a1 1 0 1 0 2 0 a1 1 0 1 0 -2 0zM198.03 62.07 a1 1 0 1 0 2 0 a1 1 0 1 0 -2 0zM198.03 60.07 a1 1 0 1 0 2 0 a1 1 0 1 0 -2 0zM198.03 58.07 a1 1 0 1 0 2 0 a1 1 0 1 0 -2 0zM198.03 56.07 a1 1 0 1 0 2 0 a1 1 0 1 0 -2 0zM198.03 54.07 a1 1 0 1 0 2 0 a1 1 0 1 0 -2 0zM200.03 68.07 a1 1 0 1 0 2 0 a1 1 0 1 0 -2 0zM200.03 66.07 a1 1 0 1 0 2 0 a1 1 0 1 0 -2 0zM200.03 64.07 a1 1 0 1 0 2 0 a1 1 0 1 0 -2 0zM200.03 62.07 a1 1 0 1 0 2 0 a1 1 0 1 0 -2 0zM200.03 60.07 a1 1 0 1 0 2 0 a1 1 0 1 0 -2 0zM200.03 58.07 a1 1 0 1 0 2 0 a1 1 0 1 0 -2 0zM200.03 54.07 a1 1 0 1 0 2 0 a1 1 0 1 0 -2 0zM202.03 66.07 a1 1 0 1 0 2 0 a1 1 0 1 0 -2 0z" transform="scale(3.73)" fill="#ffffff"></path>
    </g>
    <defs>
        <mask id="SvgjsMask1028">
            <rect width="1440" height="560" fill="#ffffff"></rect>
        </mask>
    </defs>
</svg>