<svg xmlns="http://www.w3.org/2000/svg" version="1.1" xmlns:xlink="http://www.w3.org/1999/xlink" xmlns:svgjs="http://svgjs.com/svgjs" width="1440" height="560" preserveAspectRatio="none" viewBox="0 0 1440 560">
    <g mask="url(&quot;#SvgjsMask1044&quot;)" fill="none">
        <path d="M306.03 114.07 a1 1 0 1 0 2 0 a1 1 0 1 0 -2 0zM306.03 112.07 a1 1 0 1 0 2 0 a1 1 0 1 0 -2 0zM308.03 124.07 a1 1 0 1 0 2 0 a1 1 0 1 0 -2 0zM308.03 122.07 a1 1 0 1 0 2 0 a1 1 0 1 0 -2 0zM308.03 120.07 a1 1 0 1 0 2 0 a1 1 0 1 0 -2 0zM308.03 118.07 a1 1 0 1 0 2 0 a1 1 0 1 0 -2 0zM308.03 116.07 a1 1 0 1 0 2 0 a1 1 0 1 0 -2 0zM308.03 114.07 a1 1 0 1 0 2 0 a1 1 0 1 0 -2 0zM308.03 112.07 a1 1 0 1 0 2 0 a1 1 0 1 0 -2 0zM310.03 124.07 a1 1 0 1 0 2 0 a1 1 0 1 0 -2 0zM310.03 122.07 a1 1 0 1 0 2 0 a1 1 0 1 0 -2 0zM310.03 120.07 a1 1 0 1 0 2 0 a1 1 0 1 0 -2 0zM310.03 118.07 a1 1 0 1 0 2 0 a1 1 0 1 0 -2 0zM310.03 116.07 a1 1 0 1 0 2 0 a1 1 0 1 0 -2 0zM310.03 114.07 a1 1 0 1 0 2 0 a1 1 0 1 0 -2 0zM310.03 112.07 a1 1 0 1 0 2 0 a1 1 0 1 0 -2 0zM312.03 122.07 a1 1 0 1 0 2 0 a1 1 0 1 0 -2 0zM312.03 120.07 a1 1 0 1 0 2 0 a1 1 0 1 0 -2 0zM312.03 118.07 a1 1 0 1 0 2 0 a1 1 0 1 0 -2 0zM312.03 116.07 a1 1 0 1 0 2 0 a1 1 0 1 0 -2 0zM312.03 114.07 a1 1 0 1 0 2 0 a1 1 0 1 0 -2 0zM312.03 112.07 a1 1 0 1 0 2 0 a1 1 0 1 0 -2 0zM312.03 110.07 a1 1 0 1 0 2 0 a1 1 0 1 0 -2 0zM314.03 122.07 a1 1 0 1 0 2 0 a1 1 0 1 0 -2 0zM314.03 120.07 a1 1 0 1 0 2 0 a1 1 0 1 0 -2 0zM314.03 118.07 a1 1 0 1 0 2 0 a1 1 0 1 0 -2 0zM314.03 116.07 a1 1 0 1 0 2 0 a1 1 0 1 0 -2 0zM314.03 114.07 a1 1 0 1 0 2 0 a1 1 0 1 0 -2 0zM314.03 112.07 a1 1 0 1 0 2 0 a1 1 0 1 0 -2 0zM314.03 110.07 a1 1 0 1 0 2 0 a1 1 0 1 0 -2 0zM316.03 122.07 a1 1 0 1 0 2 0 a1 1 0 1 0 -2 0zM316.03 120.07 a1 1 0 1 0 2 0 a1 1 0 1 0 -2 0zM316.03 118.07 a1 1 0 1 0 2 0 a1 1 0 1 0 -2 0zM316.03 116.07 a1 1 0 1 0 2 0 a1 1 0 1 0 -2 0zM316.03 114.07 a1 1 0 1 0 2 0 a1 1 0 1 0 -2 0zM316.03 112.07 a1 1 0 1 0 2 0 a1 1 0 1 0 -2 0zM316.03 110.07 a1 1 0 1 0 2 0 a1 1 0 1 0 -2 0zM316.03 108.07 a1 1 0 1 0 2 0 a1 1 0 1 0 -2 0zM318.03 122.07 a1 1 0 1 0 2 0 a1 1 0 1 0 -2 0zM318.03 120.07 a1 1 0 1 0 2 0 a1 1 0 1 0 -2 0zM318.03 118.07 a1 1 0 1 0 2 0 a1 1 0 1 0 -2 0zM318.03 116.07 a1 1 0 1 0 2 0 a1 1 0 1 0 -2 0zM318.03 114.07 a1 1 0 1 0 2 0 a1 1 0 1 0 -2 0zM318.03 112.07 a1 1 0 1 0 2 0 a1 1 0 1 0 -2 0zM318.03 110.07 a1 1 0 1 0 2 0 a1 1 0 1 0 -2 0zM318.03 108.07 a1 1 0 1 0 2 0 a1 1 0 1 0 -2 0zM318.03 106.07 a1 1 0 1 0 2 0 a1 1 0 1 0 -2 0zM320.03 122.07 a1 1 0 1 0 2 0 a1 1 0 1 0 -2 0zM320.03 120.07 a1 1 0 1 0 2 0 a1 1 0 1 0 -2 0zM320.03 118.07 a1 1 0 1 0 2 0 a1 1 0 1 0 -2 0zM320.03 116.07 a1 1 0 1 0 2 0 a1 1 0 1 0 -2 0zM320.03 114.07 a1 1 0 1 0 2 0 a1 1 0 1 0 -2 0zM320.03 112.07 a1 1 0 1 0 2 0 a1 1 0 1 0 -2 0zM320.03 110.07 a1 1 0 1 0 2 0 a1 1 0 1 0 -2 0zM320.03 108.07 a1 1 0 1 0 2 0 a1 1 0 1 0 -2 0zM320.03 106.07 a1 1 0 1 0 2 0 a1 1 0 1 0 -2 0zM322.03 120.07 a1 1 0 1 0 2 0 a1 1 0 1 0 -2 0zM322.03 118.07 a1 1 0 1 0 2 0 a1 1 0 1 0 -2 0zM322.03 116.07 a1 1 0 1 0 2 0 a1 1 0 1 0 -2 0zM322.03 114.07 a1 1 0 1 0 2 0 a1 1 0 1 0 -2 0zM322.03 112.07 a1 1 0 1 0 2 0 a1 1 0 1 0 -2 0zM322.03 110.07 a1 1 0 1 0 2 0 a1 1 0 1 0 -2 0zM322.03 108.07 a1 1 0 1 0 2 0 a1 1 0 1 0 -2 0zM322.03 106.07 a1 1 0 1 0 2 0 a1 1 0 1 0 -2 0zM322.03 104.07 a1 1 0 1 0 2 0 a1 1 0 1 0 -2 0zM324.03 120.07 a1 1 0 1 0 2 0 a1 1 0 1 0 -2 0zM324.03 118.07 a1 1 0 1 0 2 0 a1 1 0 1 0 -2 0zM324.03 116.07 a1 1 0 1 0 2 0 a1 1 0 1 0 -2 0zM324.03 114.07 a1 1 0 1 0 2 0 a1 1 0 1 0 -2 0zM324.03 112.07 a1 1 0 1 0 2 0 a1 1 0 1 0 -2 0zM324.03 110.07 a1 1 0 1 0 2 0 a1 1 0 1 0 -2 0zM324.03 108.07 a1 1 0 1 0 2 0 a1 1 0 1 0 -2 0zM324.03 106.07 a1 1 0 1 0 2 0 a1 1 0 1 0 -2 0zM324.03 104.07 a1 1 0 1 0 2 0 a1 1 0 1 0 -2 0zM326.03 122.07 a1 1 0 1 0 2 0 a1 1 0 1 0 -2 0zM326.03 120.07 a1 1 0 1 0 2 0 a1 1 0 1 0 -2 0zM326.03 118.07 a1 1 0 1 0 2 0 a1 1 0 1 0 -2 0zM326.03 116.07 a1 1 0 1 0 2 0 a1 1 0 1 0 -2 0zM326.03 114.07 a1 1 0 1 0 2 0 a1 1 0 1 0 -2 0zM326.03 112.07 a1 1 0 1 0 2 0 a1 1 0 1 0 -2 0zM326.03 110.07 a1 1 0 1 0 2 0 a1 1 0 1 0 -2 0zM326.03 108.07 a1 1 0 1 0 2 0 a1 1 0 1 0 -2 0zM326.03 106.07 a1 1 0 1 0 2 0 a1 1 0 1 0 -2 0zM326.03 104.07 a1 1 0 1 0 2 0 a1 1 0 1 0 -2 0zM326.03 102.07 a1 1 0 1 0 2 0 a1 1 0 1 0 -2 0zM328.03 124.07 a1 1 0 1 0 2 0 a1 1 0 1 0 -2 0zM328.03 122.07 a1 1 0 1 0 2 0 a1 1 0 1 0 -2 0zM328.03 120.07 a1 1 0 1 0 2 0 a1 1 0 1 0 -2 0zM328.03 118.07 a1 1 0 1 0 2 0 a1 1 0 1 0 -2 0zM328.03 116.07 a1 1 0 1 0 2 0 a1 1 0 1 0 -2 0zM328.03 114.07 a1 1 0 1 0 2 0 a1 1 0 1 0 -2 0zM328.03 112.07 a1 1 0 1 0 2 0 a1 1 0 1 0 -2 0zM328.03 110.07 a1 1 0 1 0 2 0 a1 1 0 1 0 -2 0zM328.03 108.07 a1 1 0 1 0 2 0 a1 1 0 1 0 -2 0zM328.03 106.07 a1 1 0 1 0 2 0 a1 1 0 1 0 -2 0zM330.03 124.07 a1 1 0 1 0 2 0 a1 1 0 1 0 -2 0zM330.03 122.07 a1 1 0 1 0 2 0 a1 1 0 1 0 -2 0zM330.03 120.07 a1 1 0 1 0 2 0 a1 1 0 1 0 -2 0zM330.03 118.07 a1 1 0 1 0 2 0 a1 1 0 1 0 -2 0zM330.03 116.07 a1 1 0 1 0 2 0 a1 1 0 1 0 -2 0zM330.03 114.07 a1 1 0 1 0 2 0 a1 1 0 1 0 -2 0zM330.03 112.07 a1 1 0 1 0 2 0 a1 1 0 1 0 -2 0zM330.03 110.07 a1 1 0 1 0 2 0 a1 1 0 1 0 -2 0zM330.03 108.07 a1 1 0 1 0 2 0 a1 1 0 1 0 -2 0zM332.03 126.07 a1 1 0 1 0 2 0 a1 1 0 1 0 -2 0zM332.03 124.07 a1 1 0 1 0 2 0 a1 1 0 1 0 -2 0zM332.03 122.07 a1 1 0 1 0 2 0 a1 1 0 1 0 -2 0zM332.03 120.07 a1 1 0 1 0 2 0 a1 1 0 1 0 -2 0zM332.03 118.07 a1 1 0 1 0 2 0 a1 1 0 1 0 -2 0zM332.03 116.07 a1 1 0 1 0 2 0 a1 1 0 1 0 -2 0zM332.03 114.07 a1 1 0 1 0 2 0 a1 1 0 1 0 -2 0zM332.03 112.07 a1 1 0 1 0 2 0 a1 1 0 1 0 -2 0zM332.03 110.07 a1 1 0 1 0 2 0 a1 1 0 1 0 -2 0zM332.03 108.07 a1 1 0 1 0 2 0 a1 1 0 1 0 -2 0zM334.03 128.07 a1 1 0 1 0 2 0 a1 1 0 1 0 -2 0zM334.03 126.07 a1 1 0 1 0 2 0 a1 1 0 1 0 -2 0zM334.03 124.07 a1 1 0 1 0 2 0 a1 1 0 1 0 -2 0zM334.03 122.07 a1 1 0 1 0 2 0 a1 1 0 1 0 -2 0zM334.03 120.07 a1 1 0 1 0 2 0 a1 1 0 1 0 -2 0zM334.03 118.07 a1 1 0 1 0 2 0 a1 1 0 1 0 -2 0zM334.03 116.07 a1 1 0 1 0 2 0 a1 1 0 1 0 -2 0zM334.03 114.07 a1 1 0 1 0 2 0 a1 1 0 1 0 -2 0zM334.03 112.07 a1 1 0 1 0 2 0 a1 1 0 1 0 -2 0zM334.03 110.07 a1 1 0 1 0 2 0 a1 1 0 1 0 -2 0zM334.03 108.07 a1 1 0 1 0 2 0 a1 1 0 1 0 -2 0zM334.03 106.07 a1 1 0 1 0 2 0 a1 1 0 1 0 -2 0zM334.03 104.07 a1 1 0 1 0 2 0 a1 1 0 1 0 -2 0zM334.03 102.07 a1 1 0 1 0 2 0 a1 1 0 1 0 -2 0zM336.03 130.07 a1 1 0 1 0 2 0 a1 1 0 1 0 -2 0zM336.03 128.07 a1 1 0 1 0 2 0 a1 1 0 1 0 -2 0zM336.03 126.07 a1 1 0 1 0 2 0 a1 1 0 1 0 -2 0zM336.03 124.07 a1 1 0 1 0 2 0 a1 1 0 1 0 -2 0zM336.03 122.07 a1 1 0 1 0 2 0 a1 1 0 1 0 -2 0zM336.03 120.07 a1 1 0 1 0 2 0 a1 1 0 1 0 -2 0zM336.03 118.07 a1 1 0 1 0 2 0 a1 1 0 1 0 -2 0zM336.03 116.07 a1 1 0 1 0 2 0 a1 1 0 1 0 -2 0zM336.03 114.07 a1 1 0 1 0 2 0 a1 1 0 1 0 -2 0zM336.03 112.07 a1 1 0 1 0 2 0 a1 1 0 1 0 -2 0zM336.03 110.07 a1 1 0 1 0 2 0 a1 1 0 1 0 -2 0zM336.03 108.07 a1 1 0 1 0 2 0 a1 1 0 1 0 -2 0zM336.03 106.07 a1 1 0 1 0 2 0 a1 1 0 1 0 -2 0zM338.03 132.07 a1 1 0 1 0 2 0 a1 1 0 1 0 -2 0zM338.03 128.07 a1 1 0 1 0 2 0 a1 1 0 1 0 -2 0zM338.03 126.07 a1 1 0 1 0 2 0 a1 1 0 1 0 -2 0zM338.03 124.07 a1 1 0 1 0 2 0 a1 1 0 1 0 -2 0zM338.03 122.07 a1 1 0 1 0 2 0 a1 1 0 1 0 -2 0zM338.03 120.07 a1 1 0 1 0 2 0 a1 1 0 1 0 -2 0zM338.03 118.07 a1 1 0 1 0 2 0 a1 1 0 1 0 -2 0zM338.03 116.07 a1 1 0 1 0 2 0 a1 1 0 1 0 -2 0zM338.03 114.07 a1 1 0 1 0 2 0 a1 1 0 1 0 -2 0zM338.03 112.07 a1 1 0 1 0 2 0 a1 1 0 1 0 -2 0zM338.03 110.07 a1 1 0 1 0 2 0 a1 1 0 1 0 -2 0zM338.03 108.07 a1 1 0 1 0 2 0 a1 1 0 1 0 -2 0zM340.03 132.07 a1 1 0 1 0 2 0 a1 1 0 1 0 -2 0zM340.03 130.07 a1 1 0 1 0 2 0 a1 1 0 1 0 -2 0zM340.03 126.07 a1 1 0 1 0 2 0 a1 1 0 1 0 -2 0zM340.03 124.07 a1 1 0 1 0 2 0 a1 1 0 1 0 -2 0zM340.03 122.07 a1 1 0 1 0 2 0 a1 1 0 1 0 -2 0zM340.03 120.07 a1 1 0 1 0 2 0 a1 1 0 1 0 -2 0zM340.03 118.07 a1 1 0 1 0 2 0 a1 1 0 1 0 -2 0zM340.03 116.07 a1 1 0 1 0 2 0 a1 1 0 1 0 -2 0zM340.03 114.07 a1 1 0 1 0 2 0 a1 1 0 1 0 -2 0zM340.03 112.07 a1 1 0 1 0 2 0 a1 1 0 1 0 -2 0zM340.03 110.07 a1 1 0 1 0 2 0 a1 1 0 1 0 -2 0zM342.03 126.07 a1 1 0 1 0 2 0 a1 1 0 1 0 -2 0zM342.03 124.07 a1 1 0 1 0 2 0 a1 1 0 1 0 -2 0zM342.03 122.07 a1 1 0 1 0 2 0 a1 1 0 1 0 -2 0zM342.03 120.07 a1 1 0 1 0 2 0 a1 1 0 1 0 -2 0zM342.03 118.07 a1 1 0 1 0 2 0 a1 1 0 1 0 -2 0zM342.03 116.07 a1 1 0 1 0 2 0 a1 1 0 1 0 -2 0zM342.03 114.07 a1 1 0 1 0 2 0 a1 1 0 1 0 -2 0zM344.03 122.07 a1 1 0 1 0 2 0 a1 1 0 1 0 -2 0zM344.03 120.07 a1 1 0 1 0 2 0 a1 1 0 1 0 -2 0zM344.03 118.07 a1 1 0 1 0 2 0 a1 1 0 1 0 -2 0zM344.03 116.07 a1 1 0 1 0 2 0 a1 1 0 1 0 -2 0z" transform="scale(3.73)" fill="#ffffff"></path>
    </g>
    <defs>
        <mask id="SvgjsMask1044">
            <rect width="1440" height="560" fill="#ffffff"></rect>
        </mask>
    </defs>
</svg>