<svg xmlns="http://www.w3.org/2000/svg" version="1.1" xmlns:xlink="http://www.w3.org/1999/xlink" xmlns:svgjs="http://svgjs.com/svgjs" width="1440" height="560" preserveAspectRatio="none" viewBox="0 0 1440 560">
    <g mask="url(&quot;#SvgjsMask1209&quot;)" fill="none">
        <path d="M124.03 112.07 a1 1 0 1 0 2 0 a1 1 0 1 0 -2 0zM124.03 110.07 a1 1 0 1 0 2 0 a1 1 0 1 0 -2 0zM124.03 108.07 a1 1 0 1 0 2 0 a1 1 0 1 0 -2 0zM124.03 106.07 a1 1 0 1 0 2 0 a1 1 0 1 0 -2 0zM124.03 104.07 a1 1 0 1 0 2 0 a1 1 0 1 0 -2 0zM124.03 102.07 a1 1 0 1 0 2 0 a1 1 0 1 0 -2 0zM126.03 110.07 a1 1 0 1 0 2 0 a1 1 0 1 0 -2 0zM126.03 108.07 a1 1 0 1 0 2 0 a1 1 0 1 0 -2 0zM126.03 106.07 a1 1 0 1 0 2 0 a1 1 0 1 0 -2 0zM126.03 104.07 a1 1 0 1 0 2 0 a1 1 0 1 0 -2 0zM126.03 102.07 a1 1 0 1 0 2 0 a1 1 0 1 0 -2 0zM126.03 100.07 a1 1 0 1 0 2 0 a1 1 0 1 0 -2 0zM128.03 112.07 a1 1 0 1 0 2 0 a1 1 0 1 0 -2 0zM128.03 110.07 a1 1 0 1 0 2 0 a1 1 0 1 0 -2 0zM128.03 108.07 a1 1 0 1 0 2 0 a1 1 0 1 0 -2 0zM128.03 106.07 a1 1 0 1 0 2 0 a1 1 0 1 0 -2 0zM128.03 104.07 a1 1 0 1 0 2 0 a1 1 0 1 0 -2 0zM130.03 110.07 a1 1 0 1 0 2 0 a1 1 0 1 0 -2 0zM130.03 108.07 a1 1 0 1 0 2 0 a1 1 0 1 0 -2 0zM130.03 106.07 a1 1 0 1 0 2 0 a1 1 0 1 0 -2 0zM130.03 104.07 a1 1 0 1 0 2 0 a1 1 0 1 0 -2 0zM132.03 108.07 a1 1 0 1 0 2 0 a1 1 0 1 0 -2 0zM134.03 110.07 a1 1 0 1 0 2 0 a1 1 0 1 0 -2 0zM134.03 108.07 a1 1 0 1 0 2 0 a1 1 0 1 0 -2 0z" transform="scale(3.73)" fill="#ffffff"></path>
    </g>
    <defs>
        <mask id="SvgjsMask1209">
            <rect width="1440" height="560" fill="#ffffff"></rect>
        </mask>
    </defs>
</svg>