<svg xmlns="http://www.w3.org/2000/svg" version="1.1" xmlns:xlink="http://www.w3.org/1999/xlink" xmlns:svgjs="http://svgjs.com/svgjs" width="1440" height="560" preserveAspectRatio="none" viewBox="0 0 1440 560">
    <g mask="url(&quot;#SvgjsMask1002&quot;)" fill="none">
        <path d="M120.03 100.07 a1 1 0 1 0 2 0 a1 1 0 1 0 -2 0zM120.03 98.07 a1 1 0 1 0 2 0 a1 1 0 1 0 -2 0zM120.03 96.07 a1 1 0 1 0 2 0 a1 1 0 1 0 -2 0zM122.03 100.07 a1 1 0 1 0 2 0 a1 1 0 1 0 -2 0zM122.03 98.07 a1 1 0 1 0 2 0 a1 1 0 1 0 -2 0zM122.03 96.07 a1 1 0 1 0 2 0 a1 1 0 1 0 -2 0zM122.03 90.07 a1 1 0 1 0 2 0 a1 1 0 1 0 -2 0zM124.03 100.07 a1 1 0 1 0 2 0 a1 1 0 1 0 -2 0zM124.03 98.07 a1 1 0 1 0 2 0 a1 1 0 1 0 -2 0zM124.03 96.07 a1 1 0 1 0 2 0 a1 1 0 1 0 -2 0zM124.03 94.07 a1 1 0 1 0 2 0 a1 1 0 1 0 -2 0zM124.03 92.07 a1 1 0 1 0 2 0 a1 1 0 1 0 -2 0zM124.03 90.07 a1 1 0 1 0 2 0 a1 1 0 1 0 -2 0zM126.03 98.07 a1 1 0 1 0 2 0 a1 1 0 1 0 -2 0zM126.03 96.07 a1 1 0 1 0 2 0 a1 1 0 1 0 -2 0zM126.03 94.07 a1 1 0 1 0 2 0 a1 1 0 1 0 -2 0zM126.03 92.07 a1 1 0 1 0 2 0 a1 1 0 1 0 -2 0zM126.03 90.07 a1 1 0 1 0 2 0 a1 1 0 1 0 -2 0zM128.03 102.07 a1 1 0 1 0 2 0 a1 1 0 1 0 -2 0zM128.03 100.07 a1 1 0 1 0 2 0 a1 1 0 1 0 -2 0zM128.03 98.07 a1 1 0 1 0 2 0 a1 1 0 1 0 -2 0zM128.03 96.07 a1 1 0 1 0 2 0 a1 1 0 1 0 -2 0zM128.03 94.07 a1 1 0 1 0 2 0 a1 1 0 1 0 -2 0zM128.03 92.07 a1 1 0 1 0 2 0 a1 1 0 1 0 -2 0zM128.03 90.07 a1 1 0 1 0 2 0 a1 1 0 1 0 -2 0zM130.03 102.07 a1 1 0 1 0 2 0 a1 1 0 1 0 -2 0zM130.03 100.07 a1 1 0 1 0 2 0 a1 1 0 1 0 -2 0zM130.03 98.07 a1 1 0 1 0 2 0 a1 1 0 1 0 -2 0zM130.03 96.07 a1 1 0 1 0 2 0 a1 1 0 1 0 -2 0zM130.03 94.07 a1 1 0 1 0 2 0 a1 1 0 1 0 -2 0zM130.03 92.07 a1 1 0 1 0 2 0 a1 1 0 1 0 -2 0zM130.03 90.07 a1 1 0 1 0 2 0 a1 1 0 1 0 -2 0zM130.03 88.07 a1 1 0 1 0 2 0 a1 1 0 1 0 -2 0zM130.03 86.07 a1 1 0 1 0 2 0 a1 1 0 1 0 -2 0zM132.03 106.07 a1 1 0 1 0 2 0 a1 1 0 1 0 -2 0zM132.03 104.07 a1 1 0 1 0 2 0 a1 1 0 1 0 -2 0zM132.03 102.07 a1 1 0 1 0 2 0 a1 1 0 1 0 -2 0zM132.03 100.07 a1 1 0 1 0 2 0 a1 1 0 1 0 -2 0zM132.03 98.07 a1 1 0 1 0 2 0 a1 1 0 1 0 -2 0zM132.03 96.07 a1 1 0 1 0 2 0 a1 1 0 1 0 -2 0zM132.03 94.07 a1 1 0 1 0 2 0 a1 1 0 1 0 -2 0zM132.03 92.07 a1 1 0 1 0 2 0 a1 1 0 1 0 -2 0zM132.03 90.07 a1 1 0 1 0 2 0 a1 1 0 1 0 -2 0zM132.03 88.07 a1 1 0 1 0 2 0 a1 1 0 1 0 -2 0zM132.03 86.07 a1 1 0 1 0 2 0 a1 1 0 1 0 -2 0zM134.03 106.07 a1 1 0 1 0 2 0 a1 1 0 1 0 -2 0zM134.03 104.07 a1 1 0 1 0 2 0 a1 1 0 1 0 -2 0zM134.03 102.07 a1 1 0 1 0 2 0 a1 1 0 1 0 -2 0zM134.03 100.07 a1 1 0 1 0 2 0 a1 1 0 1 0 -2 0zM134.03 98.07 a1 1 0 1 0 2 0 a1 1 0 1 0 -2 0zM134.03 96.07 a1 1 0 1 0 2 0 a1 1 0 1 0 -2 0zM134.03 94.07 a1 1 0 1 0 2 0 a1 1 0 1 0 -2 0zM134.03 92.07 a1 1 0 1 0 2 0 a1 1 0 1 0 -2 0zM134.03 90.07 a1 1 0 1 0 2 0 a1 1 0 1 0 -2 0zM136.03 120.07 a1 1 0 1 0 2 0 a1 1 0 1 0 -2 0zM136.03 112.07 a1 1 0 1 0 2 0 a1 1 0 1 0 -2 0zM136.03 110.07 a1 1 0 1 0 2 0 a1 1 0 1 0 -2 0zM136.03 108.07 a1 1 0 1 0 2 0 a1 1 0 1 0 -2 0zM136.03 106.07 a1 1 0 1 0 2 0 a1 1 0 1 0 -2 0zM136.03 104.07 a1 1 0 1 0 2 0 a1 1 0 1 0 -2 0zM136.03 102.07 a1 1 0 1 0 2 0 a1 1 0 1 0 -2 0zM136.03 100.07 a1 1 0 1 0 2 0 a1 1 0 1 0 -2 0zM136.03 98.07 a1 1 0 1 0 2 0 a1 1 0 1 0 -2 0zM136.03 96.07 a1 1 0 1 0 2 0 a1 1 0 1 0 -2 0zM136.03 94.07 a1 1 0 1 0 2 0 a1 1 0 1 0 -2 0zM136.03 92.07 a1 1 0 1 0 2 0 a1 1 0 1 0 -2 0zM136.03 90.07 a1 1 0 1 0 2 0 a1 1 0 1 0 -2 0zM138.03 120.07 a1 1 0 1 0 2 0 a1 1 0 1 0 -2 0zM138.03 118.07 a1 1 0 1 0 2 0 a1 1 0 1 0 -2 0zM138.03 114.07 a1 1 0 1 0 2 0 a1 1 0 1 0 -2 0zM138.03 112.07 a1 1 0 1 0 2 0 a1 1 0 1 0 -2 0zM138.03 110.07 a1 1 0 1 0 2 0 a1 1 0 1 0 -2 0zM138.03 108.07 a1 1 0 1 0 2 0 a1 1 0 1 0 -2 0zM138.03 106.07 a1 1 0 1 0 2 0 a1 1 0 1 0 -2 0zM138.03 104.07 a1 1 0 1 0 2 0 a1 1 0 1 0 -2 0zM138.03 102.07 a1 1 0 1 0 2 0 a1 1 0 1 0 -2 0zM138.03 100.07 a1 1 0 1 0 2 0 a1 1 0 1 0 -2 0zM138.03 98.07 a1 1 0 1 0 2 0 a1 1 0 1 0 -2 0zM138.03 96.07 a1 1 0 1 0 2 0 a1 1 0 1 0 -2 0zM138.03 94.07 a1 1 0 1 0 2 0 a1 1 0 1 0 -2 0zM138.03 92.07 a1 1 0 1 0 2 0 a1 1 0 1 0 -2 0zM138.03 90.07 a1 1 0 1 0 2 0 a1 1 0 1 0 -2 0zM138.03 88.07 a1 1 0 1 0 2 0 a1 1 0 1 0 -2 0zM140.03 122.07 a1 1 0 1 0 2 0 a1 1 0 1 0 -2 0zM140.03 120.07 a1 1 0 1 0 2 0 a1 1 0 1 0 -2 0zM140.03 118.07 a1 1 0 1 0 2 0 a1 1 0 1 0 -2 0zM140.03 116.07 a1 1 0 1 0 2 0 a1 1 0 1 0 -2 0zM140.03 114.07 a1 1 0 1 0 2 0 a1 1 0 1 0 -2 0zM140.03 112.07 a1 1 0 1 0 2 0 a1 1 0 1 0 -2 0zM140.03 110.07 a1 1 0 1 0 2 0 a1 1 0 1 0 -2 0zM140.03 108.07 a1 1 0 1 0 2 0 a1 1 0 1 0 -2 0zM140.03 106.07 a1 1 0 1 0 2 0 a1 1 0 1 0 -2 0zM140.03 104.07 a1 1 0 1 0 2 0 a1 1 0 1 0 -2 0zM140.03 102.07 a1 1 0 1 0 2 0 a1 1 0 1 0 -2 0zM140.03 100.07 a1 1 0 1 0 2 0 a1 1 0 1 0 -2 0zM140.03 98.07 a1 1 0 1 0 2 0 a1 1 0 1 0 -2 0zM140.03 96.07 a1 1 0 1 0 2 0 a1 1 0 1 0 -2 0zM140.03 94.07 a1 1 0 1 0 2 0 a1 1 0 1 0 -2 0zM140.03 92.07 a1 1 0 1 0 2 0 a1 1 0 1 0 -2 0zM140.03 90.07 a1 1 0 1 0 2 0 a1 1 0 1 0 -2 0zM140.03 88.07 a1 1 0 1 0 2 0 a1 1 0 1 0 -2 0zM142.03 118.07 a1 1 0 1 0 2 0 a1 1 0 1 0 -2 0zM142.03 116.07 a1 1 0 1 0 2 0 a1 1 0 1 0 -2 0zM142.03 114.07 a1 1 0 1 0 2 0 a1 1 0 1 0 -2 0zM142.03 112.07 a1 1 0 1 0 2 0 a1 1 0 1 0 -2 0zM142.03 110.07 a1 1 0 1 0 2 0 a1 1 0 1 0 -2 0zM142.03 108.07 a1 1 0 1 0 2 0 a1 1 0 1 0 -2 0zM142.03 106.07 a1 1 0 1 0 2 0 a1 1 0 1 0 -2 0zM142.03 104.07 a1 1 0 1 0 2 0 a1 1 0 1 0 -2 0zM142.03 102.07 a1 1 0 1 0 2 0 a1 1 0 1 0 -2 0zM142.03 100.07 a1 1 0 1 0 2 0 a1 1 0 1 0 -2 0zM142.03 98.07 a1 1 0 1 0 2 0 a1 1 0 1 0 -2 0zM142.03 96.07 a1 1 0 1 0 2 0 a1 1 0 1 0 -2 0zM142.03 94.07 a1 1 0 1 0 2 0 a1 1 0 1 0 -2 0zM142.03 92.07 a1 1 0 1 0 2 0 a1 1 0 1 0 -2 0zM142.03 90.07 a1 1 0 1 0 2 0 a1 1 0 1 0 -2 0zM144.03 114.07 a1 1 0 1 0 2 0 a1 1 0 1 0 -2 0zM144.03 112.07 a1 1 0 1 0 2 0 a1 1 0 1 0 -2 0zM144.03 110.07 a1 1 0 1 0 2 0 a1 1 0 1 0 -2 0zM144.03 108.07 a1 1 0 1 0 2 0 a1 1 0 1 0 -2 0zM144.03 106.07 a1 1 0 1 0 2 0 a1 1 0 1 0 -2 0zM144.03 104.07 a1 1 0 1 0 2 0 a1 1 0 1 0 -2 0zM144.03 102.07 a1 1 0 1 0 2 0 a1 1 0 1 0 -2 0zM144.03 100.07 a1 1 0 1 0 2 0 a1 1 0 1 0 -2 0zM144.03 98.07 a1 1 0 1 0 2 0 a1 1 0 1 0 -2 0zM144.03 96.07 a1 1 0 1 0 2 0 a1 1 0 1 0 -2 0zM144.03 94.07 a1 1 0 1 0 2 0 a1 1 0 1 0 -2 0zM144.03 92.07 a1 1 0 1 0 2 0 a1 1 0 1 0 -2 0zM146.03 112.07 a1 1 0 1 0 2 0 a1 1 0 1 0 -2 0zM146.03 110.07 a1 1 0 1 0 2 0 a1 1 0 1 0 -2 0zM146.03 108.07 a1 1 0 1 0 2 0 a1 1 0 1 0 -2 0zM146.03 106.07 a1 1 0 1 0 2 0 a1 1 0 1 0 -2 0zM146.03 104.07 a1 1 0 1 0 2 0 a1 1 0 1 0 -2 0zM146.03 102.07 a1 1 0 1 0 2 0 a1 1 0 1 0 -2 0zM146.03 100.07 a1 1 0 1 0 2 0 a1 1 0 1 0 -2 0zM146.03 98.07 a1 1 0 1 0 2 0 a1 1 0 1 0 -2 0zM146.03 96.07 a1 1 0 1 0 2 0 a1 1 0 1 0 -2 0zM146.03 94.07 a1 1 0 1 0 2 0 a1 1 0 1 0 -2 0zM146.03 92.07 a1 1 0 1 0 2 0 a1 1 0 1 0 -2 0zM148.03 112.07 a1 1 0 1 0 2 0 a1 1 0 1 0 -2 0zM148.03 110.07 a1 1 0 1 0 2 0 a1 1 0 1 0 -2 0zM148.03 108.07 a1 1 0 1 0 2 0 a1 1 0 1 0 -2 0zM148.03 106.07 a1 1 0 1 0 2 0 a1 1 0 1 0 -2 0zM148.03 104.07 a1 1 0 1 0 2 0 a1 1 0 1 0 -2 0zM148.03 102.07 a1 1 0 1 0 2 0 a1 1 0 1 0 -2 0zM148.03 100.07 a1 1 0 1 0 2 0 a1 1 0 1 0 -2 0zM148.03 98.07 a1 1 0 1 0 2 0 a1 1 0 1 0 -2 0zM148.03 96.07 a1 1 0 1 0 2 0 a1 1 0 1 0 -2 0zM148.03 94.07 a1 1 0 1 0 2 0 a1 1 0 1 0 -2 0zM150.03 112.07 a1 1 0 1 0 2 0 a1 1 0 1 0 -2 0zM150.03 110.07 a1 1 0 1 0 2 0 a1 1 0 1 0 -2 0zM150.03 108.07 a1 1 0 1 0 2 0 a1 1 0 1 0 -2 0zM150.03 106.07 a1 1 0 1 0 2 0 a1 1 0 1 0 -2 0zM150.03 104.07 a1 1 0 1 0 2 0 a1 1 0 1 0 -2 0zM150.03 102.07 a1 1 0 1 0 2 0 a1 1 0 1 0 -2 0zM150.03 100.07 a1 1 0 1 0 2 0 a1 1 0 1 0 -2 0zM150.03 98.07 a1 1 0 1 0 2 0 a1 1 0 1 0 -2 0zM150.03 96.07 a1 1 0 1 0 2 0 a1 1 0 1 0 -2 0zM150.03 94.07 a1 1 0 1 0 2 0 a1 1 0 1 0 -2 0zM152.03 108.07 a1 1 0 1 0 2 0 a1 1 0 1 0 -2 0zM152.03 106.07 a1 1 0 1 0 2 0 a1 1 0 1 0 -2 0zM152.03 104.07 a1 1 0 1 0 2 0 a1 1 0 1 0 -2 0zM152.03 102.07 a1 1 0 1 0 2 0 a1 1 0 1 0 -2 0zM152.03 100.07 a1 1 0 1 0 2 0 a1 1 0 1 0 -2 0zM152.03 98.07 a1 1 0 1 0 2 0 a1 1 0 1 0 -2 0zM152.03 96.07 a1 1 0 1 0 2 0 a1 1 0 1 0 -2 0zM152.03 94.07 a1 1 0 1 0 2 0 a1 1 0 1 0 -2 0zM154.03 102.07 a1 1 0 1 0 2 0 a1 1 0 1 0 -2 0zM154.03 100.07 a1 1 0 1 0 2 0 a1 1 0 1 0 -2 0zM154.03 98.07 a1 1 0 1 0 2 0 a1 1 0 1 0 -2 0zM154.03 96.07 a1 1 0 1 0 2 0 a1 1 0 1 0 -2 0zM156.03 98.07 a1 1 0 1 0 2 0 a1 1 0 1 0 -2 0zM156.03 96.07 a1 1 0 1 0 2 0 a1 1 0 1 0 -2 0z" transform="scale(3.73)" fill="#ffffff"></path>
    </g>
    <defs>
        <mask id="SvgjsMask1002">
            <rect width="1440" height="560" fill="#ffffff"></rect>
        </mask>
    </defs>
</svg>