<svg xmlns="http://www.w3.org/2000/svg" version="1.1" xmlns:xlink="http://www.w3.org/1999/xlink" xmlns:svgjs="http://svgjs.com/svgjs" width="1440" height="560" preserveAspectRatio="none" viewBox="0 0 1440 560">
    <g mask="url(&quot;#SvgjsMask1030&quot;)" fill="none">
        <path d="M52.03 28.07 a1 1 0 1 0 2 0 a1 1 0 1 0 -2 0zM52.03 26.07 a1 1 0 1 0 2 0 a1 1 0 1 0 -2 0zM52.03 24.07 a1 1 0 1 0 2 0 a1 1 0 1 0 -2 0zM52.03 22.07 a1 1 0 1 0 2 0 a1 1 0 1 0 -2 0zM54.03 30.07 a1 1 0 1 0 2 0 a1 1 0 1 0 -2 0zM54.03 28.07 a1 1 0 1 0 2 0 a1 1 0 1 0 -2 0zM54.03 26.07 a1 1 0 1 0 2 0 a1 1 0 1 0 -2 0zM54.03 24.07 a1 1 0 1 0 2 0 a1 1 0 1 0 -2 0zM54.03 22.07 a1 1 0 1 0 2 0 a1 1 0 1 0 -2 0zM56.03 30.07 a1 1 0 1 0 2 0 a1 1 0 1 0 -2 0zM56.03 28.07 a1 1 0 1 0 2 0 a1 1 0 1 0 -2 0zM56.03 26.07 a1 1 0 1 0 2 0 a1 1 0 1 0 -2 0zM56.03 24.07 a1 1 0 1 0 2 0 a1 1 0 1 0 -2 0zM56.03 22.07 a1 1 0 1 0 2 0 a1 1 0 1 0 -2 0zM58.03 30.07 a1 1 0 1 0 2 0 a1 1 0 1 0 -2 0zM58.03 28.07 a1 1 0 1 0 2 0 a1 1 0 1 0 -2 0zM58.03 26.07 a1 1 0 1 0 2 0 a1 1 0 1 0 -2 0zM58.03 24.07 a1 1 0 1 0 2 0 a1 1 0 1 0 -2 0zM58.03 22.07 a1 1 0 1 0 2 0 a1 1 0 1 0 -2 0zM60.03 36.07 a1 1 0 1 0 2 0 a1 1 0 1 0 -2 0zM60.03 32.07 a1 1 0 1 0 2 0 a1 1 0 1 0 -2 0zM60.03 30.07 a1 1 0 1 0 2 0 a1 1 0 1 0 -2 0zM60.03 28.07 a1 1 0 1 0 2 0 a1 1 0 1 0 -2 0zM60.03 26.07 a1 1 0 1 0 2 0 a1 1 0 1 0 -2 0zM60.03 24.07 a1 1 0 1 0 2 0 a1 1 0 1 0 -2 0zM60.03 22.07 a1 1 0 1 0 2 0 a1 1 0 1 0 -2 0zM62.03 36.07 a1 1 0 1 0 2 0 a1 1 0 1 0 -2 0zM62.03 34.07 a1 1 0 1 0 2 0 a1 1 0 1 0 -2 0zM62.03 32.07 a1 1 0 1 0 2 0 a1 1 0 1 0 -2 0zM62.03 30.07 a1 1 0 1 0 2 0 a1 1 0 1 0 -2 0zM62.03 28.07 a1 1 0 1 0 2 0 a1 1 0 1 0 -2 0zM62.03 26.07 a1 1 0 1 0 2 0 a1 1 0 1 0 -2 0zM62.03 24.07 a1 1 0 1 0 2 0 a1 1 0 1 0 -2 0zM62.03 22.07 a1 1 0 1 0 2 0 a1 1 0 1 0 -2 0zM62.03 20.07 a1 1 0 1 0 2 0 a1 1 0 1 0 -2 0zM64.03 38.07 a1 1 0 1 0 2 0 a1 1 0 1 0 -2 0zM64.03 36.07 a1 1 0 1 0 2 0 a1 1 0 1 0 -2 0zM64.03 34.07 a1 1 0 1 0 2 0 a1 1 0 1 0 -2 0zM64.03 32.07 a1 1 0 1 0 2 0 a1 1 0 1 0 -2 0zM64.03 30.07 a1 1 0 1 0 2 0 a1 1 0 1 0 -2 0zM64.03 28.07 a1 1 0 1 0 2 0 a1 1 0 1 0 -2 0zM64.03 26.07 a1 1 0 1 0 2 0 a1 1 0 1 0 -2 0zM64.03 24.07 a1 1 0 1 0 2 0 a1 1 0 1 0 -2 0zM64.03 22.07 a1 1 0 1 0 2 0 a1 1 0 1 0 -2 0zM64.03 20.07 a1 1 0 1 0 2 0 a1 1 0 1 0 -2 0zM66.03 40.07 a1 1 0 1 0 2 0 a1 1 0 1 0 -2 0zM66.03 38.07 a1 1 0 1 0 2 0 a1 1 0 1 0 -2 0zM66.03 36.07 a1 1 0 1 0 2 0 a1 1 0 1 0 -2 0zM66.03 34.07 a1 1 0 1 0 2 0 a1 1 0 1 0 -2 0zM66.03 32.07 a1 1 0 1 0 2 0 a1 1 0 1 0 -2 0zM66.03 30.07 a1 1 0 1 0 2 0 a1 1 0 1 0 -2 0zM66.03 28.07 a1 1 0 1 0 2 0 a1 1 0 1 0 -2 0zM66.03 26.07 a1 1 0 1 0 2 0 a1 1 0 1 0 -2 0zM66.03 24.07 a1 1 0 1 0 2 0 a1 1 0 1 0 -2 0zM66.03 22.07 a1 1 0 1 0 2 0 a1 1 0 1 0 -2 0zM68.03 40.07 a1 1 0 1 0 2 0 a1 1 0 1 0 -2 0zM68.03 38.07 a1 1 0 1 0 2 0 a1 1 0 1 0 -2 0zM68.03 36.07 a1 1 0 1 0 2 0 a1 1 0 1 0 -2 0zM68.03 34.07 a1 1 0 1 0 2 0 a1 1 0 1 0 -2 0zM68.03 32.07 a1 1 0 1 0 2 0 a1 1 0 1 0 -2 0zM68.03 30.07 a1 1 0 1 0 2 0 a1 1 0 1 0 -2 0zM68.03 28.07 a1 1 0 1 0 2 0 a1 1 0 1 0 -2 0zM68.03 26.07 a1 1 0 1 0 2 0 a1 1 0 1 0 -2 0zM68.03 24.07 a1 1 0 1 0 2 0 a1 1 0 1 0 -2 0zM68.03 22.07 a1 1 0 1 0 2 0 a1 1 0 1 0 -2 0zM68.03 18.07 a1 1 0 1 0 2 0 a1 1 0 1 0 -2 0zM68.03 16.07 a1 1 0 1 0 2 0 a1 1 0 1 0 -2 0zM70.03 40.07 a1 1 0 1 0 2 0 a1 1 0 1 0 -2 0zM70.03 38.07 a1 1 0 1 0 2 0 a1 1 0 1 0 -2 0zM70.03 36.07 a1 1 0 1 0 2 0 a1 1 0 1 0 -2 0zM70.03 34.07 a1 1 0 1 0 2 0 a1 1 0 1 0 -2 0zM70.03 32.07 a1 1 0 1 0 2 0 a1 1 0 1 0 -2 0zM70.03 30.07 a1 1 0 1 0 2 0 a1 1 0 1 0 -2 0zM70.03 28.07 a1 1 0 1 0 2 0 a1 1 0 1 0 -2 0zM70.03 26.07 a1 1 0 1 0 2 0 a1 1 0 1 0 -2 0zM70.03 24.07 a1 1 0 1 0 2 0 a1 1 0 1 0 -2 0zM70.03 22.07 a1 1 0 1 0 2 0 a1 1 0 1 0 -2 0zM70.03 18.07 a1 1 0 1 0 2 0 a1 1 0 1 0 -2 0zM70.03 16.07 a1 1 0 1 0 2 0 a1 1 0 1 0 -2 0zM72.03 40.07 a1 1 0 1 0 2 0 a1 1 0 1 0 -2 0zM72.03 38.07 a1 1 0 1 0 2 0 a1 1 0 1 0 -2 0zM72.03 36.07 a1 1 0 1 0 2 0 a1 1 0 1 0 -2 0zM72.03 34.07 a1 1 0 1 0 2 0 a1 1 0 1 0 -2 0zM72.03 32.07 a1 1 0 1 0 2 0 a1 1 0 1 0 -2 0zM72.03 30.07 a1 1 0 1 0 2 0 a1 1 0 1 0 -2 0zM72.03 28.07 a1 1 0 1 0 2 0 a1 1 0 1 0 -2 0zM72.03 26.07 a1 1 0 1 0 2 0 a1 1 0 1 0 -2 0zM72.03 24.07 a1 1 0 1 0 2 0 a1 1 0 1 0 -2 0zM72.03 22.07 a1 1 0 1 0 2 0 a1 1 0 1 0 -2 0zM72.03 16.07 a1 1 0 1 0 2 0 a1 1 0 1 0 -2 0zM72.03 14.07 a1 1 0 1 0 2 0 a1 1 0 1 0 -2 0zM74.03 40.07 a1 1 0 1 0 2 0 a1 1 0 1 0 -2 0zM74.03 38.07 a1 1 0 1 0 2 0 a1 1 0 1 0 -2 0zM74.03 36.07 a1 1 0 1 0 2 0 a1 1 0 1 0 -2 0zM74.03 34.07 a1 1 0 1 0 2 0 a1 1 0 1 0 -2 0zM74.03 32.07 a1 1 0 1 0 2 0 a1 1 0 1 0 -2 0zM74.03 30.07 a1 1 0 1 0 2 0 a1 1 0 1 0 -2 0zM74.03 28.07 a1 1 0 1 0 2 0 a1 1 0 1 0 -2 0zM74.03 26.07 a1 1 0 1 0 2 0 a1 1 0 1 0 -2 0zM74.03 24.07 a1 1 0 1 0 2 0 a1 1 0 1 0 -2 0zM74.03 22.07 a1 1 0 1 0 2 0 a1 1 0 1 0 -2 0zM74.03 18.07 a1 1 0 1 0 2 0 a1 1 0 1 0 -2 0zM74.03 16.07 a1 1 0 1 0 2 0 a1 1 0 1 0 -2 0zM74.03 14.07 a1 1 0 1 0 2 0 a1 1 0 1 0 -2 0zM76.03 40.07 a1 1 0 1 0 2 0 a1 1 0 1 0 -2 0zM76.03 38.07 a1 1 0 1 0 2 0 a1 1 0 1 0 -2 0zM76.03 36.07 a1 1 0 1 0 2 0 a1 1 0 1 0 -2 0zM76.03 34.07 a1 1 0 1 0 2 0 a1 1 0 1 0 -2 0zM76.03 32.07 a1 1 0 1 0 2 0 a1 1 0 1 0 -2 0zM76.03 30.07 a1 1 0 1 0 2 0 a1 1 0 1 0 -2 0zM76.03 28.07 a1 1 0 1 0 2 0 a1 1 0 1 0 -2 0zM76.03 26.07 a1 1 0 1 0 2 0 a1 1 0 1 0 -2 0zM76.03 24.07 a1 1 0 1 0 2 0 a1 1 0 1 0 -2 0zM76.03 22.07 a1 1 0 1 0 2 0 a1 1 0 1 0 -2 0zM76.03 20.07 a1 1 0 1 0 2 0 a1 1 0 1 0 -2 0zM76.03 18.07 a1 1 0 1 0 2 0 a1 1 0 1 0 -2 0zM76.03 14.07 a1 1 0 1 0 2 0 a1 1 0 1 0 -2 0zM78.03 40.07 a1 1 0 1 0 2 0 a1 1 0 1 0 -2 0zM78.03 38.07 a1 1 0 1 0 2 0 a1 1 0 1 0 -2 0zM78.03 36.07 a1 1 0 1 0 2 0 a1 1 0 1 0 -2 0zM78.03 34.07 a1 1 0 1 0 2 0 a1 1 0 1 0 -2 0zM78.03 32.07 a1 1 0 1 0 2 0 a1 1 0 1 0 -2 0zM78.03 30.07 a1 1 0 1 0 2 0 a1 1 0 1 0 -2 0zM78.03 28.07 a1 1 0 1 0 2 0 a1 1 0 1 0 -2 0zM78.03 26.07 a1 1 0 1 0 2 0 a1 1 0 1 0 -2 0zM78.03 24.07 a1 1 0 1 0 2 0 a1 1 0 1 0 -2 0zM78.03 20.07 a1 1 0 1 0 2 0 a1 1 0 1 0 -2 0zM78.03 18.07 a1 1 0 1 0 2 0 a1 1 0 1 0 -2 0zM78.03 14.07 a1 1 0 1 0 2 0 a1 1 0 1 0 -2 0zM80.03 40.07 a1 1 0 1 0 2 0 a1 1 0 1 0 -2 0zM80.03 38.07 a1 1 0 1 0 2 0 a1 1 0 1 0 -2 0zM80.03 36.07 a1 1 0 1 0 2 0 a1 1 0 1 0 -2 0zM80.03 34.07 a1 1 0 1 0 2 0 a1 1 0 1 0 -2 0zM80.03 32.07 a1 1 0 1 0 2 0 a1 1 0 1 0 -2 0zM80.03 30.07 a1 1 0 1 0 2 0 a1 1 0 1 0 -2 0zM80.03 28.07 a1 1 0 1 0 2 0 a1 1 0 1 0 -2 0zM80.03 26.07 a1 1 0 1 0 2 0 a1 1 0 1 0 -2 0zM80.03 24.07 a1 1 0 1 0 2 0 a1 1 0 1 0 -2 0zM80.03 20.07 a1 1 0 1 0 2 0 a1 1 0 1 0 -2 0zM80.03 18.07 a1 1 0 1 0 2 0 a1 1 0 1 0 -2 0zM80.03 12.07 a1 1 0 1 0 2 0 a1 1 0 1 0 -2 0zM82.03 40.07 a1 1 0 1 0 2 0 a1 1 0 1 0 -2 0zM82.03 38.07 a1 1 0 1 0 2 0 a1 1 0 1 0 -2 0zM82.03 36.07 a1 1 0 1 0 2 0 a1 1 0 1 0 -2 0zM82.03 34.07 a1 1 0 1 0 2 0 a1 1 0 1 0 -2 0zM82.03 32.07 a1 1 0 1 0 2 0 a1 1 0 1 0 -2 0zM82.03 30.07 a1 1 0 1 0 2 0 a1 1 0 1 0 -2 0zM82.03 28.07 a1 1 0 1 0 2 0 a1 1 0 1 0 -2 0zM82.03 26.07 a1 1 0 1 0 2 0 a1 1 0 1 0 -2 0zM82.03 24.07 a1 1 0 1 0 2 0 a1 1 0 1 0 -2 0zM82.03 20.07 a1 1 0 1 0 2 0 a1 1 0 1 0 -2 0zM82.03 18.07 a1 1 0 1 0 2 0 a1 1 0 1 0 -2 0zM82.03 12.07 a1 1 0 1 0 2 0 a1 1 0 1 0 -2 0zM84.03 40.07 a1 1 0 1 0 2 0 a1 1 0 1 0 -2 0zM84.03 38.07 a1 1 0 1 0 2 0 a1 1 0 1 0 -2 0zM84.03 36.07 a1 1 0 1 0 2 0 a1 1 0 1 0 -2 0zM84.03 34.07 a1 1 0 1 0 2 0 a1 1 0 1 0 -2 0zM84.03 32.07 a1 1 0 1 0 2 0 a1 1 0 1 0 -2 0zM84.03 30.07 a1 1 0 1 0 2 0 a1 1 0 1 0 -2 0zM84.03 28.07 a1 1 0 1 0 2 0 a1 1 0 1 0 -2 0zM84.03 26.07 a1 1 0 1 0 2 0 a1 1 0 1 0 -2 0zM84.03 24.07 a1 1 0 1 0 2 0 a1 1 0 1 0 -2 0zM84.03 20.07 a1 1 0 1 0 2 0 a1 1 0 1 0 -2 0zM84.03 14.07 a1 1 0 1 0 2 0 a1 1 0 1 0 -2 0zM86.03 40.07 a1 1 0 1 0 2 0 a1 1 0 1 0 -2 0zM86.03 38.07 a1 1 0 1 0 2 0 a1 1 0 1 0 -2 0zM86.03 36.07 a1 1 0 1 0 2 0 a1 1 0 1 0 -2 0zM86.03 34.07 a1 1 0 1 0 2 0 a1 1 0 1 0 -2 0zM86.03 32.07 a1 1 0 1 0 2 0 a1 1 0 1 0 -2 0zM86.03 30.07 a1 1 0 1 0 2 0 a1 1 0 1 0 -2 0zM86.03 28.07 a1 1 0 1 0 2 0 a1 1 0 1 0 -2 0zM86.03 26.07 a1 1 0 1 0 2 0 a1 1 0 1 0 -2 0zM86.03 24.07 a1 1 0 1 0 2 0 a1 1 0 1 0 -2 0zM86.03 22.07 a1 1 0 1 0 2 0 a1 1 0 1 0 -2 0zM86.03 20.07 a1 1 0 1 0 2 0 a1 1 0 1 0 -2 0zM86.03 18.07 a1 1 0 1 0 2 0 a1 1 0 1 0 -2 0zM86.03 14.07 a1 1 0 1 0 2 0 a1 1 0 1 0 -2 0zM88.03 40.07 a1 1 0 1 0 2 0 a1 1 0 1 0 -2 0zM88.03 38.07 a1 1 0 1 0 2 0 a1 1 0 1 0 -2 0zM88.03 36.07 a1 1 0 1 0 2 0 a1 1 0 1 0 -2 0zM88.03 34.07 a1 1 0 1 0 2 0 a1 1 0 1 0 -2 0zM88.03 32.07 a1 1 0 1 0 2 0 a1 1 0 1 0 -2 0zM88.03 30.07 a1 1 0 1 0 2 0 a1 1 0 1 0 -2 0zM88.03 28.07 a1 1 0 1 0 2 0 a1 1 0 1 0 -2 0zM88.03 26.07 a1 1 0 1 0 2 0 a1 1 0 1 0 -2 0zM88.03 24.07 a1 1 0 1 0 2 0 a1 1 0 1 0 -2 0zM88.03 22.07 a1 1 0 1 0 2 0 a1 1 0 1 0 -2 0zM88.03 20.07 a1 1 0 1 0 2 0 a1 1 0 1 0 -2 0zM90.03 40.07 a1 1 0 1 0 2 0 a1 1 0 1 0 -2 0zM90.03 38.07 a1 1 0 1 0 2 0 a1 1 0 1 0 -2 0zM90.03 36.07 a1 1 0 1 0 2 0 a1 1 0 1 0 -2 0zM90.03 34.07 a1 1 0 1 0 2 0 a1 1 0 1 0 -2 0zM90.03 32.07 a1 1 0 1 0 2 0 a1 1 0 1 0 -2 0zM90.03 30.07 a1 1 0 1 0 2 0 a1 1 0 1 0 -2 0zM90.03 28.07 a1 1 0 1 0 2 0 a1 1 0 1 0 -2 0zM90.03 26.07 a1 1 0 1 0 2 0 a1 1 0 1 0 -2 0zM90.03 24.07 a1 1 0 1 0 2 0 a1 1 0 1 0 -2 0zM90.03 20.07 a1 1 0 1 0 2 0 a1 1 0 1 0 -2 0zM92.03 40.07 a1 1 0 1 0 2 0 a1 1 0 1 0 -2 0zM92.03 38.07 a1 1 0 1 0 2 0 a1 1 0 1 0 -2 0zM92.03 36.07 a1 1 0 1 0 2 0 a1 1 0 1 0 -2 0zM92.03 34.07 a1 1 0 1 0 2 0 a1 1 0 1 0 -2 0zM92.03 32.07 a1 1 0 1 0 2 0 a1 1 0 1 0 -2 0zM92.03 30.07 a1 1 0 1 0 2 0 a1 1 0 1 0 -2 0zM92.03 28.07 a1 1 0 1 0 2 0 a1 1 0 1 0 -2 0zM92.03 26.07 a1 1 0 1 0 2 0 a1 1 0 1 0 -2 0zM92.03 24.07 a1 1 0 1 0 2 0 a1 1 0 1 0 -2 0zM92.03 18.07 a1 1 0 1 0 2 0 a1 1 0 1 0 -2 0zM92.03 12.07 a1 1 0 1 0 2 0 a1 1 0 1 0 -2 0zM92.03 10.07 a1 1 0 1 0 2 0 a1 1 0 1 0 -2 0zM94.03 40.07 a1 1 0 1 0 2 0 a1 1 0 1 0 -2 0zM94.03 38.07 a1 1 0 1 0 2 0 a1 1 0 1 0 -2 0zM94.03 36.07 a1 1 0 1 0 2 0 a1 1 0 1 0 -2 0zM94.03 34.07 a1 1 0 1 0 2 0 a1 1 0 1 0 -2 0zM94.03 32.07 a1 1 0 1 0 2 0 a1 1 0 1 0 -2 0zM94.03 30.07 a1 1 0 1 0 2 0 a1 1 0 1 0 -2 0zM94.03 28.07 a1 1 0 1 0 2 0 a1 1 0 1 0 -2 0zM94.03 26.07 a1 1 0 1 0 2 0 a1 1 0 1 0 -2 0zM94.03 24.07 a1 1 0 1 0 2 0 a1 1 0 1 0 -2 0zM94.03 22.07 a1 1 0 1 0 2 0 a1 1 0 1 0 -2 0zM94.03 18.07 a1 1 0 1 0 2 0 a1 1 0 1 0 -2 0zM94.03 16.07 a1 1 0 1 0 2 0 a1 1 0 1 0 -2 0zM94.03 14.07 a1 1 0 1 0 2 0 a1 1 0 1 0 -2 0zM96.03 40.07 a1 1 0 1 0 2 0 a1 1 0 1 0 -2 0zM96.03 38.07 a1 1 0 1 0 2 0 a1 1 0 1 0 -2 0zM96.03 36.07 a1 1 0 1 0 2 0 a1 1 0 1 0 -2 0zM96.03 34.07 a1 1 0 1 0 2 0 a1 1 0 1 0 -2 0zM96.03 32.07 a1 1 0 1 0 2 0 a1 1 0 1 0 -2 0zM96.03 30.07 a1 1 0 1 0 2 0 a1 1 0 1 0 -2 0zM96.03 28.07 a1 1 0 1 0 2 0 a1 1 0 1 0 -2 0zM96.03 26.07 a1 1 0 1 0 2 0 a1 1 0 1 0 -2 0zM96.03 24.07 a1 1 0 1 0 2 0 a1 1 0 1 0 -2 0zM96.03 20.07 a1 1 0 1 0 2 0 a1 1 0 1 0 -2 0zM96.03 12.07 a1 1 0 1 0 2 0 a1 1 0 1 0 -2 0zM96.03 10.07 a1 1 0 1 0 2 0 a1 1 0 1 0 -2 0zM98.03 40.07 a1 1 0 1 0 2 0 a1 1 0 1 0 -2 0zM98.03 38.07 a1 1 0 1 0 2 0 a1 1 0 1 0 -2 0zM98.03 36.07 a1 1 0 1 0 2 0 a1 1 0 1 0 -2 0zM98.03 34.07 a1 1 0 1 0 2 0 a1 1 0 1 0 -2 0zM98.03 32.07 a1 1 0 1 0 2 0 a1 1 0 1 0 -2 0zM98.03 28.07 a1 1 0 1 0 2 0 a1 1 0 1 0 -2 0zM98.03 26.07 a1 1 0 1 0 2 0 a1 1 0 1 0 -2 0zM98.03 24.07 a1 1 0 1 0 2 0 a1 1 0 1 0 -2 0zM98.03 22.07 a1 1 0 1 0 2 0 a1 1 0 1 0 -2 0zM98.03 20.07 a1 1 0 1 0 2 0 a1 1 0 1 0 -2 0zM98.03 16.07 a1 1 0 1 0 2 0 a1 1 0 1 0 -2 0zM98.03 10.07 a1 1 0 1 0 2 0 a1 1 0 1 0 -2 0zM100.03 40.07 a1 1 0 1 0 2 0 a1 1 0 1 0 -2 0zM100.03 38.07 a1 1 0 1 0 2 0 a1 1 0 1 0 -2 0zM100.03 36.07 a1 1 0 1 0 2 0 a1 1 0 1 0 -2 0zM100.03 34.07 a1 1 0 1 0 2 0 a1 1 0 1 0 -2 0zM100.03 26.07 a1 1 0 1 0 2 0 a1 1 0 1 0 -2 0zM100.03 24.07 a1 1 0 1 0 2 0 a1 1 0 1 0 -2 0zM100.03 22.07 a1 1 0 1 0 2 0 a1 1 0 1 0 -2 0zM100.03 16.07 a1 1 0 1 0 2 0 a1 1 0 1 0 -2 0zM100.03 14.07 a1 1 0 1 0 2 0 a1 1 0 1 0 -2 0zM100.03 10.07 a1 1 0 1 0 2 0 a1 1 0 1 0 -2 0zM102.03 40.07 a1 1 0 1 0 2 0 a1 1 0 1 0 -2 0zM102.03 38.07 a1 1 0 1 0 2 0 a1 1 0 1 0 -2 0zM102.03 36.07 a1 1 0 1 0 2 0 a1 1 0 1 0 -2 0zM102.03 34.07 a1 1 0 1 0 2 0 a1 1 0 1 0 -2 0zM102.03 26.07 a1 1 0 1 0 2 0 a1 1 0 1 0 -2 0zM102.03 24.07 a1 1 0 1 0 2 0 a1 1 0 1 0 -2 0zM102.03 22.07 a1 1 0 1 0 2 0 a1 1 0 1 0 -2 0zM102.03 18.07 a1 1 0 1 0 2 0 a1 1 0 1 0 -2 0zM102.03 14.07 a1 1 0 1 0 2 0 a1 1 0 1 0 -2 0zM102.03 10.07 a1 1 0 1 0 2 0 a1 1 0 1 0 -2 0zM104.03 40.07 a1 1 0 1 0 2 0 a1 1 0 1 0 -2 0zM104.03 38.07 a1 1 0 1 0 2 0 a1 1 0 1 0 -2 0zM104.03 36.07 a1 1 0 1 0 2 0 a1 1 0 1 0 -2 0zM104.03 34.07 a1 1 0 1 0 2 0 a1 1 0 1 0 -2 0zM104.03 24.07 a1 1 0 1 0 2 0 a1 1 0 1 0 -2 0zM104.03 18.07 a1 1 0 1 0 2 0 a1 1 0 1 0 -2 0zM104.03 10.07 a1 1 0 1 0 2 0 a1 1 0 1 0 -2 0zM104.03 8.07 a1 1 0 1 0 2 0 a1 1 0 1 0 -2 0zM106.03 42.07 a1 1 0 1 0 2 0 a1 1 0 1 0 -2 0zM106.03 40.07 a1 1 0 1 0 2 0 a1 1 0 1 0 -2 0zM106.03 38.07 a1 1 0 1 0 2 0 a1 1 0 1 0 -2 0zM106.03 36.07 a1 1 0 1 0 2 0 a1 1 0 1 0 -2 0zM106.03 26.07 a1 1 0 1 0 2 0 a1 1 0 1 0 -2 0zM106.03 22.07 a1 1 0 1 0 2 0 a1 1 0 1 0 -2 0zM106.03 10.07 a1 1 0 1 0 2 0 a1 1 0 1 0 -2 0zM106.03 8.07 a1 1 0 1 0 2 0 a1 1 0 1 0 -2 0zM108.03 42.07 a1 1 0 1 0 2 0 a1 1 0 1 0 -2 0zM108.03 40.07 a1 1 0 1 0 2 0 a1 1 0 1 0 -2 0zM108.03 38.07 a1 1 0 1 0 2 0 a1 1 0 1 0 -2 0zM108.03 36.07 a1 1 0 1 0 2 0 a1 1 0 1 0 -2 0zM108.03 26.07 a1 1 0 1 0 2 0 a1 1 0 1 0 -2 0zM108.03 24.07 a1 1 0 1 0 2 0 a1 1 0 1 0 -2 0zM108.03 22.07 a1 1 0 1 0 2 0 a1 1 0 1 0 -2 0zM108.03 20.07 a1 1 0 1 0 2 0 a1 1 0 1 0 -2 0zM108.03 18.07 a1 1 0 1 0 2 0 a1 1 0 1 0 -2 0zM108.03 12.07 a1 1 0 1 0 2 0 a1 1 0 1 0 -2 0zM108.03 10.07 a1 1 0 1 0 2 0 a1 1 0 1 0 -2 0zM108.03 8.07 a1 1 0 1 0 2 0 a1 1 0 1 0 -2 0zM110.03 48.07 a1 1 0 1 0 2 0 a1 1 0 1 0 -2 0zM110.03 46.07 a1 1 0 1 0 2 0 a1 1 0 1 0 -2 0zM110.03 44.07 a1 1 0 1 0 2 0 a1 1 0 1 0 -2 0zM110.03 42.07 a1 1 0 1 0 2 0 a1 1 0 1 0 -2 0zM110.03 40.07 a1 1 0 1 0 2 0 a1 1 0 1 0 -2 0zM110.03 38.07 a1 1 0 1 0 2 0 a1 1 0 1 0 -2 0zM110.03 26.07 a1 1 0 1 0 2 0 a1 1 0 1 0 -2 0zM110.03 20.07 a1 1 0 1 0 2 0 a1 1 0 1 0 -2 0zM110.03 18.07 a1 1 0 1 0 2 0 a1 1 0 1 0 -2 0zM110.03 12.07 a1 1 0 1 0 2 0 a1 1 0 1 0 -2 0zM110.03 10.07 a1 1 0 1 0 2 0 a1 1 0 1 0 -2 0zM110.03 8.07 a1 1 0 1 0 2 0 a1 1 0 1 0 -2 0zM112.03 46.07 a1 1 0 1 0 2 0 a1 1 0 1 0 -2 0zM112.03 44.07 a1 1 0 1 0 2 0 a1 1 0 1 0 -2 0zM112.03 42.07 a1 1 0 1 0 2 0 a1 1 0 1 0 -2 0zM112.03 40.07 a1 1 0 1 0 2 0 a1 1 0 1 0 -2 0zM112.03 28.07 a1 1 0 1 0 2 0 a1 1 0 1 0 -2 0zM112.03 20.07 a1 1 0 1 0 2 0 a1 1 0 1 0 -2 0zM112.03 18.07 a1 1 0 1 0 2 0 a1 1 0 1 0 -2 0zM112.03 12.07 a1 1 0 1 0 2 0 a1 1 0 1 0 -2 0zM112.03 10.07 a1 1 0 1 0 2 0 a1 1 0 1 0 -2 0zM114.03 46.07 a1 1 0 1 0 2 0 a1 1 0 1 0 -2 0zM114.03 44.07 a1 1 0 1 0 2 0 a1 1 0 1 0 -2 0zM114.03 42.07 a1 1 0 1 0 2 0 a1 1 0 1 0 -2 0zM114.03 40.07 a1 1 0 1 0 2 0 a1 1 0 1 0 -2 0zM114.03 38.07 a1 1 0 1 0 2 0 a1 1 0 1 0 -2 0zM114.03 36.07 a1 1 0 1 0 2 0 a1 1 0 1 0 -2 0zM114.03 28.07 a1 1 0 1 0 2 0 a1 1 0 1 0 -2 0zM114.03 18.07 a1 1 0 1 0 2 0 a1 1 0 1 0 -2 0zM114.03 12.07 a1 1 0 1 0 2 0 a1 1 0 1 0 -2 0zM114.03 10.07 a1 1 0 1 0 2 0 a1 1 0 1 0 -2 0zM114.03 8.07 a1 1 0 1 0 2 0 a1 1 0 1 0 -2 0zM116.03 44.07 a1 1 0 1 0 2 0 a1 1 0 1 0 -2 0zM116.03 42.07 a1 1 0 1 0 2 0 a1 1 0 1 0 -2 0zM116.03 40.07 a1 1 0 1 0 2 0 a1 1 0 1 0 -2 0zM116.03 38.07 a1 1 0 1 0 2 0 a1 1 0 1 0 -2 0zM116.03 36.07 a1 1 0 1 0 2 0 a1 1 0 1 0 -2 0zM116.03 34.07 a1 1 0 1 0 2 0 a1 1 0 1 0 -2 0zM116.03 32.07 a1 1 0 1 0 2 0 a1 1 0 1 0 -2 0zM116.03 30.07 a1 1 0 1 0 2 0 a1 1 0 1 0 -2 0zM116.03 28.07 a1 1 0 1 0 2 0 a1 1 0 1 0 -2 0zM116.03 22.07 a1 1 0 1 0 2 0 a1 1 0 1 0 -2 0zM116.03 20.07 a1 1 0 1 0 2 0 a1 1 0 1 0 -2 0zM116.03 18.07 a1 1 0 1 0 2 0 a1 1 0 1 0 -2 0zM116.03 12.07 a1 1 0 1 0 2 0 a1 1 0 1 0 -2 0zM116.03 10.07 a1 1 0 1 0 2 0 a1 1 0 1 0 -2 0zM116.03 8.07 a1 1 0 1 0 2 0 a1 1 0 1 0 -2 0zM118.03 44.07 a1 1 0 1 0 2 0 a1 1 0 1 0 -2 0zM118.03 42.07 a1 1 0 1 0 2 0 a1 1 0 1 0 -2 0zM118.03 40.07 a1 1 0 1 0 2 0 a1 1 0 1 0 -2 0zM118.03 38.07 a1 1 0 1 0 2 0 a1 1 0 1 0 -2 0zM118.03 36.07 a1 1 0 1 0 2 0 a1 1 0 1 0 -2 0zM118.03 34.07 a1 1 0 1 0 2 0 a1 1 0 1 0 -2 0zM118.03 32.07 a1 1 0 1 0 2 0 a1 1 0 1 0 -2 0zM118.03 30.07 a1 1 0 1 0 2 0 a1 1 0 1 0 -2 0zM118.03 28.07 a1 1 0 1 0 2 0 a1 1 0 1 0 -2 0zM118.03 24.07 a1 1 0 1 0 2 0 a1 1 0 1 0 -2 0zM118.03 22.07 a1 1 0 1 0 2 0 a1 1 0 1 0 -2 0zM118.03 20.07 a1 1 0 1 0 2 0 a1 1 0 1 0 -2 0zM118.03 10.07 a1 1 0 1 0 2 0 a1 1 0 1 0 -2 0zM118.03 8.07 a1 1 0 1 0 2 0 a1 1 0 1 0 -2 0zM120.03 44.07 a1 1 0 1 0 2 0 a1 1 0 1 0 -2 0zM120.03 42.07 a1 1 0 1 0 2 0 a1 1 0 1 0 -2 0zM120.03 40.07 a1 1 0 1 0 2 0 a1 1 0 1 0 -2 0zM120.03 38.07 a1 1 0 1 0 2 0 a1 1 0 1 0 -2 0zM120.03 36.07 a1 1 0 1 0 2 0 a1 1 0 1 0 -2 0zM120.03 34.07 a1 1 0 1 0 2 0 a1 1 0 1 0 -2 0zM120.03 32.07 a1 1 0 1 0 2 0 a1 1 0 1 0 -2 0zM120.03 30.07 a1 1 0 1 0 2 0 a1 1 0 1 0 -2 0zM120.03 26.07 a1 1 0 1 0 2 0 a1 1 0 1 0 -2 0zM120.03 24.07 a1 1 0 1 0 2 0 a1 1 0 1 0 -2 0zM120.03 22.07 a1 1 0 1 0 2 0 a1 1 0 1 0 -2 0zM120.03 20.07 a1 1 0 1 0 2 0 a1 1 0 1 0 -2 0zM120.03 10.07 a1 1 0 1 0 2 0 a1 1 0 1 0 -2 0zM120.03 8.07 a1 1 0 1 0 2 0 a1 1 0 1 0 -2 0zM122.03 42.07 a1 1 0 1 0 2 0 a1 1 0 1 0 -2 0zM122.03 40.07 a1 1 0 1 0 2 0 a1 1 0 1 0 -2 0zM122.03 38.07 a1 1 0 1 0 2 0 a1 1 0 1 0 -2 0zM122.03 36.07 a1 1 0 1 0 2 0 a1 1 0 1 0 -2 0zM122.03 34.07 a1 1 0 1 0 2 0 a1 1 0 1 0 -2 0zM122.03 32.07 a1 1 0 1 0 2 0 a1 1 0 1 0 -2 0zM122.03 26.07 a1 1 0 1 0 2 0 a1 1 0 1 0 -2 0zM122.03 24.07 a1 1 0 1 0 2 0 a1 1 0 1 0 -2 0zM122.03 22.07 a1 1 0 1 0 2 0 a1 1 0 1 0 -2 0zM122.03 20.07 a1 1 0 1 0 2 0 a1 1 0 1 0 -2 0zM122.03 8.07 a1 1 0 1 0 2 0 a1 1 0 1 0 -2 0zM124.03 42.07 a1 1 0 1 0 2 0 a1 1 0 1 0 -2 0zM124.03 40.07 a1 1 0 1 0 2 0 a1 1 0 1 0 -2 0zM124.03 38.07 a1 1 0 1 0 2 0 a1 1 0 1 0 -2 0zM124.03 36.07 a1 1 0 1 0 2 0 a1 1 0 1 0 -2 0zM124.03 34.07 a1 1 0 1 0 2 0 a1 1 0 1 0 -2 0zM124.03 32.07 a1 1 0 1 0 2 0 a1 1 0 1 0 -2 0zM124.03 26.07 a1 1 0 1 0 2 0 a1 1 0 1 0 -2 0zM124.03 24.07 a1 1 0 1 0 2 0 a1 1 0 1 0 -2 0zM124.03 22.07 a1 1 0 1 0 2 0 a1 1 0 1 0 -2 0zM124.03 20.07 a1 1 0 1 0 2 0 a1 1 0 1 0 -2 0zM124.03 8.07 a1 1 0 1 0 2 0 a1 1 0 1 0 -2 0zM126.03 46.07 a1 1 0 1 0 2 0 a1 1 0 1 0 -2 0zM126.03 44.07 a1 1 0 1 0 2 0 a1 1 0 1 0 -2 0zM126.03 38.07 a1 1 0 1 0 2 0 a1 1 0 1 0 -2 0zM126.03 36.07 a1 1 0 1 0 2 0 a1 1 0 1 0 -2 0zM126.03 34.07 a1 1 0 1 0 2 0 a1 1 0 1 0 -2 0zM126.03 32.07 a1 1 0 1 0 2 0 a1 1 0 1 0 -2 0zM126.03 26.07 a1 1 0 1 0 2 0 a1 1 0 1 0 -2 0zM126.03 22.07 a1 1 0 1 0 2 0 a1 1 0 1 0 -2 0zM126.03 8.07 a1 1 0 1 0 2 0 a1 1 0 1 0 -2 0zM128.03 44.07 a1 1 0 1 0 2 0 a1 1 0 1 0 -2 0zM128.03 38.07 a1 1 0 1 0 2 0 a1 1 0 1 0 -2 0zM128.03 36.07 a1 1 0 1 0 2 0 a1 1 0 1 0 -2 0zM128.03 34.07 a1 1 0 1 0 2 0 a1 1 0 1 0 -2 0zM128.03 32.07 a1 1 0 1 0 2 0 a1 1 0 1 0 -2 0zM128.03 24.07 a1 1 0 1 0 2 0 a1 1 0 1 0 -2 0zM128.03 8.07 a1 1 0 1 0 2 0 a1 1 0 1 0 -2 0zM130.03 38.07 a1 1 0 1 0 2 0 a1 1 0 1 0 -2 0zM130.03 36.07 a1 1 0 1 0 2 0 a1 1 0 1 0 -2 0zM130.03 34.07 a1 1 0 1 0 2 0 a1 1 0 1 0 -2 0zM132.03 44.07 a1 1 0 1 0 2 0 a1 1 0 1 0 -2 0zM132.03 38.07 a1 1 0 1 0 2 0 a1 1 0 1 0 -2 0zM132.03 36.07 a1 1 0 1 0 2 0 a1 1 0 1 0 -2 0zM134.03 42.07 a1 1 0 1 0 2 0 a1 1 0 1 0 -2 0zM134.03 38.07 a1 1 0 1 0 2 0 a1 1 0 1 0 -2 0zM134.03 36.07 a1 1 0 1 0 2 0 a1 1 0 1 0 -2 0zM136.03 42.07 a1 1 0 1 0 2 0 a1 1 0 1 0 -2 0zM136.03 38.07 a1 1 0 1 0 2 0 a1 1 0 1 0 -2 0zM138.03 42.07 a1 1 0 1 0 2 0 a1 1 0 1 0 -2 0z" transform="scale(3.73)" fill="#ffffff"></path>
    </g>
    <defs>
        <mask id="SvgjsMask1030">
            <rect width="1440" height="560" fill="#ffffff"></rect>
        </mask>
    </defs>
</svg>