<svg xmlns="http://www.w3.org/2000/svg" version="1.1" xmlns:xlink="http://www.w3.org/1999/xlink" xmlns:svgjs="http://svgjs.com/svgjs" width="1440" height="560" preserveAspectRatio="none" viewBox="0 0 1440 560">
    <g mask="url(&quot;#SvgjsMask1012&quot;)" fill="none">
        <path d="M206.03 76.07 a1 1 0 1 0 2 0 a1 1 0 1 0 -2 0zM208.03 82.07 a1 1 0 1 0 2 0 a1 1 0 1 0 -2 0zM208.03 80.07 a1 1 0 1 0 2 0 a1 1 0 1 0 -2 0zM208.03 78.07 a1 1 0 1 0 2 0 a1 1 0 1 0 -2 0zM208.03 76.07 a1 1 0 1 0 2 0 a1 1 0 1 0 -2 0zM208.03 74.07 a1 1 0 1 0 2 0 a1 1 0 1 0 -2 0zM208.03 72.07 a1 1 0 1 0 2 0 a1 1 0 1 0 -2 0zM208.03 70.07 a1 1 0 1 0 2 0 a1 1 0 1 0 -2 0zM208.03 68.07 a1 1 0 1 0 2 0 a1 1 0 1 0 -2 0zM210.03 80.07 a1 1 0 1 0 2 0 a1 1 0 1 0 -2 0zM210.03 78.07 a1 1 0 1 0 2 0 a1 1 0 1 0 -2 0zM210.03 76.07 a1 1 0 1 0 2 0 a1 1 0 1 0 -2 0zM210.03 74.07 a1 1 0 1 0 2 0 a1 1 0 1 0 -2 0zM210.03 72.07 a1 1 0 1 0 2 0 a1 1 0 1 0 -2 0zM210.03 70.07 a1 1 0 1 0 2 0 a1 1 0 1 0 -2 0zM210.03 68.07 a1 1 0 1 0 2 0 a1 1 0 1 0 -2 0zM212.03 80.07 a1 1 0 1 0 2 0 a1 1 0 1 0 -2 0zM212.03 78.07 a1 1 0 1 0 2 0 a1 1 0 1 0 -2 0zM212.03 76.07 a1 1 0 1 0 2 0 a1 1 0 1 0 -2 0zM212.03 74.07 a1 1 0 1 0 2 0 a1 1 0 1 0 -2 0zM212.03 72.07 a1 1 0 1 0 2 0 a1 1 0 1 0 -2 0zM212.03 70.07 a1 1 0 1 0 2 0 a1 1 0 1 0 -2 0zM214.03 78.07 a1 1 0 1 0 2 0 a1 1 0 1 0 -2 0zM214.03 76.07 a1 1 0 1 0 2 0 a1 1 0 1 0 -2 0zM214.03 74.07 a1 1 0 1 0 2 0 a1 1 0 1 0 -2 0zM214.03 72.07 a1 1 0 1 0 2 0 a1 1 0 1 0 -2 0zM214.03 70.07 a1 1 0 1 0 2 0 a1 1 0 1 0 -2 0z" transform="scale(3.73)" fill="#ffffff"></path>
    </g>
    <defs>
        <mask id="SvgjsMask1012">
            <rect width="1440" height="560" fill="#ffffff"></rect>
        </mask>
    </defs>
</svg>