<svg xmlns="http://www.w3.org/2000/svg" version="1.1" xmlns:xlink="http://www.w3.org/1999/xlink" xmlns:svgjs="http://svgjs.com/svgjs" width="1440" height="560" preserveAspectRatio="none" viewBox="0 0 1440 560">
    <g mask="url(&quot;#SvgjsMask1098&quot;)" fill="none">
        <path d="M118.03 142.07 a1 1 0 1 0 2 0 a1 1 0 1 0 -2 0zM118.03 132.07 a1 1 0 1 0 2 0 a1 1 0 1 0 -2 0zM120.03 144.07 a1 1 0 1 0 2 0 a1 1 0 1 0 -2 0zM120.03 142.07 a1 1 0 1 0 2 0 a1 1 0 1 0 -2 0zM120.03 136.07 a1 1 0 1 0 2 0 a1 1 0 1 0 -2 0zM120.03 134.07 a1 1 0 1 0 2 0 a1 1 0 1 0 -2 0zM120.03 132.07 a1 1 0 1 0 2 0 a1 1 0 1 0 -2 0zM120.03 130.07 a1 1 0 1 0 2 0 a1 1 0 1 0 -2 0zM120.03 128.07 a1 1 0 1 0 2 0 a1 1 0 1 0 -2 0zM120.03 126.07 a1 1 0 1 0 2 0 a1 1 0 1 0 -2 0zM122.03 144.07 a1 1 0 1 0 2 0 a1 1 0 1 0 -2 0zM122.03 124.07 a1 1 0 1 0 2 0 a1 1 0 1 0 -2 0zM122.03 120.07 a1 1 0 1 0 2 0 a1 1 0 1 0 -2 0zM122.03 118.07 a1 1 0 1 0 2 0 a1 1 0 1 0 -2 0zM122.03 116.07 a1 1 0 1 0 2 0 a1 1 0 1 0 -2 0zM122.03 114.07 a1 1 0 1 0 2 0 a1 1 0 1 0 -2 0zM122.03 112.07 a1 1 0 1 0 2 0 a1 1 0 1 0 -2 0zM122.03 110.07 a1 1 0 1 0 2 0 a1 1 0 1 0 -2 0zM124.03 114.07 a1 1 0 1 0 2 0 a1 1 0 1 0 -2 0z" transform="scale(3.73)" fill="#ffffff"></path>
    </g>
    <defs>
        <mask id="SvgjsMask1098">
            <rect width="1440" height="560" fill="#ffffff"></rect>
        </mask>
    </defs>
</svg>