<svg xmlns="http://www.w3.org/2000/svg" version="1.1" xmlns:xlink="http://www.w3.org/1999/xlink" xmlns:svgjs="http://svgjs.com/svgjs" width="1440" height="560" preserveAspectRatio="none" viewBox="0 0 1440 560">
    <g mask="url(&quot;#SvgjsMask1054&quot;)" fill="none">
        <path d="M266.03 50.07 a1 1 0 1 0 2 0 a1 1 0 1 0 -2 0zM268.03 54.07 a1 1 0 1 0 2 0 a1 1 0 1 0 -2 0zM268.03 52.07 a1 1 0 1 0 2 0 a1 1 0 1 0 -2 0zM268.03 50.07 a1 1 0 1 0 2 0 a1 1 0 1 0 -2 0zM270.03 54.07 a1 1 0 1 0 2 0 a1 1 0 1 0 -2 0zM270.03 52.07 a1 1 0 1 0 2 0 a1 1 0 1 0 -2 0zM270.03 50.07 a1 1 0 1 0 2 0 a1 1 0 1 0 -2 0zM272.03 58.07 a1 1 0 1 0 2 0 a1 1 0 1 0 -2 0zM272.03 56.07 a1 1 0 1 0 2 0 a1 1 0 1 0 -2 0zM272.03 54.07 a1 1 0 1 0 2 0 a1 1 0 1 0 -2 0zM272.03 52.07 a1 1 0 1 0 2 0 a1 1 0 1 0 -2 0zM272.03 50.07 a1 1 0 1 0 2 0 a1 1 0 1 0 -2 0zM272.03 48.07 a1 1 0 1 0 2 0 a1 1 0 1 0 -2 0zM274.03 58.07 a1 1 0 1 0 2 0 a1 1 0 1 0 -2 0zM274.03 56.07 a1 1 0 1 0 2 0 a1 1 0 1 0 -2 0zM274.03 54.07 a1 1 0 1 0 2 0 a1 1 0 1 0 -2 0zM274.03 52.07 a1 1 0 1 0 2 0 a1 1 0 1 0 -2 0zM274.03 50.07 a1 1 0 1 0 2 0 a1 1 0 1 0 -2 0zM274.03 48.07 a1 1 0 1 0 2 0 a1 1 0 1 0 -2 0zM274.03 46.07 a1 1 0 1 0 2 0 a1 1 0 1 0 -2 0zM276.03 60.07 a1 1 0 1 0 2 0 a1 1 0 1 0 -2 0zM276.03 58.07 a1 1 0 1 0 2 0 a1 1 0 1 0 -2 0zM276.03 56.07 a1 1 0 1 0 2 0 a1 1 0 1 0 -2 0zM276.03 54.07 a1 1 0 1 0 2 0 a1 1 0 1 0 -2 0zM276.03 52.07 a1 1 0 1 0 2 0 a1 1 0 1 0 -2 0zM276.03 50.07 a1 1 0 1 0 2 0 a1 1 0 1 0 -2 0zM276.03 48.07 a1 1 0 1 0 2 0 a1 1 0 1 0 -2 0zM276.03 46.07 a1 1 0 1 0 2 0 a1 1 0 1 0 -2 0zM276.03 44.07 a1 1 0 1 0 2 0 a1 1 0 1 0 -2 0zM278.03 62.07 a1 1 0 1 0 2 0 a1 1 0 1 0 -2 0zM278.03 60.07 a1 1 0 1 0 2 0 a1 1 0 1 0 -2 0zM278.03 58.07 a1 1 0 1 0 2 0 a1 1 0 1 0 -2 0zM278.03 56.07 a1 1 0 1 0 2 0 a1 1 0 1 0 -2 0zM278.03 54.07 a1 1 0 1 0 2 0 a1 1 0 1 0 -2 0zM278.03 52.07 a1 1 0 1 0 2 0 a1 1 0 1 0 -2 0zM278.03 50.07 a1 1 0 1 0 2 0 a1 1 0 1 0 -2 0zM278.03 48.07 a1 1 0 1 0 2 0 a1 1 0 1 0 -2 0zM278.03 46.07 a1 1 0 1 0 2 0 a1 1 0 1 0 -2 0zM278.03 44.07 a1 1 0 1 0 2 0 a1 1 0 1 0 -2 0zM278.03 42.07 a1 1 0 1 0 2 0 a1 1 0 1 0 -2 0zM280.03 62.07 a1 1 0 1 0 2 0 a1 1 0 1 0 -2 0zM280.03 60.07 a1 1 0 1 0 2 0 a1 1 0 1 0 -2 0zM280.03 58.07 a1 1 0 1 0 2 0 a1 1 0 1 0 -2 0zM280.03 56.07 a1 1 0 1 0 2 0 a1 1 0 1 0 -2 0zM280.03 54.07 a1 1 0 1 0 2 0 a1 1 0 1 0 -2 0zM280.03 52.07 a1 1 0 1 0 2 0 a1 1 0 1 0 -2 0zM280.03 50.07 a1 1 0 1 0 2 0 a1 1 0 1 0 -2 0zM280.03 48.07 a1 1 0 1 0 2 0 a1 1 0 1 0 -2 0zM280.03 46.07 a1 1 0 1 0 2 0 a1 1 0 1 0 -2 0zM280.03 44.07 a1 1 0 1 0 2 0 a1 1 0 1 0 -2 0zM280.03 42.07 a1 1 0 1 0 2 0 a1 1 0 1 0 -2 0zM282.03 60.07 a1 1 0 1 0 2 0 a1 1 0 1 0 -2 0zM282.03 58.07 a1 1 0 1 0 2 0 a1 1 0 1 0 -2 0zM282.03 56.07 a1 1 0 1 0 2 0 a1 1 0 1 0 -2 0zM282.03 54.07 a1 1 0 1 0 2 0 a1 1 0 1 0 -2 0zM282.03 52.07 a1 1 0 1 0 2 0 a1 1 0 1 0 -2 0zM282.03 50.07 a1 1 0 1 0 2 0 a1 1 0 1 0 -2 0zM282.03 48.07 a1 1 0 1 0 2 0 a1 1 0 1 0 -2 0zM282.03 46.07 a1 1 0 1 0 2 0 a1 1 0 1 0 -2 0zM282.03 44.07 a1 1 0 1 0 2 0 a1 1 0 1 0 -2 0zM284.03 62.07 a1 1 0 1 0 2 0 a1 1 0 1 0 -2 0zM284.03 60.07 a1 1 0 1 0 2 0 a1 1 0 1 0 -2 0zM284.03 58.07 a1 1 0 1 0 2 0 a1 1 0 1 0 -2 0zM284.03 56.07 a1 1 0 1 0 2 0 a1 1 0 1 0 -2 0zM284.03 54.07 a1 1 0 1 0 2 0 a1 1 0 1 0 -2 0zM284.03 52.07 a1 1 0 1 0 2 0 a1 1 0 1 0 -2 0zM284.03 50.07 a1 1 0 1 0 2 0 a1 1 0 1 0 -2 0zM284.03 48.07 a1 1 0 1 0 2 0 a1 1 0 1 0 -2 0zM284.03 46.07 a1 1 0 1 0 2 0 a1 1 0 1 0 -2 0zM286.03 60.07 a1 1 0 1 0 2 0 a1 1 0 1 0 -2 0zM286.03 58.07 a1 1 0 1 0 2 0 a1 1 0 1 0 -2 0zM286.03 56.07 a1 1 0 1 0 2 0 a1 1 0 1 0 -2 0zM286.03 54.07 a1 1 0 1 0 2 0 a1 1 0 1 0 -2 0zM286.03 52.07 a1 1 0 1 0 2 0 a1 1 0 1 0 -2 0zM286.03 50.07 a1 1 0 1 0 2 0 a1 1 0 1 0 -2 0zM286.03 48.07 a1 1 0 1 0 2 0 a1 1 0 1 0 -2 0zM286.03 46.07 a1 1 0 1 0 2 0 a1 1 0 1 0 -2 0zM288.03 60.07 a1 1 0 1 0 2 0 a1 1 0 1 0 -2 0zM288.03 58.07 a1 1 0 1 0 2 0 a1 1 0 1 0 -2 0zM288.03 56.07 a1 1 0 1 0 2 0 a1 1 0 1 0 -2 0zM288.03 54.07 a1 1 0 1 0 2 0 a1 1 0 1 0 -2 0zM288.03 52.07 a1 1 0 1 0 2 0 a1 1 0 1 0 -2 0zM288.03 50.07 a1 1 0 1 0 2 0 a1 1 0 1 0 -2 0zM288.03 48.07 a1 1 0 1 0 2 0 a1 1 0 1 0 -2 0zM290.03 60.07 a1 1 0 1 0 2 0 a1 1 0 1 0 -2 0zM290.03 58.07 a1 1 0 1 0 2 0 a1 1 0 1 0 -2 0zM290.03 56.07 a1 1 0 1 0 2 0 a1 1 0 1 0 -2 0zM290.03 54.07 a1 1 0 1 0 2 0 a1 1 0 1 0 -2 0zM290.03 52.07 a1 1 0 1 0 2 0 a1 1 0 1 0 -2 0zM290.03 50.07 a1 1 0 1 0 2 0 a1 1 0 1 0 -2 0zM290.03 48.07 a1 1 0 1 0 2 0 a1 1 0 1 0 -2 0zM292.03 68.07 a1 1 0 1 0 2 0 a1 1 0 1 0 -2 0zM292.03 66.07 a1 1 0 1 0 2 0 a1 1 0 1 0 -2 0zM292.03 64.07 a1 1 0 1 0 2 0 a1 1 0 1 0 -2 0zM292.03 62.07 a1 1 0 1 0 2 0 a1 1 0 1 0 -2 0zM292.03 60.07 a1 1 0 1 0 2 0 a1 1 0 1 0 -2 0zM292.03 58.07 a1 1 0 1 0 2 0 a1 1 0 1 0 -2 0zM292.03 56.07 a1 1 0 1 0 2 0 a1 1 0 1 0 -2 0zM292.03 54.07 a1 1 0 1 0 2 0 a1 1 0 1 0 -2 0zM292.03 52.07 a1 1 0 1 0 2 0 a1 1 0 1 0 -2 0zM292.03 50.07 a1 1 0 1 0 2 0 a1 1 0 1 0 -2 0zM292.03 48.07 a1 1 0 1 0 2 0 a1 1 0 1 0 -2 0zM294.03 66.07 a1 1 0 1 0 2 0 a1 1 0 1 0 -2 0zM294.03 64.07 a1 1 0 1 0 2 0 a1 1 0 1 0 -2 0zM294.03 62.07 a1 1 0 1 0 2 0 a1 1 0 1 0 -2 0zM294.03 60.07 a1 1 0 1 0 2 0 a1 1 0 1 0 -2 0zM294.03 58.07 a1 1 0 1 0 2 0 a1 1 0 1 0 -2 0zM294.03 56.07 a1 1 0 1 0 2 0 a1 1 0 1 0 -2 0zM294.03 54.07 a1 1 0 1 0 2 0 a1 1 0 1 0 -2 0zM294.03 52.07 a1 1 0 1 0 2 0 a1 1 0 1 0 -2 0zM294.03 50.07 a1 1 0 1 0 2 0 a1 1 0 1 0 -2 0zM294.03 48.07 a1 1 0 1 0 2 0 a1 1 0 1 0 -2 0zM296.03 66.07 a1 1 0 1 0 2 0 a1 1 0 1 0 -2 0zM296.03 64.07 a1 1 0 1 0 2 0 a1 1 0 1 0 -2 0zM296.03 62.07 a1 1 0 1 0 2 0 a1 1 0 1 0 -2 0zM296.03 60.07 a1 1 0 1 0 2 0 a1 1 0 1 0 -2 0zM296.03 58.07 a1 1 0 1 0 2 0 a1 1 0 1 0 -2 0zM296.03 56.07 a1 1 0 1 0 2 0 a1 1 0 1 0 -2 0zM296.03 54.07 a1 1 0 1 0 2 0 a1 1 0 1 0 -2 0zM296.03 52.07 a1 1 0 1 0 2 0 a1 1 0 1 0 -2 0zM296.03 50.07 a1 1 0 1 0 2 0 a1 1 0 1 0 -2 0zM298.03 66.07 a1 1 0 1 0 2 0 a1 1 0 1 0 -2 0zM298.03 64.07 a1 1 0 1 0 2 0 a1 1 0 1 0 -2 0zM298.03 62.07 a1 1 0 1 0 2 0 a1 1 0 1 0 -2 0zM298.03 60.07 a1 1 0 1 0 2 0 a1 1 0 1 0 -2 0zM298.03 58.07 a1 1 0 1 0 2 0 a1 1 0 1 0 -2 0zM298.03 56.07 a1 1 0 1 0 2 0 a1 1 0 1 0 -2 0zM298.03 54.07 a1 1 0 1 0 2 0 a1 1 0 1 0 -2 0zM298.03 52.07 a1 1 0 1 0 2 0 a1 1 0 1 0 -2 0zM298.03 50.07 a1 1 0 1 0 2 0 a1 1 0 1 0 -2 0zM298.03 48.07 a1 1 0 1 0 2 0 a1 1 0 1 0 -2 0zM300.03 68.07 a1 1 0 1 0 2 0 a1 1 0 1 0 -2 0zM300.03 66.07 a1 1 0 1 0 2 0 a1 1 0 1 0 -2 0zM300.03 64.07 a1 1 0 1 0 2 0 a1 1 0 1 0 -2 0zM300.03 62.07 a1 1 0 1 0 2 0 a1 1 0 1 0 -2 0zM300.03 60.07 a1 1 0 1 0 2 0 a1 1 0 1 0 -2 0zM300.03 58.07 a1 1 0 1 0 2 0 a1 1 0 1 0 -2 0zM300.03 56.07 a1 1 0 1 0 2 0 a1 1 0 1 0 -2 0zM300.03 54.07 a1 1 0 1 0 2 0 a1 1 0 1 0 -2 0zM300.03 52.07 a1 1 0 1 0 2 0 a1 1 0 1 0 -2 0zM300.03 50.07 a1 1 0 1 0 2 0 a1 1 0 1 0 -2 0zM300.03 48.07 a1 1 0 1 0 2 0 a1 1 0 1 0 -2 0zM302.03 68.07 a1 1 0 1 0 2 0 a1 1 0 1 0 -2 0zM302.03 66.07 a1 1 0 1 0 2 0 a1 1 0 1 0 -2 0zM302.03 64.07 a1 1 0 1 0 2 0 a1 1 0 1 0 -2 0zM302.03 62.07 a1 1 0 1 0 2 0 a1 1 0 1 0 -2 0zM302.03 60.07 a1 1 0 1 0 2 0 a1 1 0 1 0 -2 0zM302.03 58.07 a1 1 0 1 0 2 0 a1 1 0 1 0 -2 0zM302.03 56.07 a1 1 0 1 0 2 0 a1 1 0 1 0 -2 0zM302.03 54.07 a1 1 0 1 0 2 0 a1 1 0 1 0 -2 0zM302.03 52.07 a1 1 0 1 0 2 0 a1 1 0 1 0 -2 0zM302.03 50.07 a1 1 0 1 0 2 0 a1 1 0 1 0 -2 0zM302.03 48.07 a1 1 0 1 0 2 0 a1 1 0 1 0 -2 0zM304.03 68.07 a1 1 0 1 0 2 0 a1 1 0 1 0 -2 0zM304.03 66.07 a1 1 0 1 0 2 0 a1 1 0 1 0 -2 0zM304.03 64.07 a1 1 0 1 0 2 0 a1 1 0 1 0 -2 0zM304.03 62.07 a1 1 0 1 0 2 0 a1 1 0 1 0 -2 0zM304.03 60.07 a1 1 0 1 0 2 0 a1 1 0 1 0 -2 0zM304.03 58.07 a1 1 0 1 0 2 0 a1 1 0 1 0 -2 0zM304.03 56.07 a1 1 0 1 0 2 0 a1 1 0 1 0 -2 0zM304.03 54.07 a1 1 0 1 0 2 0 a1 1 0 1 0 -2 0zM304.03 52.07 a1 1 0 1 0 2 0 a1 1 0 1 0 -2 0zM304.03 50.07 a1 1 0 1 0 2 0 a1 1 0 1 0 -2 0zM304.03 48.07 a1 1 0 1 0 2 0 a1 1 0 1 0 -2 0zM304.03 46.07 a1 1 0 1 0 2 0 a1 1 0 1 0 -2 0zM306.03 66.07 a1 1 0 1 0 2 0 a1 1 0 1 0 -2 0zM306.03 64.07 a1 1 0 1 0 2 0 a1 1 0 1 0 -2 0zM306.03 62.07 a1 1 0 1 0 2 0 a1 1 0 1 0 -2 0zM306.03 60.07 a1 1 0 1 0 2 0 a1 1 0 1 0 -2 0zM306.03 58.07 a1 1 0 1 0 2 0 a1 1 0 1 0 -2 0zM306.03 56.07 a1 1 0 1 0 2 0 a1 1 0 1 0 -2 0zM306.03 54.07 a1 1 0 1 0 2 0 a1 1 0 1 0 -2 0zM306.03 52.07 a1 1 0 1 0 2 0 a1 1 0 1 0 -2 0zM306.03 50.07 a1 1 0 1 0 2 0 a1 1 0 1 0 -2 0zM306.03 48.07 a1 1 0 1 0 2 0 a1 1 0 1 0 -2 0zM306.03 46.07 a1 1 0 1 0 2 0 a1 1 0 1 0 -2 0zM308.03 66.07 a1 1 0 1 0 2 0 a1 1 0 1 0 -2 0zM308.03 64.07 a1 1 0 1 0 2 0 a1 1 0 1 0 -2 0zM308.03 62.07 a1 1 0 1 0 2 0 a1 1 0 1 0 -2 0zM308.03 60.07 a1 1 0 1 0 2 0 a1 1 0 1 0 -2 0zM308.03 58.07 a1 1 0 1 0 2 0 a1 1 0 1 0 -2 0zM308.03 56.07 a1 1 0 1 0 2 0 a1 1 0 1 0 -2 0zM308.03 54.07 a1 1 0 1 0 2 0 a1 1 0 1 0 -2 0zM308.03 52.07 a1 1 0 1 0 2 0 a1 1 0 1 0 -2 0zM308.03 50.07 a1 1 0 1 0 2 0 a1 1 0 1 0 -2 0zM308.03 48.07 a1 1 0 1 0 2 0 a1 1 0 1 0 -2 0zM308.03 46.07 a1 1 0 1 0 2 0 a1 1 0 1 0 -2 0zM308.03 42.07 a1 1 0 1 0 2 0 a1 1 0 1 0 -2 0zM310.03 64.07 a1 1 0 1 0 2 0 a1 1 0 1 0 -2 0zM310.03 62.07 a1 1 0 1 0 2 0 a1 1 0 1 0 -2 0zM310.03 60.07 a1 1 0 1 0 2 0 a1 1 0 1 0 -2 0zM310.03 58.07 a1 1 0 1 0 2 0 a1 1 0 1 0 -2 0zM310.03 56.07 a1 1 0 1 0 2 0 a1 1 0 1 0 -2 0zM310.03 54.07 a1 1 0 1 0 2 0 a1 1 0 1 0 -2 0zM310.03 52.07 a1 1 0 1 0 2 0 a1 1 0 1 0 -2 0zM310.03 50.07 a1 1 0 1 0 2 0 a1 1 0 1 0 -2 0zM310.03 48.07 a1 1 0 1 0 2 0 a1 1 0 1 0 -2 0zM310.03 46.07 a1 1 0 1 0 2 0 a1 1 0 1 0 -2 0zM310.03 44.07 a1 1 0 1 0 2 0 a1 1 0 1 0 -2 0zM312.03 62.07 a1 1 0 1 0 2 0 a1 1 0 1 0 -2 0zM312.03 60.07 a1 1 0 1 0 2 0 a1 1 0 1 0 -2 0zM312.03 56.07 a1 1 0 1 0 2 0 a1 1 0 1 0 -2 0zM312.03 54.07 a1 1 0 1 0 2 0 a1 1 0 1 0 -2 0zM312.03 48.07 a1 1 0 1 0 2 0 a1 1 0 1 0 -2 0zM312.03 46.07 a1 1 0 1 0 2 0 a1 1 0 1 0 -2 0zM312.03 44.07 a1 1 0 1 0 2 0 a1 1 0 1 0 -2 0zM312.03 42.07 a1 1 0 1 0 2 0 a1 1 0 1 0 -2 0zM312.03 40.07 a1 1 0 1 0 2 0 a1 1 0 1 0 -2 0zM314.03 50.07 a1 1 0 1 0 2 0 a1 1 0 1 0 -2 0zM314.03 48.07 a1 1 0 1 0 2 0 a1 1 0 1 0 -2 0zM314.03 46.07 a1 1 0 1 0 2 0 a1 1 0 1 0 -2 0zM314.03 44.07 a1 1 0 1 0 2 0 a1 1 0 1 0 -2 0zM314.03 42.07 a1 1 0 1 0 2 0 a1 1 0 1 0 -2 0zM314.03 40.07 a1 1 0 1 0 2 0 a1 1 0 1 0 -2 0zM314.03 38.07 a1 1 0 1 0 2 0 a1 1 0 1 0 -2 0zM316.03 50.07 a1 1 0 1 0 2 0 a1 1 0 1 0 -2 0zM316.03 48.07 a1 1 0 1 0 2 0 a1 1 0 1 0 -2 0zM316.03 46.07 a1 1 0 1 0 2 0 a1 1 0 1 0 -2 0zM316.03 44.07 a1 1 0 1 0 2 0 a1 1 0 1 0 -2 0zM316.03 42.07 a1 1 0 1 0 2 0 a1 1 0 1 0 -2 0zM316.03 40.07 a1 1 0 1 0 2 0 a1 1 0 1 0 -2 0zM316.03 38.07 a1 1 0 1 0 2 0 a1 1 0 1 0 -2 0zM318.03 48.07 a1 1 0 1 0 2 0 a1 1 0 1 0 -2 0zM318.03 46.07 a1 1 0 1 0 2 0 a1 1 0 1 0 -2 0zM318.03 44.07 a1 1 0 1 0 2 0 a1 1 0 1 0 -2 0zM318.03 42.07 a1 1 0 1 0 2 0 a1 1 0 1 0 -2 0zM318.03 40.07 a1 1 0 1 0 2 0 a1 1 0 1 0 -2 0zM318.03 38.07 a1 1 0 1 0 2 0 a1 1 0 1 0 -2 0zM320.03 48.07 a1 1 0 1 0 2 0 a1 1 0 1 0 -2 0zM320.03 46.07 a1 1 0 1 0 2 0 a1 1 0 1 0 -2 0zM320.03 44.07 a1 1 0 1 0 2 0 a1 1 0 1 0 -2 0zM320.03 42.07 a1 1 0 1 0 2 0 a1 1 0 1 0 -2 0zM322.03 46.07 a1 1 0 1 0 2 0 a1 1 0 1 0 -2 0zM322.03 44.07 a1 1 0 1 0 2 0 a1 1 0 1 0 -2 0zM322.03 42.07 a1 1 0 1 0 2 0 a1 1 0 1 0 -2 0zM324.03 44.07 a1 1 0 1 0 2 0 a1 1 0 1 0 -2 0zM326.03 42.07 a1 1 0 1 0 2 0 a1 1 0 1 0 -2 0z" transform="scale(3.73)" fill="#ffffff"></path>
    </g>
    <defs>
        <mask id="SvgjsMask1054">
            <rect width="1440" height="560" fill="#ffffff"></rect>
        </mask>
    </defs>
</svg>