<svg xmlns="http://www.w3.org/2000/svg" version="1.1" xmlns:xlink="http://www.w3.org/1999/xlink" xmlns:svgjs="http://svgjs.com/svgjs" width="1440" height="560" preserveAspectRatio="none" viewBox="0 0 1440 560">
    <g mask="url(&quot;#SvgjsMask1163&quot;)" fill="none">
        <path d="M208.03 94.07 a1 1 0 1 0 2 0 a1 1 0 1 0 -2 0zM210.03 98.07 a1 1 0 1 0 2 0 a1 1 0 1 0 -2 0zM210.03 96.07 a1 1 0 1 0 2 0 a1 1 0 1 0 -2 0zM210.03 94.07 a1 1 0 1 0 2 0 a1 1 0 1 0 -2 0zM210.03 92.07 a1 1 0 1 0 2 0 a1 1 0 1 0 -2 0zM210.03 90.07 a1 1 0 1 0 2 0 a1 1 0 1 0 -2 0zM212.03 96.07 a1 1 0 1 0 2 0 a1 1 0 1 0 -2 0zM212.03 94.07 a1 1 0 1 0 2 0 a1 1 0 1 0 -2 0zM212.03 92.07 a1 1 0 1 0 2 0 a1 1 0 1 0 -2 0zM212.03 90.07 a1 1 0 1 0 2 0 a1 1 0 1 0 -2 0zM212.03 88.07 a1 1 0 1 0 2 0 a1 1 0 1 0 -2 0zM212.03 86.07 a1 1 0 1 0 2 0 a1 1 0 1 0 -2 0zM214.03 98.07 a1 1 0 1 0 2 0 a1 1 0 1 0 -2 0zM214.03 96.07 a1 1 0 1 0 2 0 a1 1 0 1 0 -2 0zM214.03 94.07 a1 1 0 1 0 2 0 a1 1 0 1 0 -2 0zM214.03 92.07 a1 1 0 1 0 2 0 a1 1 0 1 0 -2 0zM214.03 90.07 a1 1 0 1 0 2 0 a1 1 0 1 0 -2 0zM214.03 88.07 a1 1 0 1 0 2 0 a1 1 0 1 0 -2 0zM214.03 86.07 a1 1 0 1 0 2 0 a1 1 0 1 0 -2 0zM216.03 100.07 a1 1 0 1 0 2 0 a1 1 0 1 0 -2 0zM216.03 98.07 a1 1 0 1 0 2 0 a1 1 0 1 0 -2 0zM216.03 96.07 a1 1 0 1 0 2 0 a1 1 0 1 0 -2 0zM216.03 94.07 a1 1 0 1 0 2 0 a1 1 0 1 0 -2 0zM216.03 92.07 a1 1 0 1 0 2 0 a1 1 0 1 0 -2 0zM216.03 90.07 a1 1 0 1 0 2 0 a1 1 0 1 0 -2 0zM216.03 88.07 a1 1 0 1 0 2 0 a1 1 0 1 0 -2 0zM216.03 86.07 a1 1 0 1 0 2 0 a1 1 0 1 0 -2 0zM218.03 100.07 a1 1 0 1 0 2 0 a1 1 0 1 0 -2 0zM218.03 98.07 a1 1 0 1 0 2 0 a1 1 0 1 0 -2 0zM218.03 96.07 a1 1 0 1 0 2 0 a1 1 0 1 0 -2 0zM218.03 94.07 a1 1 0 1 0 2 0 a1 1 0 1 0 -2 0zM218.03 92.07 a1 1 0 1 0 2 0 a1 1 0 1 0 -2 0zM218.03 90.07 a1 1 0 1 0 2 0 a1 1 0 1 0 -2 0zM218.03 88.07 a1 1 0 1 0 2 0 a1 1 0 1 0 -2 0zM218.03 86.07 a1 1 0 1 0 2 0 a1 1 0 1 0 -2 0zM220.03 102.07 a1 1 0 1 0 2 0 a1 1 0 1 0 -2 0zM220.03 100.07 a1 1 0 1 0 2 0 a1 1 0 1 0 -2 0zM220.03 98.07 a1 1 0 1 0 2 0 a1 1 0 1 0 -2 0zM220.03 96.07 a1 1 0 1 0 2 0 a1 1 0 1 0 -2 0zM220.03 94.07 a1 1 0 1 0 2 0 a1 1 0 1 0 -2 0zM220.03 92.07 a1 1 0 1 0 2 0 a1 1 0 1 0 -2 0zM220.03 90.07 a1 1 0 1 0 2 0 a1 1 0 1 0 -2 0zM220.03 88.07 a1 1 0 1 0 2 0 a1 1 0 1 0 -2 0zM220.03 86.07 a1 1 0 1 0 2 0 a1 1 0 1 0 -2 0zM222.03 98.07 a1 1 0 1 0 2 0 a1 1 0 1 0 -2 0zM222.03 88.07 a1 1 0 1 0 2 0 a1 1 0 1 0 -2 0zM222.03 86.07 a1 1 0 1 0 2 0 a1 1 0 1 0 -2 0z" transform="scale(3.73)" fill="#ffffff"></path>
    </g>
    <defs>
        <mask id="SvgjsMask1163">
            <rect width="1440" height="560" fill="#ffffff"></rect>
        </mask>
    </defs>
</svg>