<svg xmlns="http://www.w3.org/2000/svg" version="1.1" xmlns:xlink="http://www.w3.org/1999/xlink" xmlns:svgjs="http://svgjs.com/svgjs" width="1440" height="560" preserveAspectRatio="none" viewBox="0 0 1440 560">
    <g mask="url(&quot;#SvgjsMask1066&quot;)" fill="none">
        <path d="M218.03 68.07 a1 1 0 1 0 2 0 a1 1 0 1 0 -2 0zM218.03 66.07 a1 1 0 1 0 2 0 a1 1 0 1 0 -2 0zM218.03 64.07 a1 1 0 1 0 2 0 a1 1 0 1 0 -2 0zM218.03 62.07 a1 1 0 1 0 2 0 a1 1 0 1 0 -2 0zM218.03 60.07 a1 1 0 1 0 2 0 a1 1 0 1 0 -2 0zM220.03 68.07 a1 1 0 1 0 2 0 a1 1 0 1 0 -2 0zM220.03 66.07 a1 1 0 1 0 2 0 a1 1 0 1 0 -2 0zM220.03 64.07 a1 1 0 1 0 2 0 a1 1 0 1 0 -2 0zM220.03 62.07 a1 1 0 1 0 2 0 a1 1 0 1 0 -2 0zM220.03 60.07 a1 1 0 1 0 2 0 a1 1 0 1 0 -2 0zM222.03 68.07 a1 1 0 1 0 2 0 a1 1 0 1 0 -2 0zM222.03 66.07 a1 1 0 1 0 2 0 a1 1 0 1 0 -2 0zM222.03 64.07 a1 1 0 1 0 2 0 a1 1 0 1 0 -2 0zM222.03 62.07 a1 1 0 1 0 2 0 a1 1 0 1 0 -2 0zM222.03 60.07 a1 1 0 1 0 2 0 a1 1 0 1 0 -2 0zM224.03 68.07 a1 1 0 1 0 2 0 a1 1 0 1 0 -2 0zM224.03 66.07 a1 1 0 1 0 2 0 a1 1 0 1 0 -2 0zM224.03 64.07 a1 1 0 1 0 2 0 a1 1 0 1 0 -2 0zM224.03 62.07 a1 1 0 1 0 2 0 a1 1 0 1 0 -2 0zM224.03 60.07 a1 1 0 1 0 2 0 a1 1 0 1 0 -2 0zM226.03 68.07 a1 1 0 1 0 2 0 a1 1 0 1 0 -2 0zM226.03 66.07 a1 1 0 1 0 2 0 a1 1 0 1 0 -2 0zM226.03 64.07 a1 1 0 1 0 2 0 a1 1 0 1 0 -2 0zM226.03 62.07 a1 1 0 1 0 2 0 a1 1 0 1 0 -2 0zM226.03 60.07 a1 1 0 1 0 2 0 a1 1 0 1 0 -2 0zM228.03 68.07 a1 1 0 1 0 2 0 a1 1 0 1 0 -2 0z" transform="scale(3.73)" fill="#ffffff"></path>
    </g>
    <defs>
        <mask id="SvgjsMask1066">
            <rect width="1440" height="560" fill="#ffffff"></rect>
        </mask>
    </defs>
</svg>