<svg xmlns="http://www.w3.org/2000/svg" version="1.1" xmlns:xlink="http://www.w3.org/1999/xlink" xmlns:svgjs="http://svgjs.com/svgjs" width="1440" height="560" preserveAspectRatio="none" viewBox="0 0 1440 560">
    <g mask="url(&quot;#SvgjsMask1058&quot;)" fill="none">
        <path d="M26.03 30.07 a1 1 0 1 0 2 0 a1 1 0 1 0 -2 0zM26.03 24.07 a1 1 0 1 0 2 0 a1 1 0 1 0 -2 0zM28.03 30.07 a1 1 0 1 0 2 0 a1 1 0 1 0 -2 0zM28.03 28.07 a1 1 0 1 0 2 0 a1 1 0 1 0 -2 0zM28.03 24.07 a1 1 0 1 0 2 0 a1 1 0 1 0 -2 0zM28.03 22.07 a1 1 0 1 0 2 0 a1 1 0 1 0 -2 0zM30.03 30.07 a1 1 0 1 0 2 0 a1 1 0 1 0 -2 0zM30.03 28.07 a1 1 0 1 0 2 0 a1 1 0 1 0 -2 0zM30.03 24.07 a1 1 0 1 0 2 0 a1 1 0 1 0 -2 0zM30.03 22.07 a1 1 0 1 0 2 0 a1 1 0 1 0 -2 0zM30.03 20.07 a1 1 0 1 0 2 0 a1 1 0 1 0 -2 0zM32.03 34.07 a1 1 0 1 0 2 0 a1 1 0 1 0 -2 0zM32.03 30.07 a1 1 0 1 0 2 0 a1 1 0 1 0 -2 0zM32.03 28.07 a1 1 0 1 0 2 0 a1 1 0 1 0 -2 0zM32.03 26.07 a1 1 0 1 0 2 0 a1 1 0 1 0 -2 0zM32.03 24.07 a1 1 0 1 0 2 0 a1 1 0 1 0 -2 0zM32.03 22.07 a1 1 0 1 0 2 0 a1 1 0 1 0 -2 0zM32.03 20.07 a1 1 0 1 0 2 0 a1 1 0 1 0 -2 0zM34.03 30.07 a1 1 0 1 0 2 0 a1 1 0 1 0 -2 0zM34.03 28.07 a1 1 0 1 0 2 0 a1 1 0 1 0 -2 0zM34.03 26.07 a1 1 0 1 0 2 0 a1 1 0 1 0 -2 0zM34.03 24.07 a1 1 0 1 0 2 0 a1 1 0 1 0 -2 0zM34.03 22.07 a1 1 0 1 0 2 0 a1 1 0 1 0 -2 0zM34.03 20.07 a1 1 0 1 0 2 0 a1 1 0 1 0 -2 0zM36.03 32.07 a1 1 0 1 0 2 0 a1 1 0 1 0 -2 0zM36.03 30.07 a1 1 0 1 0 2 0 a1 1 0 1 0 -2 0zM36.03 28.07 a1 1 0 1 0 2 0 a1 1 0 1 0 -2 0zM36.03 26.07 a1 1 0 1 0 2 0 a1 1 0 1 0 -2 0zM36.03 24.07 a1 1 0 1 0 2 0 a1 1 0 1 0 -2 0zM36.03 22.07 a1 1 0 1 0 2 0 a1 1 0 1 0 -2 0zM36.03 20.07 a1 1 0 1 0 2 0 a1 1 0 1 0 -2 0zM38.03 30.07 a1 1 0 1 0 2 0 a1 1 0 1 0 -2 0zM38.03 28.07 a1 1 0 1 0 2 0 a1 1 0 1 0 -2 0zM38.03 26.07 a1 1 0 1 0 2 0 a1 1 0 1 0 -2 0zM38.03 24.07 a1 1 0 1 0 2 0 a1 1 0 1 0 -2 0zM38.03 22.07 a1 1 0 1 0 2 0 a1 1 0 1 0 -2 0zM38.03 20.07 a1 1 0 1 0 2 0 a1 1 0 1 0 -2 0zM40.03 28.07 a1 1 0 1 0 2 0 a1 1 0 1 0 -2 0zM40.03 26.07 a1 1 0 1 0 2 0 a1 1 0 1 0 -2 0zM40.03 24.07 a1 1 0 1 0 2 0 a1 1 0 1 0 -2 0zM40.03 22.07 a1 1 0 1 0 2 0 a1 1 0 1 0 -2 0zM40.03 20.07 a1 1 0 1 0 2 0 a1 1 0 1 0 -2 0zM42.03 30.07 a1 1 0 1 0 2 0 a1 1 0 1 0 -2 0zM42.03 28.07 a1 1 0 1 0 2 0 a1 1 0 1 0 -2 0zM42.03 26.07 a1 1 0 1 0 2 0 a1 1 0 1 0 -2 0zM42.03 24.07 a1 1 0 1 0 2 0 a1 1 0 1 0 -2 0zM42.03 22.07 a1 1 0 1 0 2 0 a1 1 0 1 0 -2 0zM42.03 20.07 a1 1 0 1 0 2 0 a1 1 0 1 0 -2 0zM44.03 30.07 a1 1 0 1 0 2 0 a1 1 0 1 0 -2 0zM44.03 28.07 a1 1 0 1 0 2 0 a1 1 0 1 0 -2 0zM44.03 26.07 a1 1 0 1 0 2 0 a1 1 0 1 0 -2 0zM44.03 24.07 a1 1 0 1 0 2 0 a1 1 0 1 0 -2 0zM44.03 22.07 a1 1 0 1 0 2 0 a1 1 0 1 0 -2 0zM44.03 20.07 a1 1 0 1 0 2 0 a1 1 0 1 0 -2 0zM46.03 28.07 a1 1 0 1 0 2 0 a1 1 0 1 0 -2 0zM46.03 26.07 a1 1 0 1 0 2 0 a1 1 0 1 0 -2 0zM46.03 24.07 a1 1 0 1 0 2 0 a1 1 0 1 0 -2 0zM46.03 22.07 a1 1 0 1 0 2 0 a1 1 0 1 0 -2 0zM46.03 20.07 a1 1 0 1 0 2 0 a1 1 0 1 0 -2 0zM48.03 28.07 a1 1 0 1 0 2 0 a1 1 0 1 0 -2 0zM48.03 26.07 a1 1 0 1 0 2 0 a1 1 0 1 0 -2 0zM48.03 24.07 a1 1 0 1 0 2 0 a1 1 0 1 0 -2 0zM48.03 22.07 a1 1 0 1 0 2 0 a1 1 0 1 0 -2 0zM48.03 20.07 a1 1 0 1 0 2 0 a1 1 0 1 0 -2 0zM50.03 28.07 a1 1 0 1 0 2 0 a1 1 0 1 0 -2 0zM50.03 26.07 a1 1 0 1 0 2 0 a1 1 0 1 0 -2 0zM50.03 24.07 a1 1 0 1 0 2 0 a1 1 0 1 0 -2 0zM50.03 22.07 a1 1 0 1 0 2 0 a1 1 0 1 0 -2 0zM52.03 30.07 a1 1 0 1 0 2 0 a1 1 0 1 0 -2 0zM56.03 32.07 a1 1 0 1 0 2 0 a1 1 0 1 0 -2 0zM68.03 50.07 a1 1 0 1 0 2 0 a1 1 0 1 0 -2 0zM68.03 48.07 a1 1 0 1 0 2 0 a1 1 0 1 0 -2 0zM68.03 46.07 a1 1 0 1 0 2 0 a1 1 0 1 0 -2 0zM68.03 42.07 a1 1 0 1 0 2 0 a1 1 0 1 0 -2 0zM70.03 52.07 a1 1 0 1 0 2 0 a1 1 0 1 0 -2 0zM70.03 50.07 a1 1 0 1 0 2 0 a1 1 0 1 0 -2 0zM70.03 48.07 a1 1 0 1 0 2 0 a1 1 0 1 0 -2 0zM70.03 46.07 a1 1 0 1 0 2 0 a1 1 0 1 0 -2 0zM70.03 44.07 a1 1 0 1 0 2 0 a1 1 0 1 0 -2 0zM70.03 42.07 a1 1 0 1 0 2 0 a1 1 0 1 0 -2 0zM72.03 54.07 a1 1 0 1 0 2 0 a1 1 0 1 0 -2 0zM72.03 52.07 a1 1 0 1 0 2 0 a1 1 0 1 0 -2 0zM72.03 50.07 a1 1 0 1 0 2 0 a1 1 0 1 0 -2 0zM72.03 48.07 a1 1 0 1 0 2 0 a1 1 0 1 0 -2 0zM72.03 46.07 a1 1 0 1 0 2 0 a1 1 0 1 0 -2 0zM72.03 44.07 a1 1 0 1 0 2 0 a1 1 0 1 0 -2 0zM72.03 42.07 a1 1 0 1 0 2 0 a1 1 0 1 0 -2 0zM74.03 56.07 a1 1 0 1 0 2 0 a1 1 0 1 0 -2 0zM74.03 54.07 a1 1 0 1 0 2 0 a1 1 0 1 0 -2 0zM74.03 52.07 a1 1 0 1 0 2 0 a1 1 0 1 0 -2 0zM74.03 50.07 a1 1 0 1 0 2 0 a1 1 0 1 0 -2 0zM74.03 48.07 a1 1 0 1 0 2 0 a1 1 0 1 0 -2 0zM74.03 46.07 a1 1 0 1 0 2 0 a1 1 0 1 0 -2 0zM74.03 44.07 a1 1 0 1 0 2 0 a1 1 0 1 0 -2 0zM74.03 42.07 a1 1 0 1 0 2 0 a1 1 0 1 0 -2 0zM76.03 56.07 a1 1 0 1 0 2 0 a1 1 0 1 0 -2 0zM76.03 54.07 a1 1 0 1 0 2 0 a1 1 0 1 0 -2 0zM76.03 52.07 a1 1 0 1 0 2 0 a1 1 0 1 0 -2 0zM76.03 50.07 a1 1 0 1 0 2 0 a1 1 0 1 0 -2 0zM76.03 48.07 a1 1 0 1 0 2 0 a1 1 0 1 0 -2 0zM76.03 46.07 a1 1 0 1 0 2 0 a1 1 0 1 0 -2 0zM76.03 44.07 a1 1 0 1 0 2 0 a1 1 0 1 0 -2 0zM76.03 42.07 a1 1 0 1 0 2 0 a1 1 0 1 0 -2 0zM78.03 56.07 a1 1 0 1 0 2 0 a1 1 0 1 0 -2 0zM78.03 54.07 a1 1 0 1 0 2 0 a1 1 0 1 0 -2 0zM78.03 52.07 a1 1 0 1 0 2 0 a1 1 0 1 0 -2 0zM78.03 50.07 a1 1 0 1 0 2 0 a1 1 0 1 0 -2 0zM78.03 48.07 a1 1 0 1 0 2 0 a1 1 0 1 0 -2 0zM78.03 46.07 a1 1 0 1 0 2 0 a1 1 0 1 0 -2 0zM78.03 44.07 a1 1 0 1 0 2 0 a1 1 0 1 0 -2 0zM78.03 42.07 a1 1 0 1 0 2 0 a1 1 0 1 0 -2 0zM80.03 58.07 a1 1 0 1 0 2 0 a1 1 0 1 0 -2 0zM80.03 56.07 a1 1 0 1 0 2 0 a1 1 0 1 0 -2 0zM80.03 54.07 a1 1 0 1 0 2 0 a1 1 0 1 0 -2 0zM80.03 52.07 a1 1 0 1 0 2 0 a1 1 0 1 0 -2 0zM80.03 50.07 a1 1 0 1 0 2 0 a1 1 0 1 0 -2 0zM80.03 48.07 a1 1 0 1 0 2 0 a1 1 0 1 0 -2 0zM80.03 46.07 a1 1 0 1 0 2 0 a1 1 0 1 0 -2 0zM80.03 44.07 a1 1 0 1 0 2 0 a1 1 0 1 0 -2 0zM80.03 42.07 a1 1 0 1 0 2 0 a1 1 0 1 0 -2 0zM82.03 58.07 a1 1 0 1 0 2 0 a1 1 0 1 0 -2 0zM82.03 56.07 a1 1 0 1 0 2 0 a1 1 0 1 0 -2 0zM82.03 54.07 a1 1 0 1 0 2 0 a1 1 0 1 0 -2 0zM82.03 52.07 a1 1 0 1 0 2 0 a1 1 0 1 0 -2 0zM82.03 50.07 a1 1 0 1 0 2 0 a1 1 0 1 0 -2 0zM82.03 48.07 a1 1 0 1 0 2 0 a1 1 0 1 0 -2 0zM82.03 46.07 a1 1 0 1 0 2 0 a1 1 0 1 0 -2 0zM82.03 44.07 a1 1 0 1 0 2 0 a1 1 0 1 0 -2 0zM82.03 42.07 a1 1 0 1 0 2 0 a1 1 0 1 0 -2 0zM84.03 58.07 a1 1 0 1 0 2 0 a1 1 0 1 0 -2 0zM84.03 56.07 a1 1 0 1 0 2 0 a1 1 0 1 0 -2 0zM84.03 54.07 a1 1 0 1 0 2 0 a1 1 0 1 0 -2 0zM84.03 52.07 a1 1 0 1 0 2 0 a1 1 0 1 0 -2 0zM84.03 50.07 a1 1 0 1 0 2 0 a1 1 0 1 0 -2 0zM84.03 48.07 a1 1 0 1 0 2 0 a1 1 0 1 0 -2 0zM84.03 46.07 a1 1 0 1 0 2 0 a1 1 0 1 0 -2 0zM84.03 44.07 a1 1 0 1 0 2 0 a1 1 0 1 0 -2 0zM84.03 42.07 a1 1 0 1 0 2 0 a1 1 0 1 0 -2 0zM86.03 58.07 a1 1 0 1 0 2 0 a1 1 0 1 0 -2 0zM86.03 56.07 a1 1 0 1 0 2 0 a1 1 0 1 0 -2 0zM86.03 54.07 a1 1 0 1 0 2 0 a1 1 0 1 0 -2 0zM86.03 52.07 a1 1 0 1 0 2 0 a1 1 0 1 0 -2 0zM86.03 50.07 a1 1 0 1 0 2 0 a1 1 0 1 0 -2 0zM86.03 48.07 a1 1 0 1 0 2 0 a1 1 0 1 0 -2 0zM86.03 46.07 a1 1 0 1 0 2 0 a1 1 0 1 0 -2 0zM86.03 44.07 a1 1 0 1 0 2 0 a1 1 0 1 0 -2 0zM86.03 42.07 a1 1 0 1 0 2 0 a1 1 0 1 0 -2 0zM88.03 60.07 a1 1 0 1 0 2 0 a1 1 0 1 0 -2 0zM88.03 58.07 a1 1 0 1 0 2 0 a1 1 0 1 0 -2 0zM88.03 56.07 a1 1 0 1 0 2 0 a1 1 0 1 0 -2 0zM88.03 54.07 a1 1 0 1 0 2 0 a1 1 0 1 0 -2 0zM88.03 52.07 a1 1 0 1 0 2 0 a1 1 0 1 0 -2 0zM88.03 50.07 a1 1 0 1 0 2 0 a1 1 0 1 0 -2 0zM88.03 48.07 a1 1 0 1 0 2 0 a1 1 0 1 0 -2 0zM88.03 46.07 a1 1 0 1 0 2 0 a1 1 0 1 0 -2 0zM88.03 44.07 a1 1 0 1 0 2 0 a1 1 0 1 0 -2 0zM88.03 42.07 a1 1 0 1 0 2 0 a1 1 0 1 0 -2 0zM90.03 60.07 a1 1 0 1 0 2 0 a1 1 0 1 0 -2 0zM90.03 58.07 a1 1 0 1 0 2 0 a1 1 0 1 0 -2 0zM90.03 56.07 a1 1 0 1 0 2 0 a1 1 0 1 0 -2 0zM90.03 54.07 a1 1 0 1 0 2 0 a1 1 0 1 0 -2 0zM90.03 52.07 a1 1 0 1 0 2 0 a1 1 0 1 0 -2 0zM90.03 50.07 a1 1 0 1 0 2 0 a1 1 0 1 0 -2 0zM90.03 48.07 a1 1 0 1 0 2 0 a1 1 0 1 0 -2 0zM90.03 46.07 a1 1 0 1 0 2 0 a1 1 0 1 0 -2 0zM90.03 44.07 a1 1 0 1 0 2 0 a1 1 0 1 0 -2 0zM90.03 42.07 a1 1 0 1 0 2 0 a1 1 0 1 0 -2 0zM92.03 60.07 a1 1 0 1 0 2 0 a1 1 0 1 0 -2 0zM92.03 58.07 a1 1 0 1 0 2 0 a1 1 0 1 0 -2 0zM92.03 56.07 a1 1 0 1 0 2 0 a1 1 0 1 0 -2 0zM92.03 54.07 a1 1 0 1 0 2 0 a1 1 0 1 0 -2 0zM92.03 52.07 a1 1 0 1 0 2 0 a1 1 0 1 0 -2 0zM92.03 50.07 a1 1 0 1 0 2 0 a1 1 0 1 0 -2 0zM92.03 48.07 a1 1 0 1 0 2 0 a1 1 0 1 0 -2 0zM92.03 46.07 a1 1 0 1 0 2 0 a1 1 0 1 0 -2 0zM92.03 44.07 a1 1 0 1 0 2 0 a1 1 0 1 0 -2 0zM92.03 42.07 a1 1 0 1 0 2 0 a1 1 0 1 0 -2 0zM94.03 62.07 a1 1 0 1 0 2 0 a1 1 0 1 0 -2 0zM94.03 60.07 a1 1 0 1 0 2 0 a1 1 0 1 0 -2 0zM94.03 58.07 a1 1 0 1 0 2 0 a1 1 0 1 0 -2 0zM94.03 56.07 a1 1 0 1 0 2 0 a1 1 0 1 0 -2 0zM94.03 54.07 a1 1 0 1 0 2 0 a1 1 0 1 0 -2 0zM94.03 52.07 a1 1 0 1 0 2 0 a1 1 0 1 0 -2 0zM94.03 50.07 a1 1 0 1 0 2 0 a1 1 0 1 0 -2 0zM94.03 48.07 a1 1 0 1 0 2 0 a1 1 0 1 0 -2 0zM94.03 46.07 a1 1 0 1 0 2 0 a1 1 0 1 0 -2 0zM94.03 44.07 a1 1 0 1 0 2 0 a1 1 0 1 0 -2 0zM94.03 42.07 a1 1 0 1 0 2 0 a1 1 0 1 0 -2 0zM96.03 60.07 a1 1 0 1 0 2 0 a1 1 0 1 0 -2 0zM96.03 58.07 a1 1 0 1 0 2 0 a1 1 0 1 0 -2 0zM96.03 56.07 a1 1 0 1 0 2 0 a1 1 0 1 0 -2 0zM96.03 54.07 a1 1 0 1 0 2 0 a1 1 0 1 0 -2 0zM96.03 52.07 a1 1 0 1 0 2 0 a1 1 0 1 0 -2 0zM96.03 50.07 a1 1 0 1 0 2 0 a1 1 0 1 0 -2 0zM96.03 48.07 a1 1 0 1 0 2 0 a1 1 0 1 0 -2 0zM96.03 46.07 a1 1 0 1 0 2 0 a1 1 0 1 0 -2 0zM96.03 44.07 a1 1 0 1 0 2 0 a1 1 0 1 0 -2 0zM96.03 42.07 a1 1 0 1 0 2 0 a1 1 0 1 0 -2 0zM98.03 60.07 a1 1 0 1 0 2 0 a1 1 0 1 0 -2 0zM98.03 58.07 a1 1 0 1 0 2 0 a1 1 0 1 0 -2 0zM98.03 56.07 a1 1 0 1 0 2 0 a1 1 0 1 0 -2 0zM98.03 54.07 a1 1 0 1 0 2 0 a1 1 0 1 0 -2 0zM98.03 52.07 a1 1 0 1 0 2 0 a1 1 0 1 0 -2 0zM98.03 50.07 a1 1 0 1 0 2 0 a1 1 0 1 0 -2 0zM98.03 48.07 a1 1 0 1 0 2 0 a1 1 0 1 0 -2 0zM98.03 46.07 a1 1 0 1 0 2 0 a1 1 0 1 0 -2 0zM98.03 44.07 a1 1 0 1 0 2 0 a1 1 0 1 0 -2 0zM98.03 42.07 a1 1 0 1 0 2 0 a1 1 0 1 0 -2 0zM100.03 60.07 a1 1 0 1 0 2 0 a1 1 0 1 0 -2 0zM100.03 58.07 a1 1 0 1 0 2 0 a1 1 0 1 0 -2 0zM100.03 56.07 a1 1 0 1 0 2 0 a1 1 0 1 0 -2 0zM100.03 54.07 a1 1 0 1 0 2 0 a1 1 0 1 0 -2 0zM100.03 52.07 a1 1 0 1 0 2 0 a1 1 0 1 0 -2 0zM100.03 50.07 a1 1 0 1 0 2 0 a1 1 0 1 0 -2 0zM100.03 48.07 a1 1 0 1 0 2 0 a1 1 0 1 0 -2 0zM100.03 46.07 a1 1 0 1 0 2 0 a1 1 0 1 0 -2 0zM100.03 44.07 a1 1 0 1 0 2 0 a1 1 0 1 0 -2 0zM100.03 42.07 a1 1 0 1 0 2 0 a1 1 0 1 0 -2 0zM102.03 60.07 a1 1 0 1 0 2 0 a1 1 0 1 0 -2 0zM102.03 58.07 a1 1 0 1 0 2 0 a1 1 0 1 0 -2 0zM102.03 56.07 a1 1 0 1 0 2 0 a1 1 0 1 0 -2 0zM102.03 54.07 a1 1 0 1 0 2 0 a1 1 0 1 0 -2 0zM102.03 52.07 a1 1 0 1 0 2 0 a1 1 0 1 0 -2 0zM102.03 50.07 a1 1 0 1 0 2 0 a1 1 0 1 0 -2 0zM102.03 48.07 a1 1 0 1 0 2 0 a1 1 0 1 0 -2 0zM102.03 46.07 a1 1 0 1 0 2 0 a1 1 0 1 0 -2 0zM102.03 44.07 a1 1 0 1 0 2 0 a1 1 0 1 0 -2 0zM102.03 42.07 a1 1 0 1 0 2 0 a1 1 0 1 0 -2 0zM104.03 58.07 a1 1 0 1 0 2 0 a1 1 0 1 0 -2 0zM104.03 56.07 a1 1 0 1 0 2 0 a1 1 0 1 0 -2 0zM104.03 54.07 a1 1 0 1 0 2 0 a1 1 0 1 0 -2 0zM104.03 52.07 a1 1 0 1 0 2 0 a1 1 0 1 0 -2 0zM104.03 50.07 a1 1 0 1 0 2 0 a1 1 0 1 0 -2 0zM104.03 48.07 a1 1 0 1 0 2 0 a1 1 0 1 0 -2 0zM104.03 46.07 a1 1 0 1 0 2 0 a1 1 0 1 0 -2 0zM104.03 44.07 a1 1 0 1 0 2 0 a1 1 0 1 0 -2 0zM104.03 42.07 a1 1 0 1 0 2 0 a1 1 0 1 0 -2 0zM106.03 58.07 a1 1 0 1 0 2 0 a1 1 0 1 0 -2 0zM106.03 56.07 a1 1 0 1 0 2 0 a1 1 0 1 0 -2 0zM106.03 54.07 a1 1 0 1 0 2 0 a1 1 0 1 0 -2 0zM106.03 52.07 a1 1 0 1 0 2 0 a1 1 0 1 0 -2 0zM106.03 50.07 a1 1 0 1 0 2 0 a1 1 0 1 0 -2 0zM106.03 48.07 a1 1 0 1 0 2 0 a1 1 0 1 0 -2 0zM106.03 46.07 a1 1 0 1 0 2 0 a1 1 0 1 0 -2 0zM106.03 44.07 a1 1 0 1 0 2 0 a1 1 0 1 0 -2 0zM108.03 58.07 a1 1 0 1 0 2 0 a1 1 0 1 0 -2 0zM108.03 56.07 a1 1 0 1 0 2 0 a1 1 0 1 0 -2 0zM108.03 54.07 a1 1 0 1 0 2 0 a1 1 0 1 0 -2 0zM108.03 52.07 a1 1 0 1 0 2 0 a1 1 0 1 0 -2 0zM108.03 50.07 a1 1 0 1 0 2 0 a1 1 0 1 0 -2 0zM108.03 48.07 a1 1 0 1 0 2 0 a1 1 0 1 0 -2 0zM108.03 46.07 a1 1 0 1 0 2 0 a1 1 0 1 0 -2 0zM108.03 44.07 a1 1 0 1 0 2 0 a1 1 0 1 0 -2 0zM110.03 62.07 a1 1 0 1 0 2 0 a1 1 0 1 0 -2 0zM110.03 60.07 a1 1 0 1 0 2 0 a1 1 0 1 0 -2 0zM110.03 58.07 a1 1 0 1 0 2 0 a1 1 0 1 0 -2 0zM110.03 56.07 a1 1 0 1 0 2 0 a1 1 0 1 0 -2 0zM110.03 54.07 a1 1 0 1 0 2 0 a1 1 0 1 0 -2 0zM110.03 52.07 a1 1 0 1 0 2 0 a1 1 0 1 0 -2 0zM110.03 50.07 a1 1 0 1 0 2 0 a1 1 0 1 0 -2 0zM112.03 56.07 a1 1 0 1 0 2 0 a1 1 0 1 0 -2 0zM112.03 54.07 a1 1 0 1 0 2 0 a1 1 0 1 0 -2 0zM112.03 52.07 a1 1 0 1 0 2 0 a1 1 0 1 0 -2 0zM112.03 50.07 a1 1 0 1 0 2 0 a1 1 0 1 0 -2 0zM112.03 48.07 a1 1 0 1 0 2 0 a1 1 0 1 0 -2 0zM114.03 56.07 a1 1 0 1 0 2 0 a1 1 0 1 0 -2 0zM114.03 54.07 a1 1 0 1 0 2 0 a1 1 0 1 0 -2 0zM114.03 52.07 a1 1 0 1 0 2 0 a1 1 0 1 0 -2 0zM114.03 50.07 a1 1 0 1 0 2 0 a1 1 0 1 0 -2 0zM114.03 48.07 a1 1 0 1 0 2 0 a1 1 0 1 0 -2 0zM116.03 52.07 a1 1 0 1 0 2 0 a1 1 0 1 0 -2 0zM116.03 50.07 a1 1 0 1 0 2 0 a1 1 0 1 0 -2 0zM116.03 48.07 a1 1 0 1 0 2 0 a1 1 0 1 0 -2 0zM116.03 46.07 a1 1 0 1 0 2 0 a1 1 0 1 0 -2 0zM118.03 48.07 a1 1 0 1 0 2 0 a1 1 0 1 0 -2 0zM118.03 46.07 a1 1 0 1 0 2 0 a1 1 0 1 0 -2 0zM120.03 48.07 a1 1 0 1 0 2 0 a1 1 0 1 0 -2 0zM120.03 46.07 a1 1 0 1 0 2 0 a1 1 0 1 0 -2 0zM122.03 46.07 a1 1 0 1 0 2 0 a1 1 0 1 0 -2 0zM122.03 44.07 a1 1 0 1 0 2 0 a1 1 0 1 0 -2 0zM124.03 44.07 a1 1 0 1 0 2 0 a1 1 0 1 0 -2 0z" transform="scale(3.73)" fill="#ffffff"></path>
    </g>
    <defs>
        <mask id="SvgjsMask1058">
            <rect width="1440" height="560" fill="#ffffff"></rect>
        </mask>
    </defs>
</svg>