<svg xmlns="http://www.w3.org/2000/svg" version="1.1" xmlns:xlink="http://www.w3.org/1999/xlink" xmlns:svgjs="http://svgjs.com/svgjs" width="1440" height="560" preserveAspectRatio="none" viewBox="0 0 1440 560">
    <g mask="url(&quot;#SvgjsMask1034&quot;)" fill="none">
        <path d="M226.03 82.07 a1 1 0 1 0 2 0 a1 1 0 1 0 -2 0zM228.03 84.07 a1 1 0 1 0 2 0 a1 1 0 1 0 -2 0zM228.03 82.07 a1 1 0 1 0 2 0 a1 1 0 1 0 -2 0zM228.03 80.07 a1 1 0 1 0 2 0 a1 1 0 1 0 -2 0zM228.03 78.07 a1 1 0 1 0 2 0 a1 1 0 1 0 -2 0zM230.03 86.07 a1 1 0 1 0 2 0 a1 1 0 1 0 -2 0zM230.03 84.07 a1 1 0 1 0 2 0 a1 1 0 1 0 -2 0zM230.03 82.07 a1 1 0 1 0 2 0 a1 1 0 1 0 -2 0zM230.03 80.07 a1 1 0 1 0 2 0 a1 1 0 1 0 -2 0zM230.03 78.07 a1 1 0 1 0 2 0 a1 1 0 1 0 -2 0zM230.03 76.07 a1 1 0 1 0 2 0 a1 1 0 1 0 -2 0zM232.03 86.07 a1 1 0 1 0 2 0 a1 1 0 1 0 -2 0zM232.03 84.07 a1 1 0 1 0 2 0 a1 1 0 1 0 -2 0zM232.03 82.07 a1 1 0 1 0 2 0 a1 1 0 1 0 -2 0zM232.03 80.07 a1 1 0 1 0 2 0 a1 1 0 1 0 -2 0zM232.03 78.07 a1 1 0 1 0 2 0 a1 1 0 1 0 -2 0zM232.03 76.07 a1 1 0 1 0 2 0 a1 1 0 1 0 -2 0zM234.03 84.07 a1 1 0 1 0 2 0 a1 1 0 1 0 -2 0zM234.03 82.07 a1 1 0 1 0 2 0 a1 1 0 1 0 -2 0zM234.03 80.07 a1 1 0 1 0 2 0 a1 1 0 1 0 -2 0zM234.03 78.07 a1 1 0 1 0 2 0 a1 1 0 1 0 -2 0zM236.03 84.07 a1 1 0 1 0 2 0 a1 1 0 1 0 -2 0zM236.03 82.07 a1 1 0 1 0 2 0 a1 1 0 1 0 -2 0zM238.03 82.07 a1 1 0 1 0 2 0 a1 1 0 1 0 -2 0z" transform="scale(3.73)" fill="#ffffff"></path>
    </g>
    <defs>
        <mask id="SvgjsMask1034">
            <rect width="1440" height="560" fill="#ffffff"></rect>
        </mask>
    </defs>
</svg>