<svg xmlns="http://www.w3.org/2000/svg" version="1.1" xmlns:xlink="http://www.w3.org/1999/xlink" xmlns:svgjs="http://svgjs.com/svgjs" width="1440" height="560" preserveAspectRatio="none" viewBox="0 0 1440 560">
    <g mask="url(&quot;#SvgjsMask1113&quot;)" fill="none">
        <path d="M214.03 28.07 a1 1 0 1 0 2 0 a1 1 0 1 0 -2 0zM216.03 28.07 a1 1 0 1 0 2 0 a1 1 0 1 0 -2 0zM216.03 26.07 a1 1 0 1 0 2 0 a1 1 0 1 0 -2 0zM216.03 22.07 a1 1 0 1 0 2 0 a1 1 0 1 0 -2 0zM218.03 28.07 a1 1 0 1 0 2 0 a1 1 0 1 0 -2 0zM218.03 26.07 a1 1 0 1 0 2 0 a1 1 0 1 0 -2 0zM218.03 24.07 a1 1 0 1 0 2 0 a1 1 0 1 0 -2 0zM218.03 22.07 a1 1 0 1 0 2 0 a1 1 0 1 0 -2 0zM220.03 28.07 a1 1 0 1 0 2 0 a1 1 0 1 0 -2 0zM220.03 26.07 a1 1 0 1 0 2 0 a1 1 0 1 0 -2 0zM220.03 24.07 a1 1 0 1 0 2 0 a1 1 0 1 0 -2 0zM220.03 22.07 a1 1 0 1 0 2 0 a1 1 0 1 0 -2 0zM222.03 28.07 a1 1 0 1 0 2 0 a1 1 0 1 0 -2 0zM222.03 26.07 a1 1 0 1 0 2 0 a1 1 0 1 0 -2 0z" transform="scale(3.73)" fill="#ffffff"></path>
    </g>
    <defs>
        <mask id="SvgjsMask1113">
            <rect width="1440" height="560" fill="#ffffff"></rect>
        </mask>
    </defs>
</svg>