<svg xmlns="http://www.w3.org/2000/svg" version="1.1" xmlns:xlink="http://www.w3.org/1999/xlink" xmlns:svgjs="http://svgjs.com/svgjs" width="1440" height="560" preserveAspectRatio="none" viewBox="0 0 1440 560">
    <g mask="url(&quot;#SvgjsMask1177&quot;)" fill="none">
        <path d="M138.03 86.07 a1 1 0 1 0 2 0 a1 1 0 1 0 -2 0zM140.03 86.07 a1 1 0 1 0 2 0 a1 1 0 1 0 -2 0zM188.03 42.07 a1 1 0 1 0 2 0 a1 1 0 1 0 -2 0zM190.03 42.07 a1 1 0 1 0 2 0 a1 1 0 1 0 -2 0zM192.03 46.07 a1 1 0 1 0 2 0 a1 1 0 1 0 -2 0zM192.03 44.07 a1 1 0 1 0 2 0 a1 1 0 1 0 -2 0zM192.03 42.07 a1 1 0 1 0 2 0 a1 1 0 1 0 -2 0zM194.03 46.07 a1 1 0 1 0 2 0 a1 1 0 1 0 -2 0zM194.03 44.07 a1 1 0 1 0 2 0 a1 1 0 1 0 -2 0zM194.03 42.07 a1 1 0 1 0 2 0 a1 1 0 1 0 -2 0zM194.03 40.07 a1 1 0 1 0 2 0 a1 1 0 1 0 -2 0zM196.03 46.07 a1 1 0 1 0 2 0 a1 1 0 1 0 -2 0zM196.03 44.07 a1 1 0 1 0 2 0 a1 1 0 1 0 -2 0zM196.03 42.07 a1 1 0 1 0 2 0 a1 1 0 1 0 -2 0zM196.03 40.07 a1 1 0 1 0 2 0 a1 1 0 1 0 -2 0zM198.03 46.07 a1 1 0 1 0 2 0 a1 1 0 1 0 -2 0zM198.03 44.07 a1 1 0 1 0 2 0 a1 1 0 1 0 -2 0zM198.03 42.07 a1 1 0 1 0 2 0 a1 1 0 1 0 -2 0z" transform="scale(3.73)" fill="#ffffff"></path>
    </g>
    <defs>
        <mask id="SvgjsMask1177">
            <rect width="1440" height="560" fill="#ffffff"></rect>
        </mask>
    </defs>
</svg>