<svg xmlns="http://www.w3.org/2000/svg" version="1.1" xmlns:xlink="http://www.w3.org/1999/xlink" xmlns:svgjs="http://svgjs.com/svgjs" width="1440" height="560" preserveAspectRatio="none" viewBox="0 0 1440 560">
    <g mask="url(&quot;#SvgjsMask1084&quot;)" fill="none">
        <path d="M120.03 12.07 a1 1 0 1 0 2 0 a1 1 0 1 0 -2 0zM122.03 12.07 a1 1 0 1 0 2 0 a1 1 0 1 0 -2 0zM124.03 12.07 a1 1 0 1 0 2 0 a1 1 0 1 0 -2 0zM126.03 12.07 a1 1 0 1 0 2 0 a1 1 0 1 0 -2 0zM128.03 12.07 a1 1 0 1 0 2 0 a1 1 0 1 0 -2 0zM128.03 10.07 a1 1 0 1 0 2 0 a1 1 0 1 0 -2 0zM130.03 12.07 a1 1 0 1 0 2 0 a1 1 0 1 0 -2 0zM130.03 10.07 a1 1 0 1 0 2 0 a1 1 0 1 0 -2 0zM132.03 14.07 a1 1 0 1 0 2 0 a1 1 0 1 0 -2 0zM132.03 12.07 a1 1 0 1 0 2 0 a1 1 0 1 0 -2 0zM132.03 10.07 a1 1 0 1 0 2 0 a1 1 0 1 0 -2 0zM134.03 14.07 a1 1 0 1 0 2 0 a1 1 0 1 0 -2 0zM134.03 12.07 a1 1 0 1 0 2 0 a1 1 0 1 0 -2 0zM134.03 10.07 a1 1 0 1 0 2 0 a1 1 0 1 0 -2 0zM134.03 8.07 a1 1 0 1 0 2 0 a1 1 0 1 0 -2 0zM136.03 16.07 a1 1 0 1 0 2 0 a1 1 0 1 0 -2 0zM136.03 14.07 a1 1 0 1 0 2 0 a1 1 0 1 0 -2 0zM136.03 12.07 a1 1 0 1 0 2 0 a1 1 0 1 0 -2 0zM136.03 10.07 a1 1 0 1 0 2 0 a1 1 0 1 0 -2 0zM136.03 8.07 a1 1 0 1 0 2 0 a1 1 0 1 0 -2 0zM138.03 20.07 a1 1 0 1 0 2 0 a1 1 0 1 0 -2 0zM138.03 18.07 a1 1 0 1 0 2 0 a1 1 0 1 0 -2 0zM138.03 16.07 a1 1 0 1 0 2 0 a1 1 0 1 0 -2 0zM138.03 14.07 a1 1 0 1 0 2 0 a1 1 0 1 0 -2 0zM138.03 12.07 a1 1 0 1 0 2 0 a1 1 0 1 0 -2 0zM138.03 10.07 a1 1 0 1 0 2 0 a1 1 0 1 0 -2 0zM138.03 8.07 a1 1 0 1 0 2 0 a1 1 0 1 0 -2 0zM140.03 22.07 a1 1 0 1 0 2 0 a1 1 0 1 0 -2 0zM140.03 18.07 a1 1 0 1 0 2 0 a1 1 0 1 0 -2 0zM140.03 16.07 a1 1 0 1 0 2 0 a1 1 0 1 0 -2 0zM140.03 14.07 a1 1 0 1 0 2 0 a1 1 0 1 0 -2 0zM140.03 12.07 a1 1 0 1 0 2 0 a1 1 0 1 0 -2 0zM140.03 10.07 a1 1 0 1 0 2 0 a1 1 0 1 0 -2 0zM140.03 8.07 a1 1 0 1 0 2 0 a1 1 0 1 0 -2 0zM142.03 26.07 a1 1 0 1 0 2 0 a1 1 0 1 0 -2 0zM142.03 24.07 a1 1 0 1 0 2 0 a1 1 0 1 0 -2 0zM142.03 22.07 a1 1 0 1 0 2 0 a1 1 0 1 0 -2 0zM142.03 20.07 a1 1 0 1 0 2 0 a1 1 0 1 0 -2 0zM142.03 18.07 a1 1 0 1 0 2 0 a1 1 0 1 0 -2 0zM142.03 16.07 a1 1 0 1 0 2 0 a1 1 0 1 0 -2 0zM142.03 14.07 a1 1 0 1 0 2 0 a1 1 0 1 0 -2 0zM142.03 12.07 a1 1 0 1 0 2 0 a1 1 0 1 0 -2 0zM142.03 10.07 a1 1 0 1 0 2 0 a1 1 0 1 0 -2 0zM144.03 28.07 a1 1 0 1 0 2 0 a1 1 0 1 0 -2 0zM144.03 26.07 a1 1 0 1 0 2 0 a1 1 0 1 0 -2 0zM144.03 24.07 a1 1 0 1 0 2 0 a1 1 0 1 0 -2 0zM144.03 22.07 a1 1 0 1 0 2 0 a1 1 0 1 0 -2 0zM144.03 20.07 a1 1 0 1 0 2 0 a1 1 0 1 0 -2 0zM144.03 18.07 a1 1 0 1 0 2 0 a1 1 0 1 0 -2 0zM144.03 16.07 a1 1 0 1 0 2 0 a1 1 0 1 0 -2 0zM144.03 14.07 a1 1 0 1 0 2 0 a1 1 0 1 0 -2 0zM144.03 12.07 a1 1 0 1 0 2 0 a1 1 0 1 0 -2 0zM144.03 10.07 a1 1 0 1 0 2 0 a1 1 0 1 0 -2 0zM144.03 8.07 a1 1 0 1 0 2 0 a1 1 0 1 0 -2 0zM146.03 28.07 a1 1 0 1 0 2 0 a1 1 0 1 0 -2 0zM146.03 26.07 a1 1 0 1 0 2 0 a1 1 0 1 0 -2 0zM146.03 24.07 a1 1 0 1 0 2 0 a1 1 0 1 0 -2 0zM146.03 22.07 a1 1 0 1 0 2 0 a1 1 0 1 0 -2 0zM146.03 20.07 a1 1 0 1 0 2 0 a1 1 0 1 0 -2 0zM146.03 18.07 a1 1 0 1 0 2 0 a1 1 0 1 0 -2 0zM146.03 16.07 a1 1 0 1 0 2 0 a1 1 0 1 0 -2 0zM146.03 14.07 a1 1 0 1 0 2 0 a1 1 0 1 0 -2 0zM146.03 12.07 a1 1 0 1 0 2 0 a1 1 0 1 0 -2 0zM146.03 10.07 a1 1 0 1 0 2 0 a1 1 0 1 0 -2 0zM146.03 8.07 a1 1 0 1 0 2 0 a1 1 0 1 0 -2 0zM148.03 28.07 a1 1 0 1 0 2 0 a1 1 0 1 0 -2 0zM148.03 26.07 a1 1 0 1 0 2 0 a1 1 0 1 0 -2 0zM148.03 24.07 a1 1 0 1 0 2 0 a1 1 0 1 0 -2 0zM148.03 22.07 a1 1 0 1 0 2 0 a1 1 0 1 0 -2 0zM148.03 20.07 a1 1 0 1 0 2 0 a1 1 0 1 0 -2 0zM148.03 18.07 a1 1 0 1 0 2 0 a1 1 0 1 0 -2 0zM148.03 16.07 a1 1 0 1 0 2 0 a1 1 0 1 0 -2 0zM148.03 14.07 a1 1 0 1 0 2 0 a1 1 0 1 0 -2 0zM148.03 12.07 a1 1 0 1 0 2 0 a1 1 0 1 0 -2 0zM148.03 10.07 a1 1 0 1 0 2 0 a1 1 0 1 0 -2 0zM148.03 8.07 a1 1 0 1 0 2 0 a1 1 0 1 0 -2 0zM150.03 26.07 a1 1 0 1 0 2 0 a1 1 0 1 0 -2 0zM150.03 24.07 a1 1 0 1 0 2 0 a1 1 0 1 0 -2 0zM150.03 22.07 a1 1 0 1 0 2 0 a1 1 0 1 0 -2 0zM150.03 20.07 a1 1 0 1 0 2 0 a1 1 0 1 0 -2 0zM150.03 18.07 a1 1 0 1 0 2 0 a1 1 0 1 0 -2 0zM150.03 16.07 a1 1 0 1 0 2 0 a1 1 0 1 0 -2 0zM150.03 14.07 a1 1 0 1 0 2 0 a1 1 0 1 0 -2 0zM150.03 12.07 a1 1 0 1 0 2 0 a1 1 0 1 0 -2 0zM150.03 10.07 a1 1 0 1 0 2 0 a1 1 0 1 0 -2 0zM150.03 8.07 a1 1 0 1 0 2 0 a1 1 0 1 0 -2 0zM152.03 24.07 a1 1 0 1 0 2 0 a1 1 0 1 0 -2 0zM152.03 22.07 a1 1 0 1 0 2 0 a1 1 0 1 0 -2 0zM152.03 20.07 a1 1 0 1 0 2 0 a1 1 0 1 0 -2 0zM152.03 18.07 a1 1 0 1 0 2 0 a1 1 0 1 0 -2 0zM152.03 16.07 a1 1 0 1 0 2 0 a1 1 0 1 0 -2 0zM152.03 14.07 a1 1 0 1 0 2 0 a1 1 0 1 0 -2 0zM152.03 12.07 a1 1 0 1 0 2 0 a1 1 0 1 0 -2 0zM152.03 10.07 a1 1 0 1 0 2 0 a1 1 0 1 0 -2 0zM152.03 8.07 a1 1 0 1 0 2 0 a1 1 0 1 0 -2 0zM154.03 24.07 a1 1 0 1 0 2 0 a1 1 0 1 0 -2 0zM154.03 22.07 a1 1 0 1 0 2 0 a1 1 0 1 0 -2 0zM154.03 20.07 a1 1 0 1 0 2 0 a1 1 0 1 0 -2 0zM154.03 18.07 a1 1 0 1 0 2 0 a1 1 0 1 0 -2 0zM154.03 16.07 a1 1 0 1 0 2 0 a1 1 0 1 0 -2 0zM154.03 14.07 a1 1 0 1 0 2 0 a1 1 0 1 0 -2 0zM154.03 12.07 a1 1 0 1 0 2 0 a1 1 0 1 0 -2 0zM154.03 10.07 a1 1 0 1 0 2 0 a1 1 0 1 0 -2 0zM154.03 8.07 a1 1 0 1 0 2 0 a1 1 0 1 0 -2 0zM156.03 24.07 a1 1 0 1 0 2 0 a1 1 0 1 0 -2 0zM156.03 22.07 a1 1 0 1 0 2 0 a1 1 0 1 0 -2 0zM156.03 20.07 a1 1 0 1 0 2 0 a1 1 0 1 0 -2 0zM156.03 18.07 a1 1 0 1 0 2 0 a1 1 0 1 0 -2 0zM156.03 16.07 a1 1 0 1 0 2 0 a1 1 0 1 0 -2 0zM156.03 14.07 a1 1 0 1 0 2 0 a1 1 0 1 0 -2 0zM156.03 12.07 a1 1 0 1 0 2 0 a1 1 0 1 0 -2 0zM156.03 10.07 a1 1 0 1 0 2 0 a1 1 0 1 0 -2 0zM156.03 8.07 a1 1 0 1 0 2 0 a1 1 0 1 0 -2 0zM158.03 22.07 a1 1 0 1 0 2 0 a1 1 0 1 0 -2 0zM158.03 20.07 a1 1 0 1 0 2 0 a1 1 0 1 0 -2 0zM158.03 18.07 a1 1 0 1 0 2 0 a1 1 0 1 0 -2 0zM158.03 16.07 a1 1 0 1 0 2 0 a1 1 0 1 0 -2 0zM158.03 14.07 a1 1 0 1 0 2 0 a1 1 0 1 0 -2 0zM158.03 12.07 a1 1 0 1 0 2 0 a1 1 0 1 0 -2 0zM158.03 10.07 a1 1 0 1 0 2 0 a1 1 0 1 0 -2 0zM158.03 8.07 a1 1 0 1 0 2 0 a1 1 0 1 0 -2 0zM160.03 20.07 a1 1 0 1 0 2 0 a1 1 0 1 0 -2 0zM160.03 18.07 a1 1 0 1 0 2 0 a1 1 0 1 0 -2 0zM160.03 16.07 a1 1 0 1 0 2 0 a1 1 0 1 0 -2 0zM160.03 14.07 a1 1 0 1 0 2 0 a1 1 0 1 0 -2 0zM160.03 12.07 a1 1 0 1 0 2 0 a1 1 0 1 0 -2 0zM160.03 10.07 a1 1 0 1 0 2 0 a1 1 0 1 0 -2 0zM160.03 8.07 a1 1 0 1 0 2 0 a1 1 0 1 0 -2 0zM162.03 20.07 a1 1 0 1 0 2 0 a1 1 0 1 0 -2 0zM162.03 18.07 a1 1 0 1 0 2 0 a1 1 0 1 0 -2 0zM162.03 16.07 a1 1 0 1 0 2 0 a1 1 0 1 0 -2 0zM162.03 14.07 a1 1 0 1 0 2 0 a1 1 0 1 0 -2 0zM162.03 12.07 a1 1 0 1 0 2 0 a1 1 0 1 0 -2 0zM162.03 10.07 a1 1 0 1 0 2 0 a1 1 0 1 0 -2 0zM164.03 20.07 a1 1 0 1 0 2 0 a1 1 0 1 0 -2 0zM164.03 18.07 a1 1 0 1 0 2 0 a1 1 0 1 0 -2 0zM164.03 16.07 a1 1 0 1 0 2 0 a1 1 0 1 0 -2 0zM164.03 14.07 a1 1 0 1 0 2 0 a1 1 0 1 0 -2 0zM164.03 12.07 a1 1 0 1 0 2 0 a1 1 0 1 0 -2 0zM164.03 10.07 a1 1 0 1 0 2 0 a1 1 0 1 0 -2 0zM164.03 8.07 a1 1 0 1 0 2 0 a1 1 0 1 0 -2 0zM166.03 20.07 a1 1 0 1 0 2 0 a1 1 0 1 0 -2 0zM166.03 18.07 a1 1 0 1 0 2 0 a1 1 0 1 0 -2 0zM166.03 16.07 a1 1 0 1 0 2 0 a1 1 0 1 0 -2 0zM166.03 14.07 a1 1 0 1 0 2 0 a1 1 0 1 0 -2 0zM166.03 12.07 a1 1 0 1 0 2 0 a1 1 0 1 0 -2 0zM166.03 10.07 a1 1 0 1 0 2 0 a1 1 0 1 0 -2 0zM166.03 8.07 a1 1 0 1 0 2 0 a1 1 0 1 0 -2 0zM168.03 20.07 a1 1 0 1 0 2 0 a1 1 0 1 0 -2 0zM168.03 18.07 a1 1 0 1 0 2 0 a1 1 0 1 0 -2 0zM168.03 16.07 a1 1 0 1 0 2 0 a1 1 0 1 0 -2 0zM168.03 14.07 a1 1 0 1 0 2 0 a1 1 0 1 0 -2 0zM168.03 12.07 a1 1 0 1 0 2 0 a1 1 0 1 0 -2 0zM168.03 10.07 a1 1 0 1 0 2 0 a1 1 0 1 0 -2 0zM170.03 16.07 a1 1 0 1 0 2 0 a1 1 0 1 0 -2 0zM170.03 14.07 a1 1 0 1 0 2 0 a1 1 0 1 0 -2 0zM170.03 12.07 a1 1 0 1 0 2 0 a1 1 0 1 0 -2 0zM170.03 10.07 a1 1 0 1 0 2 0 a1 1 0 1 0 -2 0zM170.03 8.07 a1 1 0 1 0 2 0 a1 1 0 1 0 -2 0zM174.03 10.07 a1 1 0 1 0 2 0 a1 1 0 1 0 -2 0z" transform="scale(3.73)" fill="#ffffff"></path>
    </g>
    <defs>
        <mask id="SvgjsMask1084">
            <rect width="1440" height="560" fill="#ffffff"></rect>
        </mask>
    </defs>
</svg>