<svg xmlns="http://www.w3.org/2000/svg" version="1.1" xmlns:xlink="http://www.w3.org/1999/xlink" xmlns:svgjs="http://svgjs.com/svgjs" width="1440" height="560" preserveAspectRatio="none" viewBox="0 0 1440 560">
    <g mask="url(&quot;#SvgjsMask1183&quot;)" fill="none">
        <path d="M262.03 68.07 a1 1 0 1 0 2 0 a1 1 0 1 0 -2 0zM262.03 66.07 a1 1 0 1 0 2 0 a1 1 0 1 0 -2 0zM264.03 68.07 a1 1 0 1 0 2 0 a1 1 0 1 0 -2 0zM264.03 66.07 a1 1 0 1 0 2 0 a1 1 0 1 0 -2 0zM264.03 64.07 a1 1 0 1 0 2 0 a1 1 0 1 0 -2 0zM264.03 62.07 a1 1 0 1 0 2 0 a1 1 0 1 0 -2 0zM266.03 74.07 a1 1 0 1 0 2 0 a1 1 0 1 0 -2 0zM266.03 72.07 a1 1 0 1 0 2 0 a1 1 0 1 0 -2 0zM266.03 70.07 a1 1 0 1 0 2 0 a1 1 0 1 0 -2 0zM266.03 68.07 a1 1 0 1 0 2 0 a1 1 0 1 0 -2 0zM266.03 66.07 a1 1 0 1 0 2 0 a1 1 0 1 0 -2 0zM266.03 64.07 a1 1 0 1 0 2 0 a1 1 0 1 0 -2 0zM266.03 62.07 a1 1 0 1 0 2 0 a1 1 0 1 0 -2 0zM266.03 60.07 a1 1 0 1 0 2 0 a1 1 0 1 0 -2 0zM268.03 78.07 a1 1 0 1 0 2 0 a1 1 0 1 0 -2 0zM268.03 76.07 a1 1 0 1 0 2 0 a1 1 0 1 0 -2 0zM268.03 74.07 a1 1 0 1 0 2 0 a1 1 0 1 0 -2 0zM268.03 72.07 a1 1 0 1 0 2 0 a1 1 0 1 0 -2 0zM268.03 70.07 a1 1 0 1 0 2 0 a1 1 0 1 0 -2 0zM268.03 68.07 a1 1 0 1 0 2 0 a1 1 0 1 0 -2 0zM268.03 66.07 a1 1 0 1 0 2 0 a1 1 0 1 0 -2 0zM268.03 64.07 a1 1 0 1 0 2 0 a1 1 0 1 0 -2 0zM268.03 62.07 a1 1 0 1 0 2 0 a1 1 0 1 0 -2 0zM268.03 60.07 a1 1 0 1 0 2 0 a1 1 0 1 0 -2 0zM268.03 58.07 a1 1 0 1 0 2 0 a1 1 0 1 0 -2 0zM268.03 56.07 a1 1 0 1 0 2 0 a1 1 0 1 0 -2 0zM270.03 80.07 a1 1 0 1 0 2 0 a1 1 0 1 0 -2 0zM270.03 78.07 a1 1 0 1 0 2 0 a1 1 0 1 0 -2 0zM270.03 76.07 a1 1 0 1 0 2 0 a1 1 0 1 0 -2 0zM270.03 74.07 a1 1 0 1 0 2 0 a1 1 0 1 0 -2 0zM270.03 72.07 a1 1 0 1 0 2 0 a1 1 0 1 0 -2 0zM270.03 70.07 a1 1 0 1 0 2 0 a1 1 0 1 0 -2 0zM270.03 68.07 a1 1 0 1 0 2 0 a1 1 0 1 0 -2 0zM270.03 66.07 a1 1 0 1 0 2 0 a1 1 0 1 0 -2 0zM270.03 64.07 a1 1 0 1 0 2 0 a1 1 0 1 0 -2 0zM270.03 62.07 a1 1 0 1 0 2 0 a1 1 0 1 0 -2 0zM270.03 60.07 a1 1 0 1 0 2 0 a1 1 0 1 0 -2 0zM270.03 58.07 a1 1 0 1 0 2 0 a1 1 0 1 0 -2 0zM270.03 56.07 a1 1 0 1 0 2 0 a1 1 0 1 0 -2 0zM272.03 76.07 a1 1 0 1 0 2 0 a1 1 0 1 0 -2 0zM272.03 74.07 a1 1 0 1 0 2 0 a1 1 0 1 0 -2 0zM272.03 72.07 a1 1 0 1 0 2 0 a1 1 0 1 0 -2 0zM272.03 70.07 a1 1 0 1 0 2 0 a1 1 0 1 0 -2 0zM272.03 68.07 a1 1 0 1 0 2 0 a1 1 0 1 0 -2 0zM272.03 66.07 a1 1 0 1 0 2 0 a1 1 0 1 0 -2 0zM272.03 64.07 a1 1 0 1 0 2 0 a1 1 0 1 0 -2 0zM272.03 62.07 a1 1 0 1 0 2 0 a1 1 0 1 0 -2 0zM272.03 60.07 a1 1 0 1 0 2 0 a1 1 0 1 0 -2 0zM274.03 72.07 a1 1 0 1 0 2 0 a1 1 0 1 0 -2 0zM274.03 70.07 a1 1 0 1 0 2 0 a1 1 0 1 0 -2 0zM274.03 68.07 a1 1 0 1 0 2 0 a1 1 0 1 0 -2 0zM274.03 66.07 a1 1 0 1 0 2 0 a1 1 0 1 0 -2 0zM274.03 64.07 a1 1 0 1 0 2 0 a1 1 0 1 0 -2 0zM276.03 70.07 a1 1 0 1 0 2 0 a1 1 0 1 0 -2 0zM276.03 68.07 a1 1 0 1 0 2 0 a1 1 0 1 0 -2 0zM276.03 66.07 a1 1 0 1 0 2 0 a1 1 0 1 0 -2 0zM276.03 64.07 a1 1 0 1 0 2 0 a1 1 0 1 0 -2 0zM278.03 70.07 a1 1 0 1 0 2 0 a1 1 0 1 0 -2 0zM278.03 68.07 a1 1 0 1 0 2 0 a1 1 0 1 0 -2 0zM278.03 66.07 a1 1 0 1 0 2 0 a1 1 0 1 0 -2 0zM278.03 64.07 a1 1 0 1 0 2 0 a1 1 0 1 0 -2 0zM280.03 68.07 a1 1 0 1 0 2 0 a1 1 0 1 0 -2 0zM280.03 66.07 a1 1 0 1 0 2 0 a1 1 0 1 0 -2 0zM280.03 64.07 a1 1 0 1 0 2 0 a1 1 0 1 0 -2 0zM282.03 64.07 a1 1 0 1 0 2 0 a1 1 0 1 0 -2 0zM284.03 66.07 a1 1 0 1 0 2 0 a1 1 0 1 0 -2 0zM284.03 64.07 a1 1 0 1 0 2 0 a1 1 0 1 0 -2 0zM286.03 66.07 a1 1 0 1 0 2 0 a1 1 0 1 0 -2 0zM286.03 64.07 a1 1 0 1 0 2 0 a1 1 0 1 0 -2 0zM286.03 62.07 a1 1 0 1 0 2 0 a1 1 0 1 0 -2 0zM288.03 62.07 a1 1 0 1 0 2 0 a1 1 0 1 0 -2 0z" transform="scale(3.73)" fill="#ffffff"></path>
    </g>
    <defs>
        <mask id="SvgjsMask1183">
            <rect width="1440" height="560" fill="#ffffff"></rect>
        </mask>
    </defs>
</svg>