<svg xmlns="http://www.w3.org/2000/svg" version="1.1" xmlns:xlink="http://www.w3.org/1999/xlink" xmlns:svgjs="http://svgjs.com/svgjs" width="1440" height="560" preserveAspectRatio="none" viewBox="0 0 1440 560">
    <g mask="url(&quot;#SvgjsMask1062&quot;)" fill="none">
        <path d="M238.03 56.07 a1 1 0 1 0 2 0 a1 1 0 1 0 -2 0zM238.03 54.07 a1 1 0 1 0 2 0 a1 1 0 1 0 -2 0zM238.03 52.07 a1 1 0 1 0 2 0 a1 1 0 1 0 -2 0zM240.03 58.07 a1 1 0 1 0 2 0 a1 1 0 1 0 -2 0zM240.03 56.07 a1 1 0 1 0 2 0 a1 1 0 1 0 -2 0zM240.03 54.07 a1 1 0 1 0 2 0 a1 1 0 1 0 -2 0zM240.03 52.07 a1 1 0 1 0 2 0 a1 1 0 1 0 -2 0zM242.03 58.07 a1 1 0 1 0 2 0 a1 1 0 1 0 -2 0zM242.03 56.07 a1 1 0 1 0 2 0 a1 1 0 1 0 -2 0zM242.03 54.07 a1 1 0 1 0 2 0 a1 1 0 1 0 -2 0zM244.03 62.07 a1 1 0 1 0 2 0 a1 1 0 1 0 -2 0zM244.03 60.07 a1 1 0 1 0 2 0 a1 1 0 1 0 -2 0zM244.03 58.07 a1 1 0 1 0 2 0 a1 1 0 1 0 -2 0zM244.03 56.07 a1 1 0 1 0 2 0 a1 1 0 1 0 -2 0zM244.03 54.07 a1 1 0 1 0 2 0 a1 1 0 1 0 -2 0zM246.03 62.07 a1 1 0 1 0 2 0 a1 1 0 1 0 -2 0zM246.03 60.07 a1 1 0 1 0 2 0 a1 1 0 1 0 -2 0zM246.03 58.07 a1 1 0 1 0 2 0 a1 1 0 1 0 -2 0zM246.03 56.07 a1 1 0 1 0 2 0 a1 1 0 1 0 -2 0zM246.03 54.07 a1 1 0 1 0 2 0 a1 1 0 1 0 -2 0zM248.03 62.07 a1 1 0 1 0 2 0 a1 1 0 1 0 -2 0zM248.03 60.07 a1 1 0 1 0 2 0 a1 1 0 1 0 -2 0zM248.03 58.07 a1 1 0 1 0 2 0 a1 1 0 1 0 -2 0zM248.03 56.07 a1 1 0 1 0 2 0 a1 1 0 1 0 -2 0zM248.03 54.07 a1 1 0 1 0 2 0 a1 1 0 1 0 -2 0zM248.03 52.07 a1 1 0 1 0 2 0 a1 1 0 1 0 -2 0zM250.03 64.07 a1 1 0 1 0 2 0 a1 1 0 1 0 -2 0zM250.03 62.07 a1 1 0 1 0 2 0 a1 1 0 1 0 -2 0zM250.03 60.07 a1 1 0 1 0 2 0 a1 1 0 1 0 -2 0zM250.03 58.07 a1 1 0 1 0 2 0 a1 1 0 1 0 -2 0zM250.03 56.07 a1 1 0 1 0 2 0 a1 1 0 1 0 -2 0zM250.03 54.07 a1 1 0 1 0 2 0 a1 1 0 1 0 -2 0zM252.03 64.07 a1 1 0 1 0 2 0 a1 1 0 1 0 -2 0zM252.03 62.07 a1 1 0 1 0 2 0 a1 1 0 1 0 -2 0zM252.03 60.07 a1 1 0 1 0 2 0 a1 1 0 1 0 -2 0zM252.03 58.07 a1 1 0 1 0 2 0 a1 1 0 1 0 -2 0zM252.03 56.07 a1 1 0 1 0 2 0 a1 1 0 1 0 -2 0zM252.03 54.07 a1 1 0 1 0 2 0 a1 1 0 1 0 -2 0zM254.03 62.07 a1 1 0 1 0 2 0 a1 1 0 1 0 -2 0z" transform="scale(3.73)" fill="#ffffff"></path>
    </g>
    <defs>
        <mask id="SvgjsMask1062">
            <rect width="1440" height="560" fill="#ffffff"></rect>
        </mask>
    </defs>
</svg>