<svg xmlns="http://www.w3.org/2000/svg" version="1.1" xmlns:xlink="http://www.w3.org/1999/xlink" xmlns:svgjs="http://svgjs.com/svgjs" width="1440" height="560" preserveAspectRatio="none" viewBox="0 0 1440 560">
    <g mask="url(&quot;#SvgjsMask1069&quot;)" fill="none">
        <path d="M360.03 102.07 a1 1 0 1 0 2 0 a1 1 0 1 0 -2 0zM358.03 102.07 a1 1 0 1 0 2 0 a1 1 0 1 0 -2 0zM352.03 102.07 a1 1 0 1 0 2 0 a1 1 0 1 0 -2 0zM358.03 100.07 a1 1 0 1 0 2 0 a1 1 0 1 0 -2 0zM354.03 100.07 a1 1 0 1 0 2 0 a1 1 0 1 0 -2 0zM360.03 100.07 a1 1 0 1 0 2 0 a1 1 0 1 0 -2 0zM352.03 100.07 a1 1 0 1 0 2 0 a1 1 0 1 0 -2 0zM352.03 98.07 a1 1 0 1 0 2 0 a1 1 0 1 0 -2 0zM350.03 98.07 a1 1 0 1 0 2 0 a1 1 0 1 0 -2 0zM354.03 98.07 a1 1 0 1 0 2 0 a1 1 0 1 0 -2 0zM348.03 98.07 a1 1 0 1 0 2 0 a1 1 0 1 0 -2 0zM348.03 96.07 a1 1 0 1 0 2 0 a1 1 0 1 0 -2 0z" transform="scale(3.73)" fill="#ffffff"></path>
    </g>
    <defs>
        <mask id="SvgjsMask1069">
            <rect width="1440" height="560" fill="#ffffff"></rect>
        </mask>
    </defs>
</svg>