<svg xmlns="http://www.w3.org/2000/svg" version="1.1" xmlns:xlink="http://www.w3.org/1999/xlink" xmlns:svgjs="http://svgjs.com/svgjs" width="1440" height="560" preserveAspectRatio="none" viewBox="0 0 1440 560">
    <g mask="url(&quot;#SvgjsMask1003&quot;)" fill="none">
        <path d="M360.03 86.07 a1 1 0 1 0 2 0 a1 1 0 1 0 -2 0zM360.03 84.07 a1 1 0 1 0 2 0 a1 1 0 1 0 -2 0zM362.03 84.07 a1 1 0 1 0 2 0 a1 1 0 1 0 -2 0zM364.03 84.07 a1 1 0 1 0 2 0 a1 1 0 1 0 -2 0zM364.03 82.07 a1 1 0 1 0 2 0 a1 1 0 1 0 -2 0zM360.03 82.07 a1 1 0 1 0 2 0 a1 1 0 1 0 -2 0zM362.03 82.07 a1 1 0 1 0 2 0 a1 1 0 1 0 -2 0zM362.03 80.07 a1 1 0 1 0 2 0 a1 1 0 1 0 -2 0zM358.03 78.07 a1 1 0 1 0 2 0 a1 1 0 1 0 -2 0zM362.03 76.07 a1 1 0 1 0 2 0 a1 1 0 1 0 -2 0z" transform="scale(3.73)" fill="#ffffff"></path>
    </g>
    <defs>
        <mask id="SvgjsMask1003">
            <rect width="1440" height="560" fill="#ffffff"></rect>
        </mask>
    </defs>
</svg>