<svg xmlns="http://www.w3.org/2000/svg" version="1.1" xmlns:xlink="http://www.w3.org/1999/xlink" xmlns:svgjs="http://svgjs.com/svgjs" width="1440" height="560" preserveAspectRatio="none" viewBox="0 0 1440 560">
    <g mask="url(&quot;#SvgjsMask1095&quot;)" fill="none">
        <path d="M240.03 42.07 a1 1 0 1 0 2 0 a1 1 0 1 0 -2 0zM240.03 40.07 a1 1 0 1 0 2 0 a1 1 0 1 0 -2 0zM242.03 42.07 a1 1 0 1 0 2 0 a1 1 0 1 0 -2 0zM242.03 40.07 a1 1 0 1 0 2 0 a1 1 0 1 0 -2 0zM244.03 46.07 a1 1 0 1 0 2 0 a1 1 0 1 0 -2 0zM244.03 42.07 a1 1 0 1 0 2 0 a1 1 0 1 0 -2 0zM244.03 40.07 a1 1 0 1 0 2 0 a1 1 0 1 0 -2 0zM246.03 46.07 a1 1 0 1 0 2 0 a1 1 0 1 0 -2 0zM246.03 44.07 a1 1 0 1 0 2 0 a1 1 0 1 0 -2 0zM246.03 42.07 a1 1 0 1 0 2 0 a1 1 0 1 0 -2 0zM246.03 40.07 a1 1 0 1 0 2 0 a1 1 0 1 0 -2 0zM248.03 44.07 a1 1 0 1 0 2 0 a1 1 0 1 0 -2 0zM248.03 42.07 a1 1 0 1 0 2 0 a1 1 0 1 0 -2 0zM248.03 40.07 a1 1 0 1 0 2 0 a1 1 0 1 0 -2 0zM250.03 44.07 a1 1 0 1 0 2 0 a1 1 0 1 0 -2 0zM250.03 42.07 a1 1 0 1 0 2 0 a1 1 0 1 0 -2 0zM250.03 40.07 a1 1 0 1 0 2 0 a1 1 0 1 0 -2 0zM252.03 44.07 a1 1 0 1 0 2 0 a1 1 0 1 0 -2 0zM252.03 42.07 a1 1 0 1 0 2 0 a1 1 0 1 0 -2 0zM252.03 40.07 a1 1 0 1 0 2 0 a1 1 0 1 0 -2 0zM254.03 46.07 a1 1 0 1 0 2 0 a1 1 0 1 0 -2 0zM254.03 44.07 a1 1 0 1 0 2 0 a1 1 0 1 0 -2 0zM254.03 42.07 a1 1 0 1 0 2 0 a1 1 0 1 0 -2 0zM254.03 40.07 a1 1 0 1 0 2 0 a1 1 0 1 0 -2 0zM254.03 38.07 a1 1 0 1 0 2 0 a1 1 0 1 0 -2 0zM256.03 46.07 a1 1 0 1 0 2 0 a1 1 0 1 0 -2 0zM256.03 44.07 a1 1 0 1 0 2 0 a1 1 0 1 0 -2 0zM256.03 42.07 a1 1 0 1 0 2 0 a1 1 0 1 0 -2 0zM256.03 40.07 a1 1 0 1 0 2 0 a1 1 0 1 0 -2 0zM256.03 38.07 a1 1 0 1 0 2 0 a1 1 0 1 0 -2 0zM256.03 36.07 a1 1 0 1 0 2 0 a1 1 0 1 0 -2 0zM258.03 46.07 a1 1 0 1 0 2 0 a1 1 0 1 0 -2 0zM258.03 44.07 a1 1 0 1 0 2 0 a1 1 0 1 0 -2 0zM258.03 42.07 a1 1 0 1 0 2 0 a1 1 0 1 0 -2 0zM258.03 40.07 a1 1 0 1 0 2 0 a1 1 0 1 0 -2 0zM258.03 38.07 a1 1 0 1 0 2 0 a1 1 0 1 0 -2 0zM258.03 36.07 a1 1 0 1 0 2 0 a1 1 0 1 0 -2 0zM260.03 48.07 a1 1 0 1 0 2 0 a1 1 0 1 0 -2 0zM260.03 46.07 a1 1 0 1 0 2 0 a1 1 0 1 0 -2 0zM260.03 44.07 a1 1 0 1 0 2 0 a1 1 0 1 0 -2 0zM260.03 42.07 a1 1 0 1 0 2 0 a1 1 0 1 0 -2 0zM260.03 40.07 a1 1 0 1 0 2 0 a1 1 0 1 0 -2 0zM260.03 38.07 a1 1 0 1 0 2 0 a1 1 0 1 0 -2 0zM260.03 36.07 a1 1 0 1 0 2 0 a1 1 0 1 0 -2 0zM262.03 48.07 a1 1 0 1 0 2 0 a1 1 0 1 0 -2 0zM262.03 46.07 a1 1 0 1 0 2 0 a1 1 0 1 0 -2 0zM262.03 44.07 a1 1 0 1 0 2 0 a1 1 0 1 0 -2 0zM262.03 42.07 a1 1 0 1 0 2 0 a1 1 0 1 0 -2 0zM262.03 40.07 a1 1 0 1 0 2 0 a1 1 0 1 0 -2 0zM262.03 38.07 a1 1 0 1 0 2 0 a1 1 0 1 0 -2 0zM262.03 36.07 a1 1 0 1 0 2 0 a1 1 0 1 0 -2 0zM264.03 46.07 a1 1 0 1 0 2 0 a1 1 0 1 0 -2 0zM264.03 44.07 a1 1 0 1 0 2 0 a1 1 0 1 0 -2 0zM264.03 42.07 a1 1 0 1 0 2 0 a1 1 0 1 0 -2 0zM264.03 40.07 a1 1 0 1 0 2 0 a1 1 0 1 0 -2 0zM264.03 38.07 a1 1 0 1 0 2 0 a1 1 0 1 0 -2 0zM264.03 36.07 a1 1 0 1 0 2 0 a1 1 0 1 0 -2 0zM266.03 46.07 a1 1 0 1 0 2 0 a1 1 0 1 0 -2 0zM266.03 44.07 a1 1 0 1 0 2 0 a1 1 0 1 0 -2 0zM266.03 42.07 a1 1 0 1 0 2 0 a1 1 0 1 0 -2 0zM266.03 40.07 a1 1 0 1 0 2 0 a1 1 0 1 0 -2 0zM266.03 38.07 a1 1 0 1 0 2 0 a1 1 0 1 0 -2 0zM268.03 46.07 a1 1 0 1 0 2 0 a1 1 0 1 0 -2 0zM268.03 44.07 a1 1 0 1 0 2 0 a1 1 0 1 0 -2 0zM268.03 42.07 a1 1 0 1 0 2 0 a1 1 0 1 0 -2 0zM268.03 40.07 a1 1 0 1 0 2 0 a1 1 0 1 0 -2 0zM268.03 38.07 a1 1 0 1 0 2 0 a1 1 0 1 0 -2 0zM268.03 36.07 a1 1 0 1 0 2 0 a1 1 0 1 0 -2 0zM270.03 46.07 a1 1 0 1 0 2 0 a1 1 0 1 0 -2 0zM270.03 44.07 a1 1 0 1 0 2 0 a1 1 0 1 0 -2 0zM270.03 42.07 a1 1 0 1 0 2 0 a1 1 0 1 0 -2 0zM270.03 40.07 a1 1 0 1 0 2 0 a1 1 0 1 0 -2 0zM270.03 38.07 a1 1 0 1 0 2 0 a1 1 0 1 0 -2 0zM272.03 46.07 a1 1 0 1 0 2 0 a1 1 0 1 0 -2 0zM272.03 44.07 a1 1 0 1 0 2 0 a1 1 0 1 0 -2 0zM272.03 42.07 a1 1 0 1 0 2 0 a1 1 0 1 0 -2 0zM272.03 40.07 a1 1 0 1 0 2 0 a1 1 0 1 0 -2 0zM274.03 44.07 a1 1 0 1 0 2 0 a1 1 0 1 0 -2 0zM274.03 42.07 a1 1 0 1 0 2 0 a1 1 0 1 0 -2 0zM274.03 40.07 a1 1 0 1 0 2 0 a1 1 0 1 0 -2 0zM276.03 42.07 a1 1 0 1 0 2 0 a1 1 0 1 0 -2 0zM276.03 40.07 a1 1 0 1 0 2 0 a1 1 0 1 0 -2 0z" transform="scale(3.73)" fill="#ffffff"></path>
    </g>
    <defs>
        <mask id="SvgjsMask1095">
            <rect width="1440" height="560" fill="#ffffff"></rect>
        </mask>
    </defs>
</svg>