<svg xmlns="http://www.w3.org/2000/svg" version="1.1" xmlns:xlink="http://www.w3.org/1999/xlink" xmlns:svgjs="http://svgjs.com/svgjs" width="1440" height="560" preserveAspectRatio="none" viewBox="0 0 1440 560">
    <g mask="url(&quot;#SvgjsMask1136&quot;)" fill="none">
        <path d="M40.03 102.07 a1 1 0 1 0 2 0 a1 1 0 1 0 -2 0zM36.03 96.07 a1 1 0 1 0 2 0 a1 1 0 1 0 -2 0zM18.03 94.07 a1 1 0 1 0 2 0 a1 1 0 1 0 -2 0zM20.03 94.07 a1 1 0 1 0 2 0 a1 1 0 1 0 -2 0zM38.03 94.07 a1 1 0 1 0 2 0 a1 1 0 1 0 -2 0zM20.03 92.07 a1 1 0 1 0 2 0 a1 1 0 1 0 -2 0zM368.03 92.07 a1 1 0 1 0 2 0 a1 1 0 1 0 -2 0zM366.03 92.07 a1 1 0 1 0 2 0 a1 1 0 1 0 -2 0zM362.03 90.07 a1 1 0 1 0 2 0 a1 1 0 1 0 -2 0zM366.03 90.07 a1 1 0 1 0 2 0 a1 1 0 1 0 -2 0zM364.03 90.07 a1 1 0 1 0 2 0 a1 1 0 1 0 -2 0zM366.03 88.07 a1 1 0 1 0 2 0 a1 1 0 1 0 -2 0zM364.03 88.07 a1 1 0 1 0 2 0 a1 1 0 1 0 -2 0zM34.03 88.07 a1 1 0 1 0 2 0 a1 1 0 1 0 -2 0zM364.03 86.07 a1 1 0 1 0 2 0 a1 1 0 1 0 -2 0zM32.03 86.07 a1 1 0 1 0 2 0 a1 1 0 1 0 -2 0z" transform="scale(3.73)" fill="#ffffff"></path>
    </g>
    <defs>
        <mask id="SvgjsMask1136">
            <rect width="1440" height="560" fill="#ffffff"></rect>
        </mask>
    </defs>
</svg>