<svg xmlns="http://www.w3.org/2000/svg" version="1.1" xmlns:xlink="http://www.w3.org/1999/xlink" xmlns:svgjs="http://svgjs.com/svgjs" width="1440" height="560" preserveAspectRatio="none" viewBox="0 0 1440 560">
    <g mask="url(&quot;#SvgjsMask1126&quot;)" fill="none">
        <path d="M202.03 64.07 a1 1 0 1 0 2 0 a1 1 0 1 0 -2 0zM202.03 62.07 a1 1 0 1 0 2 0 a1 1 0 1 0 -2 0zM202.03 60.07 a1 1 0 1 0 2 0 a1 1 0 1 0 -2 0zM204.03 66.07 a1 1 0 1 0 2 0 a1 1 0 1 0 -2 0zM204.03 64.07 a1 1 0 1 0 2 0 a1 1 0 1 0 -2 0zM204.03 62.07 a1 1 0 1 0 2 0 a1 1 0 1 0 -2 0zM204.03 60.07 a1 1 0 1 0 2 0 a1 1 0 1 0 -2 0zM204.03 58.07 a1 1 0 1 0 2 0 a1 1 0 1 0 -2 0zM206.03 66.07 a1 1 0 1 0 2 0 a1 1 0 1 0 -2 0zM206.03 64.07 a1 1 0 1 0 2 0 a1 1 0 1 0 -2 0zM206.03 62.07 a1 1 0 1 0 2 0 a1 1 0 1 0 -2 0zM206.03 60.07 a1 1 0 1 0 2 0 a1 1 0 1 0 -2 0zM206.03 58.07 a1 1 0 1 0 2 0 a1 1 0 1 0 -2 0zM208.03 66.07 a1 1 0 1 0 2 0 a1 1 0 1 0 -2 0zM208.03 64.07 a1 1 0 1 0 2 0 a1 1 0 1 0 -2 0zM208.03 62.07 a1 1 0 1 0 2 0 a1 1 0 1 0 -2 0zM208.03 60.07 a1 1 0 1 0 2 0 a1 1 0 1 0 -2 0zM210.03 66.07 a1 1 0 1 0 2 0 a1 1 0 1 0 -2 0zM210.03 64.07 a1 1 0 1 0 2 0 a1 1 0 1 0 -2 0zM210.03 62.07 a1 1 0 1 0 2 0 a1 1 0 1 0 -2 0zM210.03 60.07 a1 1 0 1 0 2 0 a1 1 0 1 0 -2 0zM212.03 68.07 a1 1 0 1 0 2 0 a1 1 0 1 0 -2 0zM212.03 66.07 a1 1 0 1 0 2 0 a1 1 0 1 0 -2 0zM212.03 64.07 a1 1 0 1 0 2 0 a1 1 0 1 0 -2 0zM212.03 62.07 a1 1 0 1 0 2 0 a1 1 0 1 0 -2 0zM212.03 60.07 a1 1 0 1 0 2 0 a1 1 0 1 0 -2 0zM212.03 58.07 a1 1 0 1 0 2 0 a1 1 0 1 0 -2 0zM214.03 68.07 a1 1 0 1 0 2 0 a1 1 0 1 0 -2 0zM214.03 66.07 a1 1 0 1 0 2 0 a1 1 0 1 0 -2 0zM214.03 64.07 a1 1 0 1 0 2 0 a1 1 0 1 0 -2 0zM214.03 62.07 a1 1 0 1 0 2 0 a1 1 0 1 0 -2 0zM214.03 60.07 a1 1 0 1 0 2 0 a1 1 0 1 0 -2 0zM214.03 58.07 a1 1 0 1 0 2 0 a1 1 0 1 0 -2 0zM216.03 70.07 a1 1 0 1 0 2 0 a1 1 0 1 0 -2 0zM216.03 68.07 a1 1 0 1 0 2 0 a1 1 0 1 0 -2 0zM216.03 66.07 a1 1 0 1 0 2 0 a1 1 0 1 0 -2 0zM216.03 64.07 a1 1 0 1 0 2 0 a1 1 0 1 0 -2 0zM216.03 62.07 a1 1 0 1 0 2 0 a1 1 0 1 0 -2 0zM216.03 60.07 a1 1 0 1 0 2 0 a1 1 0 1 0 -2 0zM216.03 58.07 a1 1 0 1 0 2 0 a1 1 0 1 0 -2 0z" transform="scale(3.73)" fill="#ffffff"></path>
    </g>
    <defs>
        <mask id="SvgjsMask1126">
            <rect width="1440" height="560" fill="#ffffff"></rect>
        </mask>
    </defs>
</svg>