<svg xmlns="http://www.w3.org/2000/svg" version="1.1" xmlns:xlink="http://www.w3.org/1999/xlink" xmlns:svgjs="http://svgjs.com/svgjs" width="1440" height="560" preserveAspectRatio="none" viewBox="0 0 1440 560">
    <g mask="url(&quot;#SvgjsMask1008&quot;)" fill="none">
        <path d="M176.03 72.07 a1 1 0 1 0 2 0 a1 1 0 1 0 -2 0zM176.03 70.07 a1 1 0 1 0 2 0 a1 1 0 1 0 -2 0zM178.03 72.07 a1 1 0 1 0 2 0 a1 1 0 1 0 -2 0zM178.03 70.07 a1 1 0 1 0 2 0 a1 1 0 1 0 -2 0zM180.03 74.07 a1 1 0 1 0 2 0 a1 1 0 1 0 -2 0zM180.03 72.07 a1 1 0 1 0 2 0 a1 1 0 1 0 -2 0zM180.03 70.07 a1 1 0 1 0 2 0 a1 1 0 1 0 -2 0zM180.03 68.07 a1 1 0 1 0 2 0 a1 1 0 1 0 -2 0zM180.03 66.07 a1 1 0 1 0 2 0 a1 1 0 1 0 -2 0zM182.03 74.07 a1 1 0 1 0 2 0 a1 1 0 1 0 -2 0zM182.03 72.07 a1 1 0 1 0 2 0 a1 1 0 1 0 -2 0zM182.03 70.07 a1 1 0 1 0 2 0 a1 1 0 1 0 -2 0zM182.03 68.07 a1 1 0 1 0 2 0 a1 1 0 1 0 -2 0zM182.03 66.07 a1 1 0 1 0 2 0 a1 1 0 1 0 -2 0zM184.03 74.07 a1 1 0 1 0 2 0 a1 1 0 1 0 -2 0zM184.03 72.07 a1 1 0 1 0 2 0 a1 1 0 1 0 -2 0zM184.03 70.07 a1 1 0 1 0 2 0 a1 1 0 1 0 -2 0zM184.03 68.07 a1 1 0 1 0 2 0 a1 1 0 1 0 -2 0zM184.03 66.07 a1 1 0 1 0 2 0 a1 1 0 1 0 -2 0zM184.03 64.07 a1 1 0 1 0 2 0 a1 1 0 1 0 -2 0zM186.03 74.07 a1 1 0 1 0 2 0 a1 1 0 1 0 -2 0zM186.03 72.07 a1 1 0 1 0 2 0 a1 1 0 1 0 -2 0z" transform="scale(3.73)" fill="#ffffff"></path>
    </g>
    <defs>
        <mask id="SvgjsMask1008">
            <rect width="1440" height="560" fill="#ffffff"></rect>
        </mask>
    </defs>
</svg>