<svg xmlns="http://www.w3.org/2000/svg" version="1.1" xmlns:xlink="http://www.w3.org/1999/xlink" xmlns:svgjs="http://svgjs.com/svgjs" width="1440" height="560" preserveAspectRatio="none" viewBox="0 0 1440 560">
    <g mask="url(&quot;#SvgjsMask1012&quot;)" fill="none">
        <path d="M282.03 42.07 a1 1 0 1 0 2 0 a1 1 0 1 0 -2 0zM282.03 40.07 a1 1 0 1 0 2 0 a1 1 0 1 0 -2 0zM284.03 44.07 a1 1 0 1 0 2 0 a1 1 0 1 0 -2 0zM284.03 42.07 a1 1 0 1 0 2 0 a1 1 0 1 0 -2 0zM284.03 40.07 a1 1 0 1 0 2 0 a1 1 0 1 0 -2 0zM286.03 44.07 a1 1 0 1 0 2 0 a1 1 0 1 0 -2 0zM286.03 42.07 a1 1 0 1 0 2 0 a1 1 0 1 0 -2 0zM286.03 40.07 a1 1 0 1 0 2 0 a1 1 0 1 0 -2 0zM288.03 46.07 a1 1 0 1 0 2 0 a1 1 0 1 0 -2 0zM288.03 44.07 a1 1 0 1 0 2 0 a1 1 0 1 0 -2 0zM288.03 42.07 a1 1 0 1 0 2 0 a1 1 0 1 0 -2 0zM290.03 46.07 a1 1 0 1 0 2 0 a1 1 0 1 0 -2 0zM290.03 44.07 a1 1 0 1 0 2 0 a1 1 0 1 0 -2 0zM290.03 42.07 a1 1 0 1 0 2 0 a1 1 0 1 0 -2 0zM290.03 40.07 a1 1 0 1 0 2 0 a1 1 0 1 0 -2 0zM292.03 46.07 a1 1 0 1 0 2 0 a1 1 0 1 0 -2 0zM292.03 44.07 a1 1 0 1 0 2 0 a1 1 0 1 0 -2 0zM292.03 42.07 a1 1 0 1 0 2 0 a1 1 0 1 0 -2 0zM292.03 40.07 a1 1 0 1 0 2 0 a1 1 0 1 0 -2 0zM294.03 46.07 a1 1 0 1 0 2 0 a1 1 0 1 0 -2 0zM294.03 44.07 a1 1 0 1 0 2 0 a1 1 0 1 0 -2 0zM294.03 42.07 a1 1 0 1 0 2 0 a1 1 0 1 0 -2 0zM294.03 40.07 a1 1 0 1 0 2 0 a1 1 0 1 0 -2 0zM296.03 48.07 a1 1 0 1 0 2 0 a1 1 0 1 0 -2 0zM296.03 46.07 a1 1 0 1 0 2 0 a1 1 0 1 0 -2 0zM296.03 44.07 a1 1 0 1 0 2 0 a1 1 0 1 0 -2 0zM296.03 42.07 a1 1 0 1 0 2 0 a1 1 0 1 0 -2 0zM296.03 40.07 a1 1 0 1 0 2 0 a1 1 0 1 0 -2 0zM298.03 46.07 a1 1 0 1 0 2 0 a1 1 0 1 0 -2 0zM298.03 44.07 a1 1 0 1 0 2 0 a1 1 0 1 0 -2 0zM298.03 42.07 a1 1 0 1 0 2 0 a1 1 0 1 0 -2 0zM298.03 40.07 a1 1 0 1 0 2 0 a1 1 0 1 0 -2 0zM300.03 46.07 a1 1 0 1 0 2 0 a1 1 0 1 0 -2 0zM300.03 44.07 a1 1 0 1 0 2 0 a1 1 0 1 0 -2 0zM300.03 42.07 a1 1 0 1 0 2 0 a1 1 0 1 0 -2 0zM302.03 46.07 a1 1 0 1 0 2 0 a1 1 0 1 0 -2 0zM302.03 44.07 a1 1 0 1 0 2 0 a1 1 0 1 0 -2 0zM302.03 42.07 a1 1 0 1 0 2 0 a1 1 0 1 0 -2 0zM304.03 44.07 a1 1 0 1 0 2 0 a1 1 0 1 0 -2 0zM304.03 42.07 a1 1 0 1 0 2 0 a1 1 0 1 0 -2 0zM306.03 44.07 a1 1 0 1 0 2 0 a1 1 0 1 0 -2 0zM306.03 42.07 a1 1 0 1 0 2 0 a1 1 0 1 0 -2 0zM306.03 40.07 a1 1 0 1 0 2 0 a1 1 0 1 0 -2 0zM308.03 44.07 a1 1 0 1 0 2 0 a1 1 0 1 0 -2 0zM310.03 42.07 a1 1 0 1 0 2 0 a1 1 0 1 0 -2 0z" transform="scale(3.73)" fill="#ffffff"></path>
    </g>
    <defs>
        <mask id="SvgjsMask1012">
            <rect width="1440" height="560" fill="#ffffff"></rect>
        </mask>
    </defs>
</svg>