<svg xmlns="http://www.w3.org/2000/svg" version="1.1" xmlns:xlink="http://www.w3.org/1999/xlink" xmlns:svgjs="http://svgjs.com/svgjs" width="1440" height="560" preserveAspectRatio="none" viewBox="0 0 1440 560">
    <g mask="url(&quot;#SvgjsMask1018&quot;)" fill="none">
        <path d="M224.03 114.07 a1 1 0 1 0 2 0 a1 1 0 1 0 -2 0zM224.03 112.07 a1 1 0 1 0 2 0 a1 1 0 1 0 -2 0zM224.03 106.07 a1 1 0 1 0 2 0 a1 1 0 1 0 -2 0zM226.03 114.07 a1 1 0 1 0 2 0 a1 1 0 1 0 -2 0zM226.03 112.07 a1 1 0 1 0 2 0 a1 1 0 1 0 -2 0zM226.03 110.07 a1 1 0 1 0 2 0 a1 1 0 1 0 -2 0zM226.03 108.07 a1 1 0 1 0 2 0 a1 1 0 1 0 -2 0zM226.03 106.07 a1 1 0 1 0 2 0 a1 1 0 1 0 -2 0zM228.03 108.07 a1 1 0 1 0 2 0 a1 1 0 1 0 -2 0zM228.03 106.07 a1 1 0 1 0 2 0 a1 1 0 1 0 -2 0zM228.03 104.07 a1 1 0 1 0 2 0 a1 1 0 1 0 -2 0zM228.03 102.07 a1 1 0 1 0 2 0 a1 1 0 1 0 -2 0zM230.03 106.07 a1 1 0 1 0 2 0 a1 1 0 1 0 -2 0zM230.03 104.07 a1 1 0 1 0 2 0 a1 1 0 1 0 -2 0zM230.03 102.07 a1 1 0 1 0 2 0 a1 1 0 1 0 -2 0zM232.03 106.07 a1 1 0 1 0 2 0 a1 1 0 1 0 -2 0zM232.03 104.07 a1 1 0 1 0 2 0 a1 1 0 1 0 -2 0zM232.03 102.07 a1 1 0 1 0 2 0 a1 1 0 1 0 -2 0z" transform="scale(3.73)" fill="#ffffff"></path>
    </g>
    <defs>
        <mask id="SvgjsMask1018">
            <rect width="1440" height="560" fill="#ffffff"></rect>
        </mask>
    </defs>
</svg>