<svg xmlns="http://www.w3.org/2000/svg" version="1.1" xmlns:xlink="http://www.w3.org/1999/xlink" xmlns:svgjs="http://svgjs.com/svgjs" width="1440" height="560" preserveAspectRatio="none" viewBox="0 0 1440 560">
    <g mask="url(&quot;#SvgjsMask1064&quot;)" fill="none">
        <path d="M76.03 58.07 a1 1 0 1 0 2 0 a1 1 0 1 0 -2 0zM78.03 62.07 a1 1 0 1 0 2 0 a1 1 0 1 0 -2 0zM78.03 58.07 a1 1 0 1 0 2 0 a1 1 0 1 0 -2 0zM80.03 64.07 a1 1 0 1 0 2 0 a1 1 0 1 0 -2 0zM80.03 60.07 a1 1 0 1 0 2 0 a1 1 0 1 0 -2 0zM82.03 66.07 a1 1 0 1 0 2 0 a1 1 0 1 0 -2 0zM82.03 62.07 a1 1 0 1 0 2 0 a1 1 0 1 0 -2 0zM82.03 60.07 a1 1 0 1 0 2 0 a1 1 0 1 0 -2 0zM84.03 64.07 a1 1 0 1 0 2 0 a1 1 0 1 0 -2 0zM84.03 62.07 a1 1 0 1 0 2 0 a1 1 0 1 0 -2 0zM84.03 60.07 a1 1 0 1 0 2 0 a1 1 0 1 0 -2 0zM86.03 66.07 a1 1 0 1 0 2 0 a1 1 0 1 0 -2 0zM86.03 64.07 a1 1 0 1 0 2 0 a1 1 0 1 0 -2 0zM86.03 62.07 a1 1 0 1 0 2 0 a1 1 0 1 0 -2 0zM86.03 60.07 a1 1 0 1 0 2 0 a1 1 0 1 0 -2 0zM88.03 70.07 a1 1 0 1 0 2 0 a1 1 0 1 0 -2 0zM88.03 68.07 a1 1 0 1 0 2 0 a1 1 0 1 0 -2 0zM88.03 66.07 a1 1 0 1 0 2 0 a1 1 0 1 0 -2 0zM88.03 64.07 a1 1 0 1 0 2 0 a1 1 0 1 0 -2 0zM88.03 62.07 a1 1 0 1 0 2 0 a1 1 0 1 0 -2 0zM90.03 72.07 a1 1 0 1 0 2 0 a1 1 0 1 0 -2 0zM90.03 70.07 a1 1 0 1 0 2 0 a1 1 0 1 0 -2 0zM90.03 68.07 a1 1 0 1 0 2 0 a1 1 0 1 0 -2 0zM90.03 66.07 a1 1 0 1 0 2 0 a1 1 0 1 0 -2 0zM90.03 64.07 a1 1 0 1 0 2 0 a1 1 0 1 0 -2 0zM90.03 62.07 a1 1 0 1 0 2 0 a1 1 0 1 0 -2 0zM92.03 72.07 a1 1 0 1 0 2 0 a1 1 0 1 0 -2 0zM92.03 70.07 a1 1 0 1 0 2 0 a1 1 0 1 0 -2 0zM92.03 68.07 a1 1 0 1 0 2 0 a1 1 0 1 0 -2 0zM92.03 66.07 a1 1 0 1 0 2 0 a1 1 0 1 0 -2 0zM92.03 64.07 a1 1 0 1 0 2 0 a1 1 0 1 0 -2 0zM92.03 62.07 a1 1 0 1 0 2 0 a1 1 0 1 0 -2 0zM94.03 72.07 a1 1 0 1 0 2 0 a1 1 0 1 0 -2 0zM94.03 70.07 a1 1 0 1 0 2 0 a1 1 0 1 0 -2 0zM94.03 68.07 a1 1 0 1 0 2 0 a1 1 0 1 0 -2 0zM94.03 66.07 a1 1 0 1 0 2 0 a1 1 0 1 0 -2 0zM94.03 64.07 a1 1 0 1 0 2 0 a1 1 0 1 0 -2 0zM96.03 74.07 a1 1 0 1 0 2 0 a1 1 0 1 0 -2 0zM96.03 72.07 a1 1 0 1 0 2 0 a1 1 0 1 0 -2 0zM98.03 72.07 a1 1 0 1 0 2 0 a1 1 0 1 0 -2 0zM100.03 74.07 a1 1 0 1 0 2 0 a1 1 0 1 0 -2 0zM100.03 72.07 a1 1 0 1 0 2 0 a1 1 0 1 0 -2 0zM102.03 72.07 a1 1 0 1 0 2 0 a1 1 0 1 0 -2 0zM102.03 70.07 a1 1 0 1 0 2 0 a1 1 0 1 0 -2 0zM104.03 70.07 a1 1 0 1 0 2 0 a1 1 0 1 0 -2 0z" transform="scale(3.73)" fill="#ffffff"></path>
    </g>
    <defs>
        <mask id="SvgjsMask1064">
            <rect width="1440" height="560" fill="#ffffff"></rect>
        </mask>
    </defs>
</svg>