<svg xmlns="http://www.w3.org/2000/svg" version="1.1" xmlns:xlink="http://www.w3.org/1999/xlink" xmlns:svgjs="http://svgjs.com/svgjs" width="1440" height="560" preserveAspectRatio="none" viewBox="0 0 1440 560">
    <g mask="url(&quot;#SvgjsMask1024&quot;)" fill="none">
        <path d="M194.03 76.07 a1 1 0 1 0 2 0 a1 1 0 1 0 -2 0zM196.03 76.07 a1 1 0 1 0 2 0 a1 1 0 1 0 -2 0zM196.03 74.07 a1 1 0 1 0 2 0 a1 1 0 1 0 -2 0zM198.03 76.07 a1 1 0 1 0 2 0 a1 1 0 1 0 -2 0zM198.03 74.07 a1 1 0 1 0 2 0 a1 1 0 1 0 -2 0zM198.03 72.07 a1 1 0 1 0 2 0 a1 1 0 1 0 -2 0zM200.03 76.07 a1 1 0 1 0 2 0 a1 1 0 1 0 -2 0zM200.03 74.07 a1 1 0 1 0 2 0 a1 1 0 1 0 -2 0zM200.03 72.07 a1 1 0 1 0 2 0 a1 1 0 1 0 -2 0zM200.03 70.07 a1 1 0 1 0 2 0 a1 1 0 1 0 -2 0zM202.03 76.07 a1 1 0 1 0 2 0 a1 1 0 1 0 -2 0zM202.03 74.07 a1 1 0 1 0 2 0 a1 1 0 1 0 -2 0zM202.03 72.07 a1 1 0 1 0 2 0 a1 1 0 1 0 -2 0zM202.03 70.07 a1 1 0 1 0 2 0 a1 1 0 1 0 -2 0zM202.03 68.07 a1 1 0 1 0 2 0 a1 1 0 1 0 -2 0zM204.03 76.07 a1 1 0 1 0 2 0 a1 1 0 1 0 -2 0zM204.03 74.07 a1 1 0 1 0 2 0 a1 1 0 1 0 -2 0zM204.03 72.07 a1 1 0 1 0 2 0 a1 1 0 1 0 -2 0zM204.03 70.07 a1 1 0 1 0 2 0 a1 1 0 1 0 -2 0zM204.03 68.07 a1 1 0 1 0 2 0 a1 1 0 1 0 -2 0zM206.03 74.07 a1 1 0 1 0 2 0 a1 1 0 1 0 -2 0zM206.03 72.07 a1 1 0 1 0 2 0 a1 1 0 1 0 -2 0zM206.03 70.07 a1 1 0 1 0 2 0 a1 1 0 1 0 -2 0zM206.03 68.07 a1 1 0 1 0 2 0 a1 1 0 1 0 -2 0z" transform="scale(3.73)" fill="#ffffff"></path>
    </g>
    <defs>
        <mask id="SvgjsMask1024">
            <rect width="1440" height="560" fill="#ffffff"></rect>
        </mask>
    </defs>
</svg>