<svg xmlns="http://www.w3.org/2000/svg" version="1.1" xmlns:xlink="http://www.w3.org/1999/xlink" xmlns:svgjs="http://svgjs.com/svgjs" width="1440" height="560" preserveAspectRatio="none" viewBox="0 0 1440 560">
    <g mask="url(&quot;#SvgjsMask1002&quot;)" fill="none">
        <path d="M198.03 30.07 a1 1 0 1 0 2 0 a1 1 0 1 0 -2 0zM198.03 28.07 a1 1 0 1 0 2 0 a1 1 0 1 0 -2 0zM200.03 30.07 a1 1 0 1 0 2 0 a1 1 0 1 0 -2 0zM200.03 28.07 a1 1 0 1 0 2 0 a1 1 0 1 0 -2 0zM202.03 30.07 a1 1 0 1 0 2 0 a1 1 0 1 0 -2 0zM202.03 28.07 a1 1 0 1 0 2 0 a1 1 0 1 0 -2 0zM202.03 26.07 a1 1 0 1 0 2 0 a1 1 0 1 0 -2 0zM204.03 30.07 a1 1 0 1 0 2 0 a1 1 0 1 0 -2 0zM204.03 28.07 a1 1 0 1 0 2 0 a1 1 0 1 0 -2 0zM204.03 26.07 a1 1 0 1 0 2 0 a1 1 0 1 0 -2 0zM206.03 24.07 a1 1 0 1 0 2 0 a1 1 0 1 0 -2 0zM206.03 12.07 a1 1 0 1 0 2 0 a1 1 0 1 0 -2 0zM208.03 22.07 a1 1 0 1 0 2 0 a1 1 0 1 0 -2 0zM208.03 12.07 a1 1 0 1 0 2 0 a1 1 0 1 0 -2 0zM210.03 12.07 a1 1 0 1 0 2 0 a1 1 0 1 0 -2 0zM212.03 10.07 a1 1 0 1 0 2 0 a1 1 0 1 0 -2 0zM214.03 12.07 a1 1 0 1 0 2 0 a1 1 0 1 0 -2 0zM214.03 10.07 a1 1 0 1 0 2 0 a1 1 0 1 0 -2 0zM216.03 20.07 a1 1 0 1 0 2 0 a1 1 0 1 0 -2 0zM216.03 10.07 a1 1 0 1 0 2 0 a1 1 0 1 0 -2 0zM218.03 20.07 a1 1 0 1 0 2 0 a1 1 0 1 0 -2 0zM218.03 10.07 a1 1 0 1 0 2 0 a1 1 0 1 0 -2 0zM220.03 20.07 a1 1 0 1 0 2 0 a1 1 0 1 0 -2 0z" transform="scale(3.73)" fill="#ffffff"></path>
    </g>
    <defs>
        <mask id="SvgjsMask1002">
            <rect width="1440" height="560" fill="#ffffff"></rect>
        </mask>
    </defs>
</svg>