<svg xmlns="http://www.w3.org/2000/svg" version="1.1" xmlns:xlink="http://www.w3.org/1999/xlink" xmlns:svgjs="http://svgjs.com/svgjs" width="1440" height="560" preserveAspectRatio="none" viewBox="0 0 1440 560">
    <g mask="url(&quot;#SvgjsMask1131&quot;)" fill="none">
        <path d="M360.03 136.07 a1 1 0 1 0 2 0 a1 1 0 1 0 -2 0zM362.03 136.07 a1 1 0 1 0 2 0 a1 1 0 1 0 -2 0zM362.03 134.07 a1 1 0 1 0 2 0 a1 1 0 1 0 -2 0zM364.03 132.07 a1 1 0 1 0 2 0 a1 1 0 1 0 -2 0zM366.03 132.07 a1 1 0 1 0 2 0 a1 1 0 1 0 -2 0zM366.03 126.07 a1 1 0 1 0 2 0 a1 1 0 1 0 -2 0zM368.03 130.07 a1 1 0 1 0 2 0 a1 1 0 1 0 -2 0zM368.03 128.07 a1 1 0 1 0 2 0 a1 1 0 1 0 -2 0zM370.03 128.07 a1 1 0 1 0 2 0 a1 1 0 1 0 -2 0z" transform="scale(3.73)" fill="#ffffff"></path>
    </g>
    <defs>
        <mask id="SvgjsMask1131">
            <rect width="1440" height="560" fill="#ffffff"></rect>
        </mask>
    </defs>
</svg>