<svg xmlns="http://www.w3.org/2000/svg" version="1.1" xmlns:xlink="http://www.w3.org/1999/xlink" xmlns:svgjs="http://svgjs.com/svgjs" width="1440" height="560" preserveAspectRatio="none" viewBox="0 0 1440 560">
    <g mask="url(&quot;#SvgjsMask1132&quot;)" fill="none">
        <path d="M112.03 96.07 a1 1 0 1 0 2 0 a1 1 0 1 0 -2 0zM114.03 100.07 a1 1 0 1 0 2 0 a1 1 0 1 0 -2 0zM114.03 98.07 a1 1 0 1 0 2 0 a1 1 0 1 0 -2 0zM114.03 96.07 a1 1 0 1 0 2 0 a1 1 0 1 0 -2 0zM114.03 94.07 a1 1 0 1 0 2 0 a1 1 0 1 0 -2 0zM116.03 104.07 a1 1 0 1 0 2 0 a1 1 0 1 0 -2 0zM116.03 102.07 a1 1 0 1 0 2 0 a1 1 0 1 0 -2 0zM116.03 100.07 a1 1 0 1 0 2 0 a1 1 0 1 0 -2 0zM116.03 98.07 a1 1 0 1 0 2 0 a1 1 0 1 0 -2 0zM116.03 96.07 a1 1 0 1 0 2 0 a1 1 0 1 0 -2 0zM116.03 94.07 a1 1 0 1 0 2 0 a1 1 0 1 0 -2 0zM118.03 106.07 a1 1 0 1 0 2 0 a1 1 0 1 0 -2 0zM118.03 104.07 a1 1 0 1 0 2 0 a1 1 0 1 0 -2 0zM118.03 102.07 a1 1 0 1 0 2 0 a1 1 0 1 0 -2 0zM118.03 100.07 a1 1 0 1 0 2 0 a1 1 0 1 0 -2 0zM118.03 98.07 a1 1 0 1 0 2 0 a1 1 0 1 0 -2 0zM118.03 96.07 a1 1 0 1 0 2 0 a1 1 0 1 0 -2 0zM118.03 94.07 a1 1 0 1 0 2 0 a1 1 0 1 0 -2 0zM118.03 92.07 a1 1 0 1 0 2 0 a1 1 0 1 0 -2 0zM120.03 106.07 a1 1 0 1 0 2 0 a1 1 0 1 0 -2 0zM120.03 104.07 a1 1 0 1 0 2 0 a1 1 0 1 0 -2 0zM120.03 102.07 a1 1 0 1 0 2 0 a1 1 0 1 0 -2 0zM120.03 94.07 a1 1 0 1 0 2 0 a1 1 0 1 0 -2 0zM122.03 108.07 a1 1 0 1 0 2 0 a1 1 0 1 0 -2 0zM122.03 106.07 a1 1 0 1 0 2 0 a1 1 0 1 0 -2 0zM122.03 104.07 a1 1 0 1 0 2 0 a1 1 0 1 0 -2 0zM122.03 102.07 a1 1 0 1 0 2 0 a1 1 0 1 0 -2 0z" transform="scale(3.73)" fill="#ffffff"></path>
    </g>
    <defs>
        <mask id="SvgjsMask1132">
            <rect width="1440" height="560" fill="#ffffff"></rect>
        </mask>
    </defs>
</svg>