<svg xmlns="http://www.w3.org/2000/svg" version="1.1" xmlns:xlink="http://www.w3.org/1999/xlink" xmlns:svgjs="http://svgjs.com/svgjs" width="1440" height="560" preserveAspectRatio="none" viewBox="0 0 1440 560">
    <g mask="url(&quot;#SvgjsMask1089&quot;)" fill="none">
        <path d="M48.03 118.07 a1 1 0 1 0 2 0 a1 1 0 1 0 -2 0zM44.03 114.07 a1 1 0 1 0 2 0 a1 1 0 1 0 -2 0zM42.03 114.07 a1 1 0 1 0 2 0 a1 1 0 1 0 -2 0zM58.03 114.07 a1 1 0 1 0 2 0 a1 1 0 1 0 -2 0zM40.03 112.07 a1 1 0 1 0 2 0 a1 1 0 1 0 -2 0zM56.03 112.07 a1 1 0 1 0 2 0 a1 1 0 1 0 -2 0zM54.03 112.07 a1 1 0 1 0 2 0 a1 1 0 1 0 -2 0zM52.03 112.07 a1 1 0 1 0 2 0 a1 1 0 1 0 -2 0zM52.03 110.07 a1 1 0 1 0 2 0 a1 1 0 1 0 -2 0zM54.03 110.07 a1 1 0 1 0 2 0 a1 1 0 1 0 -2 0zM50.03 110.07 a1 1 0 1 0 2 0 a1 1 0 1 0 -2 0zM54.03 108.07 a1 1 0 1 0 2 0 a1 1 0 1 0 -2 0zM56.03 108.07 a1 1 0 1 0 2 0 a1 1 0 1 0 -2 0zM52.03 108.07 a1 1 0 1 0 2 0 a1 1 0 1 0 -2 0zM48.03 108.07 a1 1 0 1 0 2 0 a1 1 0 1 0 -2 0zM42.03 108.07 a1 1 0 1 0 2 0 a1 1 0 1 0 -2 0zM50.03 108.07 a1 1 0 1 0 2 0 a1 1 0 1 0 -2 0zM46.03 108.07 a1 1 0 1 0 2 0 a1 1 0 1 0 -2 0zM42.03 106.07 a1 1 0 1 0 2 0 a1 1 0 1 0 -2 0zM38.03 106.07 a1 1 0 1 0 2 0 a1 1 0 1 0 -2 0zM40.03 106.07 a1 1 0 1 0 2 0 a1 1 0 1 0 -2 0zM48.03 106.07 a1 1 0 1 0 2 0 a1 1 0 1 0 -2 0zM46.03 106.07 a1 1 0 1 0 2 0 a1 1 0 1 0 -2 0zM50.03 106.07 a1 1 0 1 0 2 0 a1 1 0 1 0 -2 0zM52.03 106.07 a1 1 0 1 0 2 0 a1 1 0 1 0 -2 0zM44.03 106.07 a1 1 0 1 0 2 0 a1 1 0 1 0 -2 0zM44.03 104.07 a1 1 0 1 0 2 0 a1 1 0 1 0 -2 0zM46.03 104.07 a1 1 0 1 0 2 0 a1 1 0 1 0 -2 0zM48.03 104.07 a1 1 0 1 0 2 0 a1 1 0 1 0 -2 0zM50.03 104.07 a1 1 0 1 0 2 0 a1 1 0 1 0 -2 0zM54.03 100.07 a1 1 0 1 0 2 0 a1 1 0 1 0 -2 0zM52.03 100.07 a1 1 0 1 0 2 0 a1 1 0 1 0 -2 0zM52.03 98.07 a1 1 0 1 0 2 0 a1 1 0 1 0 -2 0z" transform="scale(3.73)" fill="#ffffff"></path>
    </g>
    <defs>
        <mask id="SvgjsMask1089">
            <rect width="1440" height="560" fill="#ffffff"></rect>
        </mask>
    </defs>
</svg>