<svg xmlns="http://www.w3.org/2000/svg" version="1.1" xmlns:xlink="http://www.w3.org/1999/xlink" xmlns:svgjs="http://svgjs.com/svgjs" width="1440" height="560" preserveAspectRatio="none" viewBox="0 0 1440 560">
    <g mask="url(&quot;#SvgjsMask1010&quot;)" fill="none">
        <path d="M208.03 38.07 a1 1 0 1 0 2 0 a1 1 0 1 0 -2 0zM208.03 36.07 a1 1 0 1 0 2 0 a1 1 0 1 0 -2 0zM210.03 40.07 a1 1 0 1 0 2 0 a1 1 0 1 0 -2 0zM210.03 38.07 a1 1 0 1 0 2 0 a1 1 0 1 0 -2 0zM210.03 36.07 a1 1 0 1 0 2 0 a1 1 0 1 0 -2 0zM212.03 40.07 a1 1 0 1 0 2 0 a1 1 0 1 0 -2 0zM212.03 38.07 a1 1 0 1 0 2 0 a1 1 0 1 0 -2 0zM212.03 36.07 a1 1 0 1 0 2 0 a1 1 0 1 0 -2 0zM214.03 40.07 a1 1 0 1 0 2 0 a1 1 0 1 0 -2 0zM214.03 38.07 a1 1 0 1 0 2 0 a1 1 0 1 0 -2 0zM214.03 36.07 a1 1 0 1 0 2 0 a1 1 0 1 0 -2 0z" transform="scale(3.73)" fill="#ffffff"></path>
    </g>
    <defs>
        <mask id="SvgjsMask1010">
            <rect width="1440" height="560" fill="#ffffff"></rect>
        </mask>
    </defs>
</svg>