<svg xmlns="http://www.w3.org/2000/svg" version="1.1" xmlns:xlink="http://www.w3.org/1999/xlink" xmlns:svgjs="http://svgjs.com/svgjs" width="1440" height="560" preserveAspectRatio="none" viewBox="0 0 1440 560">
    <g mask="url(&quot;#SvgjsMask1032&quot;)" fill="none">
        <path d="M14.03 24.07 a1 1 0 1 0 2 0 a1 1 0 1 0 -2 0zM14.03 22.07 a1 1 0 1 0 2 0 a1 1 0 1 0 -2 0zM16.03 24.07 a1 1 0 1 0 2 0 a1 1 0 1 0 -2 0zM18.03 24.07 a1 1 0 1 0 2 0 a1 1 0 1 0 -2 0zM20.03 24.07 a1 1 0 1 0 2 0 a1 1 0 1 0 -2 0zM220.03 32.07 a1 1 0 1 0 2 0 a1 1 0 1 0 -2 0zM222.03 34.07 a1 1 0 1 0 2 0 a1 1 0 1 0 -2 0zM222.03 32.07 a1 1 0 1 0 2 0 a1 1 0 1 0 -2 0zM222.03 24.07 a1 1 0 1 0 2 0 a1 1 0 1 0 -2 0zM222.03 22.07 a1 1 0 1 0 2 0 a1 1 0 1 0 -2 0zM224.03 36.07 a1 1 0 1 0 2 0 a1 1 0 1 0 -2 0zM224.03 34.07 a1 1 0 1 0 2 0 a1 1 0 1 0 -2 0zM224.03 32.07 a1 1 0 1 0 2 0 a1 1 0 1 0 -2 0zM224.03 30.07 a1 1 0 1 0 2 0 a1 1 0 1 0 -2 0zM224.03 28.07 a1 1 0 1 0 2 0 a1 1 0 1 0 -2 0zM224.03 26.07 a1 1 0 1 0 2 0 a1 1 0 1 0 -2 0zM224.03 24.07 a1 1 0 1 0 2 0 a1 1 0 1 0 -2 0zM224.03 22.07 a1 1 0 1 0 2 0 a1 1 0 1 0 -2 0zM226.03 44.07 a1 1 0 1 0 2 0 a1 1 0 1 0 -2 0zM226.03 36.07 a1 1 0 1 0 2 0 a1 1 0 1 0 -2 0zM226.03 34.07 a1 1 0 1 0 2 0 a1 1 0 1 0 -2 0zM226.03 32.07 a1 1 0 1 0 2 0 a1 1 0 1 0 -2 0zM226.03 30.07 a1 1 0 1 0 2 0 a1 1 0 1 0 -2 0zM226.03 28.07 a1 1 0 1 0 2 0 a1 1 0 1 0 -2 0zM226.03 26.07 a1 1 0 1 0 2 0 a1 1 0 1 0 -2 0zM226.03 24.07 a1 1 0 1 0 2 0 a1 1 0 1 0 -2 0zM226.03 22.07 a1 1 0 1 0 2 0 a1 1 0 1 0 -2 0zM228.03 38.07 a1 1 0 1 0 2 0 a1 1 0 1 0 -2 0zM228.03 36.07 a1 1 0 1 0 2 0 a1 1 0 1 0 -2 0zM228.03 34.07 a1 1 0 1 0 2 0 a1 1 0 1 0 -2 0zM228.03 32.07 a1 1 0 1 0 2 0 a1 1 0 1 0 -2 0zM228.03 30.07 a1 1 0 1 0 2 0 a1 1 0 1 0 -2 0zM228.03 28.07 a1 1 0 1 0 2 0 a1 1 0 1 0 -2 0zM228.03 26.07 a1 1 0 1 0 2 0 a1 1 0 1 0 -2 0zM228.03 22.07 a1 1 0 1 0 2 0 a1 1 0 1 0 -2 0zM230.03 44.07 a1 1 0 1 0 2 0 a1 1 0 1 0 -2 0zM230.03 40.07 a1 1 0 1 0 2 0 a1 1 0 1 0 -2 0zM230.03 38.07 a1 1 0 1 0 2 0 a1 1 0 1 0 -2 0zM230.03 36.07 a1 1 0 1 0 2 0 a1 1 0 1 0 -2 0zM230.03 34.07 a1 1 0 1 0 2 0 a1 1 0 1 0 -2 0zM230.03 32.07 a1 1 0 1 0 2 0 a1 1 0 1 0 -2 0zM230.03 30.07 a1 1 0 1 0 2 0 a1 1 0 1 0 -2 0zM230.03 28.07 a1 1 0 1 0 2 0 a1 1 0 1 0 -2 0zM230.03 22.07 a1 1 0 1 0 2 0 a1 1 0 1 0 -2 0zM232.03 46.07 a1 1 0 1 0 2 0 a1 1 0 1 0 -2 0zM232.03 44.07 a1 1 0 1 0 2 0 a1 1 0 1 0 -2 0zM232.03 42.07 a1 1 0 1 0 2 0 a1 1 0 1 0 -2 0zM232.03 40.07 a1 1 0 1 0 2 0 a1 1 0 1 0 -2 0zM232.03 38.07 a1 1 0 1 0 2 0 a1 1 0 1 0 -2 0zM232.03 36.07 a1 1 0 1 0 2 0 a1 1 0 1 0 -2 0zM232.03 34.07 a1 1 0 1 0 2 0 a1 1 0 1 0 -2 0zM232.03 32.07 a1 1 0 1 0 2 0 a1 1 0 1 0 -2 0zM232.03 30.07 a1 1 0 1 0 2 0 a1 1 0 1 0 -2 0zM232.03 28.07 a1 1 0 1 0 2 0 a1 1 0 1 0 -2 0zM232.03 26.07 a1 1 0 1 0 2 0 a1 1 0 1 0 -2 0zM232.03 22.07 a1 1 0 1 0 2 0 a1 1 0 1 0 -2 0zM234.03 46.07 a1 1 0 1 0 2 0 a1 1 0 1 0 -2 0zM234.03 44.07 a1 1 0 1 0 2 0 a1 1 0 1 0 -2 0zM234.03 42.07 a1 1 0 1 0 2 0 a1 1 0 1 0 -2 0zM234.03 40.07 a1 1 0 1 0 2 0 a1 1 0 1 0 -2 0zM234.03 38.07 a1 1 0 1 0 2 0 a1 1 0 1 0 -2 0zM234.03 36.07 a1 1 0 1 0 2 0 a1 1 0 1 0 -2 0zM234.03 34.07 a1 1 0 1 0 2 0 a1 1 0 1 0 -2 0zM234.03 32.07 a1 1 0 1 0 2 0 a1 1 0 1 0 -2 0zM234.03 30.07 a1 1 0 1 0 2 0 a1 1 0 1 0 -2 0zM234.03 28.07 a1 1 0 1 0 2 0 a1 1 0 1 0 -2 0zM234.03 26.07 a1 1 0 1 0 2 0 a1 1 0 1 0 -2 0zM234.03 24.07 a1 1 0 1 0 2 0 a1 1 0 1 0 -2 0zM236.03 46.07 a1 1 0 1 0 2 0 a1 1 0 1 0 -2 0zM236.03 44.07 a1 1 0 1 0 2 0 a1 1 0 1 0 -2 0zM236.03 42.07 a1 1 0 1 0 2 0 a1 1 0 1 0 -2 0zM236.03 40.07 a1 1 0 1 0 2 0 a1 1 0 1 0 -2 0zM236.03 38.07 a1 1 0 1 0 2 0 a1 1 0 1 0 -2 0zM236.03 36.07 a1 1 0 1 0 2 0 a1 1 0 1 0 -2 0zM236.03 34.07 a1 1 0 1 0 2 0 a1 1 0 1 0 -2 0zM236.03 32.07 a1 1 0 1 0 2 0 a1 1 0 1 0 -2 0zM236.03 30.07 a1 1 0 1 0 2 0 a1 1 0 1 0 -2 0zM236.03 28.07 a1 1 0 1 0 2 0 a1 1 0 1 0 -2 0zM236.03 26.07 a1 1 0 1 0 2 0 a1 1 0 1 0 -2 0zM236.03 24.07 a1 1 0 1 0 2 0 a1 1 0 1 0 -2 0zM238.03 46.07 a1 1 0 1 0 2 0 a1 1 0 1 0 -2 0zM238.03 44.07 a1 1 0 1 0 2 0 a1 1 0 1 0 -2 0zM238.03 42.07 a1 1 0 1 0 2 0 a1 1 0 1 0 -2 0zM238.03 40.07 a1 1 0 1 0 2 0 a1 1 0 1 0 -2 0zM238.03 38.07 a1 1 0 1 0 2 0 a1 1 0 1 0 -2 0zM238.03 36.07 a1 1 0 1 0 2 0 a1 1 0 1 0 -2 0zM238.03 34.07 a1 1 0 1 0 2 0 a1 1 0 1 0 -2 0zM238.03 32.07 a1 1 0 1 0 2 0 a1 1 0 1 0 -2 0zM238.03 30.07 a1 1 0 1 0 2 0 a1 1 0 1 0 -2 0zM238.03 28.07 a1 1 0 1 0 2 0 a1 1 0 1 0 -2 0zM238.03 26.07 a1 1 0 1 0 2 0 a1 1 0 1 0 -2 0zM238.03 24.07 a1 1 0 1 0 2 0 a1 1 0 1 0 -2 0zM238.03 22.07 a1 1 0 1 0 2 0 a1 1 0 1 0 -2 0zM240.03 48.07 a1 1 0 1 0 2 0 a1 1 0 1 0 -2 0zM240.03 44.07 a1 1 0 1 0 2 0 a1 1 0 1 0 -2 0zM240.03 38.07 a1 1 0 1 0 2 0 a1 1 0 1 0 -2 0zM240.03 36.07 a1 1 0 1 0 2 0 a1 1 0 1 0 -2 0zM240.03 34.07 a1 1 0 1 0 2 0 a1 1 0 1 0 -2 0zM240.03 32.07 a1 1 0 1 0 2 0 a1 1 0 1 0 -2 0zM240.03 30.07 a1 1 0 1 0 2 0 a1 1 0 1 0 -2 0zM240.03 28.07 a1 1 0 1 0 2 0 a1 1 0 1 0 -2 0zM240.03 26.07 a1 1 0 1 0 2 0 a1 1 0 1 0 -2 0zM240.03 24.07 a1 1 0 1 0 2 0 a1 1 0 1 0 -2 0zM242.03 38.07 a1 1 0 1 0 2 0 a1 1 0 1 0 -2 0zM242.03 36.07 a1 1 0 1 0 2 0 a1 1 0 1 0 -2 0zM242.03 34.07 a1 1 0 1 0 2 0 a1 1 0 1 0 -2 0zM242.03 32.07 a1 1 0 1 0 2 0 a1 1 0 1 0 -2 0zM242.03 30.07 a1 1 0 1 0 2 0 a1 1 0 1 0 -2 0zM242.03 28.07 a1 1 0 1 0 2 0 a1 1 0 1 0 -2 0zM242.03 26.07 a1 1 0 1 0 2 0 a1 1 0 1 0 -2 0zM242.03 24.07 a1 1 0 1 0 2 0 a1 1 0 1 0 -2 0zM242.03 22.07 a1 1 0 1 0 2 0 a1 1 0 1 0 -2 0zM244.03 38.07 a1 1 0 1 0 2 0 a1 1 0 1 0 -2 0zM244.03 36.07 a1 1 0 1 0 2 0 a1 1 0 1 0 -2 0zM244.03 34.07 a1 1 0 1 0 2 0 a1 1 0 1 0 -2 0zM244.03 32.07 a1 1 0 1 0 2 0 a1 1 0 1 0 -2 0zM244.03 30.07 a1 1 0 1 0 2 0 a1 1 0 1 0 -2 0zM244.03 28.07 a1 1 0 1 0 2 0 a1 1 0 1 0 -2 0zM244.03 26.07 a1 1 0 1 0 2 0 a1 1 0 1 0 -2 0zM244.03 24.07 a1 1 0 1 0 2 0 a1 1 0 1 0 -2 0zM244.03 22.07 a1 1 0 1 0 2 0 a1 1 0 1 0 -2 0zM244.03 18.07 a1 1 0 1 0 2 0 a1 1 0 1 0 -2 0zM246.03 38.07 a1 1 0 1 0 2 0 a1 1 0 1 0 -2 0zM246.03 36.07 a1 1 0 1 0 2 0 a1 1 0 1 0 -2 0zM246.03 34.07 a1 1 0 1 0 2 0 a1 1 0 1 0 -2 0zM246.03 32.07 a1 1 0 1 0 2 0 a1 1 0 1 0 -2 0zM246.03 30.07 a1 1 0 1 0 2 0 a1 1 0 1 0 -2 0zM246.03 28.07 a1 1 0 1 0 2 0 a1 1 0 1 0 -2 0zM246.03 26.07 a1 1 0 1 0 2 0 a1 1 0 1 0 -2 0zM246.03 24.07 a1 1 0 1 0 2 0 a1 1 0 1 0 -2 0zM246.03 22.07 a1 1 0 1 0 2 0 a1 1 0 1 0 -2 0zM246.03 18.07 a1 1 0 1 0 2 0 a1 1 0 1 0 -2 0zM248.03 38.07 a1 1 0 1 0 2 0 a1 1 0 1 0 -2 0zM248.03 36.07 a1 1 0 1 0 2 0 a1 1 0 1 0 -2 0zM248.03 34.07 a1 1 0 1 0 2 0 a1 1 0 1 0 -2 0zM248.03 32.07 a1 1 0 1 0 2 0 a1 1 0 1 0 -2 0zM248.03 30.07 a1 1 0 1 0 2 0 a1 1 0 1 0 -2 0zM248.03 28.07 a1 1 0 1 0 2 0 a1 1 0 1 0 -2 0zM248.03 26.07 a1 1 0 1 0 2 0 a1 1 0 1 0 -2 0zM248.03 24.07 a1 1 0 1 0 2 0 a1 1 0 1 0 -2 0zM248.03 22.07 a1 1 0 1 0 2 0 a1 1 0 1 0 -2 0zM248.03 16.07 a1 1 0 1 0 2 0 a1 1 0 1 0 -2 0zM250.03 38.07 a1 1 0 1 0 2 0 a1 1 0 1 0 -2 0zM250.03 36.07 a1 1 0 1 0 2 0 a1 1 0 1 0 -2 0zM250.03 34.07 a1 1 0 1 0 2 0 a1 1 0 1 0 -2 0zM250.03 32.07 a1 1 0 1 0 2 0 a1 1 0 1 0 -2 0zM250.03 30.07 a1 1 0 1 0 2 0 a1 1 0 1 0 -2 0zM250.03 28.07 a1 1 0 1 0 2 0 a1 1 0 1 0 -2 0zM250.03 26.07 a1 1 0 1 0 2 0 a1 1 0 1 0 -2 0zM250.03 24.07 a1 1 0 1 0 2 0 a1 1 0 1 0 -2 0zM250.03 22.07 a1 1 0 1 0 2 0 a1 1 0 1 0 -2 0zM252.03 38.07 a1 1 0 1 0 2 0 a1 1 0 1 0 -2 0zM252.03 36.07 a1 1 0 1 0 2 0 a1 1 0 1 0 -2 0zM252.03 34.07 a1 1 0 1 0 2 0 a1 1 0 1 0 -2 0zM252.03 32.07 a1 1 0 1 0 2 0 a1 1 0 1 0 -2 0zM252.03 30.07 a1 1 0 1 0 2 0 a1 1 0 1 0 -2 0zM252.03 28.07 a1 1 0 1 0 2 0 a1 1 0 1 0 -2 0zM252.03 26.07 a1 1 0 1 0 2 0 a1 1 0 1 0 -2 0zM252.03 24.07 a1 1 0 1 0 2 0 a1 1 0 1 0 -2 0zM252.03 22.07 a1 1 0 1 0 2 0 a1 1 0 1 0 -2 0zM252.03 20.07 a1 1 0 1 0 2 0 a1 1 0 1 0 -2 0zM254.03 36.07 a1 1 0 1 0 2 0 a1 1 0 1 0 -2 0zM254.03 34.07 a1 1 0 1 0 2 0 a1 1 0 1 0 -2 0zM254.03 32.07 a1 1 0 1 0 2 0 a1 1 0 1 0 -2 0zM254.03 30.07 a1 1 0 1 0 2 0 a1 1 0 1 0 -2 0zM254.03 28.07 a1 1 0 1 0 2 0 a1 1 0 1 0 -2 0zM254.03 26.07 a1 1 0 1 0 2 0 a1 1 0 1 0 -2 0zM254.03 24.07 a1 1 0 1 0 2 0 a1 1 0 1 0 -2 0zM254.03 22.07 a1 1 0 1 0 2 0 a1 1 0 1 0 -2 0zM254.03 14.07 a1 1 0 1 0 2 0 a1 1 0 1 0 -2 0zM256.03 34.07 a1 1 0 1 0 2 0 a1 1 0 1 0 -2 0zM256.03 32.07 a1 1 0 1 0 2 0 a1 1 0 1 0 -2 0zM256.03 30.07 a1 1 0 1 0 2 0 a1 1 0 1 0 -2 0zM256.03 28.07 a1 1 0 1 0 2 0 a1 1 0 1 0 -2 0zM256.03 26.07 a1 1 0 1 0 2 0 a1 1 0 1 0 -2 0zM256.03 24.07 a1 1 0 1 0 2 0 a1 1 0 1 0 -2 0zM256.03 22.07 a1 1 0 1 0 2 0 a1 1 0 1 0 -2 0zM256.03 14.07 a1 1 0 1 0 2 0 a1 1 0 1 0 -2 0zM258.03 34.07 a1 1 0 1 0 2 0 a1 1 0 1 0 -2 0zM258.03 32.07 a1 1 0 1 0 2 0 a1 1 0 1 0 -2 0zM258.03 30.07 a1 1 0 1 0 2 0 a1 1 0 1 0 -2 0zM258.03 28.07 a1 1 0 1 0 2 0 a1 1 0 1 0 -2 0zM258.03 26.07 a1 1 0 1 0 2 0 a1 1 0 1 0 -2 0zM258.03 24.07 a1 1 0 1 0 2 0 a1 1 0 1 0 -2 0zM258.03 22.07 a1 1 0 1 0 2 0 a1 1 0 1 0 -2 0zM258.03 14.07 a1 1 0 1 0 2 0 a1 1 0 1 0 -2 0zM260.03 34.07 a1 1 0 1 0 2 0 a1 1 0 1 0 -2 0zM260.03 32.07 a1 1 0 1 0 2 0 a1 1 0 1 0 -2 0zM260.03 30.07 a1 1 0 1 0 2 0 a1 1 0 1 0 -2 0zM260.03 28.07 a1 1 0 1 0 2 0 a1 1 0 1 0 -2 0zM260.03 26.07 a1 1 0 1 0 2 0 a1 1 0 1 0 -2 0zM260.03 24.07 a1 1 0 1 0 2 0 a1 1 0 1 0 -2 0zM260.03 22.07 a1 1 0 1 0 2 0 a1 1 0 1 0 -2 0zM260.03 20.07 a1 1 0 1 0 2 0 a1 1 0 1 0 -2 0zM262.03 34.07 a1 1 0 1 0 2 0 a1 1 0 1 0 -2 0zM262.03 32.07 a1 1 0 1 0 2 0 a1 1 0 1 0 -2 0zM262.03 30.07 a1 1 0 1 0 2 0 a1 1 0 1 0 -2 0zM262.03 28.07 a1 1 0 1 0 2 0 a1 1 0 1 0 -2 0zM262.03 26.07 a1 1 0 1 0 2 0 a1 1 0 1 0 -2 0zM262.03 24.07 a1 1 0 1 0 2 0 a1 1 0 1 0 -2 0zM262.03 22.07 a1 1 0 1 0 2 0 a1 1 0 1 0 -2 0zM262.03 20.07 a1 1 0 1 0 2 0 a1 1 0 1 0 -2 0zM262.03 18.07 a1 1 0 1 0 2 0 a1 1 0 1 0 -2 0zM264.03 34.07 a1 1 0 1 0 2 0 a1 1 0 1 0 -2 0zM264.03 32.07 a1 1 0 1 0 2 0 a1 1 0 1 0 -2 0zM264.03 30.07 a1 1 0 1 0 2 0 a1 1 0 1 0 -2 0zM264.03 28.07 a1 1 0 1 0 2 0 a1 1 0 1 0 -2 0zM264.03 26.07 a1 1 0 1 0 2 0 a1 1 0 1 0 -2 0zM264.03 24.07 a1 1 0 1 0 2 0 a1 1 0 1 0 -2 0zM264.03 22.07 a1 1 0 1 0 2 0 a1 1 0 1 0 -2 0zM264.03 20.07 a1 1 0 1 0 2 0 a1 1 0 1 0 -2 0zM264.03 18.07 a1 1 0 1 0 2 0 a1 1 0 1 0 -2 0zM266.03 36.07 a1 1 0 1 0 2 0 a1 1 0 1 0 -2 0zM266.03 34.07 a1 1 0 1 0 2 0 a1 1 0 1 0 -2 0zM266.03 32.07 a1 1 0 1 0 2 0 a1 1 0 1 0 -2 0zM266.03 30.07 a1 1 0 1 0 2 0 a1 1 0 1 0 -2 0zM266.03 28.07 a1 1 0 1 0 2 0 a1 1 0 1 0 -2 0zM266.03 26.07 a1 1 0 1 0 2 0 a1 1 0 1 0 -2 0zM266.03 24.07 a1 1 0 1 0 2 0 a1 1 0 1 0 -2 0zM266.03 20.07 a1 1 0 1 0 2 0 a1 1 0 1 0 -2 0zM268.03 34.07 a1 1 0 1 0 2 0 a1 1 0 1 0 -2 0zM268.03 32.07 a1 1 0 1 0 2 0 a1 1 0 1 0 -2 0zM268.03 30.07 a1 1 0 1 0 2 0 a1 1 0 1 0 -2 0zM268.03 28.07 a1 1 0 1 0 2 0 a1 1 0 1 0 -2 0zM268.03 26.07 a1 1 0 1 0 2 0 a1 1 0 1 0 -2 0zM268.03 24.07 a1 1 0 1 0 2 0 a1 1 0 1 0 -2 0zM268.03 22.07 a1 1 0 1 0 2 0 a1 1 0 1 0 -2 0zM268.03 20.07 a1 1 0 1 0 2 0 a1 1 0 1 0 -2 0zM270.03 36.07 a1 1 0 1 0 2 0 a1 1 0 1 0 -2 0zM270.03 34.07 a1 1 0 1 0 2 0 a1 1 0 1 0 -2 0zM270.03 32.07 a1 1 0 1 0 2 0 a1 1 0 1 0 -2 0zM270.03 30.07 a1 1 0 1 0 2 0 a1 1 0 1 0 -2 0zM270.03 28.07 a1 1 0 1 0 2 0 a1 1 0 1 0 -2 0zM270.03 26.07 a1 1 0 1 0 2 0 a1 1 0 1 0 -2 0zM270.03 24.07 a1 1 0 1 0 2 0 a1 1 0 1 0 -2 0zM270.03 22.07 a1 1 0 1 0 2 0 a1 1 0 1 0 -2 0zM270.03 20.07 a1 1 0 1 0 2 0 a1 1 0 1 0 -2 0zM272.03 38.07 a1 1 0 1 0 2 0 a1 1 0 1 0 -2 0zM272.03 36.07 a1 1 0 1 0 2 0 a1 1 0 1 0 -2 0zM272.03 34.07 a1 1 0 1 0 2 0 a1 1 0 1 0 -2 0zM272.03 32.07 a1 1 0 1 0 2 0 a1 1 0 1 0 -2 0zM272.03 30.07 a1 1 0 1 0 2 0 a1 1 0 1 0 -2 0zM272.03 28.07 a1 1 0 1 0 2 0 a1 1 0 1 0 -2 0zM272.03 26.07 a1 1 0 1 0 2 0 a1 1 0 1 0 -2 0zM272.03 24.07 a1 1 0 1 0 2 0 a1 1 0 1 0 -2 0zM272.03 22.07 a1 1 0 1 0 2 0 a1 1 0 1 0 -2 0zM272.03 20.07 a1 1 0 1 0 2 0 a1 1 0 1 0 -2 0zM272.03 18.07 a1 1 0 1 0 2 0 a1 1 0 1 0 -2 0zM274.03 38.07 a1 1 0 1 0 2 0 a1 1 0 1 0 -2 0zM274.03 36.07 a1 1 0 1 0 2 0 a1 1 0 1 0 -2 0zM274.03 34.07 a1 1 0 1 0 2 0 a1 1 0 1 0 -2 0zM274.03 32.07 a1 1 0 1 0 2 0 a1 1 0 1 0 -2 0zM274.03 30.07 a1 1 0 1 0 2 0 a1 1 0 1 0 -2 0zM274.03 28.07 a1 1 0 1 0 2 0 a1 1 0 1 0 -2 0zM274.03 26.07 a1 1 0 1 0 2 0 a1 1 0 1 0 -2 0zM274.03 24.07 a1 1 0 1 0 2 0 a1 1 0 1 0 -2 0zM274.03 22.07 a1 1 0 1 0 2 0 a1 1 0 1 0 -2 0zM274.03 20.07 a1 1 0 1 0 2 0 a1 1 0 1 0 -2 0zM276.03 38.07 a1 1 0 1 0 2 0 a1 1 0 1 0 -2 0zM276.03 36.07 a1 1 0 1 0 2 0 a1 1 0 1 0 -2 0zM276.03 34.07 a1 1 0 1 0 2 0 a1 1 0 1 0 -2 0zM276.03 32.07 a1 1 0 1 0 2 0 a1 1 0 1 0 -2 0zM276.03 30.07 a1 1 0 1 0 2 0 a1 1 0 1 0 -2 0zM276.03 28.07 a1 1 0 1 0 2 0 a1 1 0 1 0 -2 0zM276.03 26.07 a1 1 0 1 0 2 0 a1 1 0 1 0 -2 0zM276.03 24.07 a1 1 0 1 0 2 0 a1 1 0 1 0 -2 0zM276.03 22.07 a1 1 0 1 0 2 0 a1 1 0 1 0 -2 0zM276.03 20.07 a1 1 0 1 0 2 0 a1 1 0 1 0 -2 0zM276.03 18.07 a1 1 0 1 0 2 0 a1 1 0 1 0 -2 0zM276.03 16.07 a1 1 0 1 0 2 0 a1 1 0 1 0 -2 0zM278.03 40.07 a1 1 0 1 0 2 0 a1 1 0 1 0 -2 0zM278.03 38.07 a1 1 0 1 0 2 0 a1 1 0 1 0 -2 0zM278.03 36.07 a1 1 0 1 0 2 0 a1 1 0 1 0 -2 0zM278.03 34.07 a1 1 0 1 0 2 0 a1 1 0 1 0 -2 0zM278.03 32.07 a1 1 0 1 0 2 0 a1 1 0 1 0 -2 0zM278.03 30.07 a1 1 0 1 0 2 0 a1 1 0 1 0 -2 0zM278.03 28.07 a1 1 0 1 0 2 0 a1 1 0 1 0 -2 0zM278.03 26.07 a1 1 0 1 0 2 0 a1 1 0 1 0 -2 0zM278.03 24.07 a1 1 0 1 0 2 0 a1 1 0 1 0 -2 0zM278.03 22.07 a1 1 0 1 0 2 0 a1 1 0 1 0 -2 0zM278.03 20.07 a1 1 0 1 0 2 0 a1 1 0 1 0 -2 0zM278.03 18.07 a1 1 0 1 0 2 0 a1 1 0 1 0 -2 0zM280.03 40.07 a1 1 0 1 0 2 0 a1 1 0 1 0 -2 0zM280.03 38.07 a1 1 0 1 0 2 0 a1 1 0 1 0 -2 0zM280.03 36.07 a1 1 0 1 0 2 0 a1 1 0 1 0 -2 0zM280.03 34.07 a1 1 0 1 0 2 0 a1 1 0 1 0 -2 0zM280.03 32.07 a1 1 0 1 0 2 0 a1 1 0 1 0 -2 0zM280.03 30.07 a1 1 0 1 0 2 0 a1 1 0 1 0 -2 0zM280.03 28.07 a1 1 0 1 0 2 0 a1 1 0 1 0 -2 0zM280.03 26.07 a1 1 0 1 0 2 0 a1 1 0 1 0 -2 0zM280.03 24.07 a1 1 0 1 0 2 0 a1 1 0 1 0 -2 0zM280.03 22.07 a1 1 0 1 0 2 0 a1 1 0 1 0 -2 0zM280.03 20.07 a1 1 0 1 0 2 0 a1 1 0 1 0 -2 0zM280.03 18.07 a1 1 0 1 0 2 0 a1 1 0 1 0 -2 0zM280.03 16.07 a1 1 0 1 0 2 0 a1 1 0 1 0 -2 0zM282.03 38.07 a1 1 0 1 0 2 0 a1 1 0 1 0 -2 0zM282.03 36.07 a1 1 0 1 0 2 0 a1 1 0 1 0 -2 0zM282.03 34.07 a1 1 0 1 0 2 0 a1 1 0 1 0 -2 0zM282.03 32.07 a1 1 0 1 0 2 0 a1 1 0 1 0 -2 0zM282.03 30.07 a1 1 0 1 0 2 0 a1 1 0 1 0 -2 0zM282.03 28.07 a1 1 0 1 0 2 0 a1 1 0 1 0 -2 0zM282.03 26.07 a1 1 0 1 0 2 0 a1 1 0 1 0 -2 0zM282.03 24.07 a1 1 0 1 0 2 0 a1 1 0 1 0 -2 0zM282.03 22.07 a1 1 0 1 0 2 0 a1 1 0 1 0 -2 0zM282.03 20.07 a1 1 0 1 0 2 0 a1 1 0 1 0 -2 0zM282.03 18.07 a1 1 0 1 0 2 0 a1 1 0 1 0 -2 0zM282.03 16.07 a1 1 0 1 0 2 0 a1 1 0 1 0 -2 0zM284.03 38.07 a1 1 0 1 0 2 0 a1 1 0 1 0 -2 0zM284.03 36.07 a1 1 0 1 0 2 0 a1 1 0 1 0 -2 0zM284.03 34.07 a1 1 0 1 0 2 0 a1 1 0 1 0 -2 0zM284.03 32.07 a1 1 0 1 0 2 0 a1 1 0 1 0 -2 0zM284.03 30.07 a1 1 0 1 0 2 0 a1 1 0 1 0 -2 0zM284.03 28.07 a1 1 0 1 0 2 0 a1 1 0 1 0 -2 0zM284.03 26.07 a1 1 0 1 0 2 0 a1 1 0 1 0 -2 0zM284.03 24.07 a1 1 0 1 0 2 0 a1 1 0 1 0 -2 0zM284.03 22.07 a1 1 0 1 0 2 0 a1 1 0 1 0 -2 0zM284.03 20.07 a1 1 0 1 0 2 0 a1 1 0 1 0 -2 0zM284.03 18.07 a1 1 0 1 0 2 0 a1 1 0 1 0 -2 0zM284.03 16.07 a1 1 0 1 0 2 0 a1 1 0 1 0 -2 0zM284.03 10.07 a1 1 0 1 0 2 0 a1 1 0 1 0 -2 0zM286.03 38.07 a1 1 0 1 0 2 0 a1 1 0 1 0 -2 0zM286.03 36.07 a1 1 0 1 0 2 0 a1 1 0 1 0 -2 0zM286.03 34.07 a1 1 0 1 0 2 0 a1 1 0 1 0 -2 0zM286.03 32.07 a1 1 0 1 0 2 0 a1 1 0 1 0 -2 0zM286.03 30.07 a1 1 0 1 0 2 0 a1 1 0 1 0 -2 0zM286.03 28.07 a1 1 0 1 0 2 0 a1 1 0 1 0 -2 0zM286.03 26.07 a1 1 0 1 0 2 0 a1 1 0 1 0 -2 0zM286.03 24.07 a1 1 0 1 0 2 0 a1 1 0 1 0 -2 0zM286.03 22.07 a1 1 0 1 0 2 0 a1 1 0 1 0 -2 0zM286.03 20.07 a1 1 0 1 0 2 0 a1 1 0 1 0 -2 0zM286.03 18.07 a1 1 0 1 0 2 0 a1 1 0 1 0 -2 0zM286.03 16.07 a1 1 0 1 0 2 0 a1 1 0 1 0 -2 0zM286.03 14.07 a1 1 0 1 0 2 0 a1 1 0 1 0 -2 0zM286.03 10.07 a1 1 0 1 0 2 0 a1 1 0 1 0 -2 0zM288.03 40.07 a1 1 0 1 0 2 0 a1 1 0 1 0 -2 0zM288.03 38.07 a1 1 0 1 0 2 0 a1 1 0 1 0 -2 0zM288.03 36.07 a1 1 0 1 0 2 0 a1 1 0 1 0 -2 0zM288.03 34.07 a1 1 0 1 0 2 0 a1 1 0 1 0 -2 0zM288.03 32.07 a1 1 0 1 0 2 0 a1 1 0 1 0 -2 0zM288.03 30.07 a1 1 0 1 0 2 0 a1 1 0 1 0 -2 0zM288.03 28.07 a1 1 0 1 0 2 0 a1 1 0 1 0 -2 0zM288.03 26.07 a1 1 0 1 0 2 0 a1 1 0 1 0 -2 0zM288.03 24.07 a1 1 0 1 0 2 0 a1 1 0 1 0 -2 0zM288.03 22.07 a1 1 0 1 0 2 0 a1 1 0 1 0 -2 0zM288.03 20.07 a1 1 0 1 0 2 0 a1 1 0 1 0 -2 0zM288.03 18.07 a1 1 0 1 0 2 0 a1 1 0 1 0 -2 0zM288.03 16.07 a1 1 0 1 0 2 0 a1 1 0 1 0 -2 0zM288.03 14.07 a1 1 0 1 0 2 0 a1 1 0 1 0 -2 0zM288.03 10.07 a1 1 0 1 0 2 0 a1 1 0 1 0 -2 0zM290.03 38.07 a1 1 0 1 0 2 0 a1 1 0 1 0 -2 0zM290.03 36.07 a1 1 0 1 0 2 0 a1 1 0 1 0 -2 0zM290.03 34.07 a1 1 0 1 0 2 0 a1 1 0 1 0 -2 0zM290.03 32.07 a1 1 0 1 0 2 0 a1 1 0 1 0 -2 0zM290.03 30.07 a1 1 0 1 0 2 0 a1 1 0 1 0 -2 0zM290.03 28.07 a1 1 0 1 0 2 0 a1 1 0 1 0 -2 0zM290.03 26.07 a1 1 0 1 0 2 0 a1 1 0 1 0 -2 0zM290.03 24.07 a1 1 0 1 0 2 0 a1 1 0 1 0 -2 0zM290.03 22.07 a1 1 0 1 0 2 0 a1 1 0 1 0 -2 0zM290.03 20.07 a1 1 0 1 0 2 0 a1 1 0 1 0 -2 0zM290.03 18.07 a1 1 0 1 0 2 0 a1 1 0 1 0 -2 0zM290.03 16.07 a1 1 0 1 0 2 0 a1 1 0 1 0 -2 0zM290.03 14.07 a1 1 0 1 0 2 0 a1 1 0 1 0 -2 0zM292.03 38.07 a1 1 0 1 0 2 0 a1 1 0 1 0 -2 0zM292.03 36.07 a1 1 0 1 0 2 0 a1 1 0 1 0 -2 0zM292.03 34.07 a1 1 0 1 0 2 0 a1 1 0 1 0 -2 0zM292.03 32.07 a1 1 0 1 0 2 0 a1 1 0 1 0 -2 0zM292.03 30.07 a1 1 0 1 0 2 0 a1 1 0 1 0 -2 0zM292.03 28.07 a1 1 0 1 0 2 0 a1 1 0 1 0 -2 0zM292.03 26.07 a1 1 0 1 0 2 0 a1 1 0 1 0 -2 0zM292.03 24.07 a1 1 0 1 0 2 0 a1 1 0 1 0 -2 0zM292.03 22.07 a1 1 0 1 0 2 0 a1 1 0 1 0 -2 0zM292.03 20.07 a1 1 0 1 0 2 0 a1 1 0 1 0 -2 0zM292.03 18.07 a1 1 0 1 0 2 0 a1 1 0 1 0 -2 0zM292.03 16.07 a1 1 0 1 0 2 0 a1 1 0 1 0 -2 0zM292.03 14.07 a1 1 0 1 0 2 0 a1 1 0 1 0 -2 0zM292.03 12.07 a1 1 0 1 0 2 0 a1 1 0 1 0 -2 0zM294.03 38.07 a1 1 0 1 0 2 0 a1 1 0 1 0 -2 0zM294.03 36.07 a1 1 0 1 0 2 0 a1 1 0 1 0 -2 0zM294.03 34.07 a1 1 0 1 0 2 0 a1 1 0 1 0 -2 0zM294.03 32.07 a1 1 0 1 0 2 0 a1 1 0 1 0 -2 0zM294.03 30.07 a1 1 0 1 0 2 0 a1 1 0 1 0 -2 0zM294.03 28.07 a1 1 0 1 0 2 0 a1 1 0 1 0 -2 0zM294.03 26.07 a1 1 0 1 0 2 0 a1 1 0 1 0 -2 0zM294.03 24.07 a1 1 0 1 0 2 0 a1 1 0 1 0 -2 0zM294.03 22.07 a1 1 0 1 0 2 0 a1 1 0 1 0 -2 0zM294.03 20.07 a1 1 0 1 0 2 0 a1 1 0 1 0 -2 0zM294.03 18.07 a1 1 0 1 0 2 0 a1 1 0 1 0 -2 0zM294.03 16.07 a1 1 0 1 0 2 0 a1 1 0 1 0 -2 0zM294.03 14.07 a1 1 0 1 0 2 0 a1 1 0 1 0 -2 0zM296.03 38.07 a1 1 0 1 0 2 0 a1 1 0 1 0 -2 0zM296.03 36.07 a1 1 0 1 0 2 0 a1 1 0 1 0 -2 0zM296.03 34.07 a1 1 0 1 0 2 0 a1 1 0 1 0 -2 0zM296.03 32.07 a1 1 0 1 0 2 0 a1 1 0 1 0 -2 0zM296.03 30.07 a1 1 0 1 0 2 0 a1 1 0 1 0 -2 0zM296.03 28.07 a1 1 0 1 0 2 0 a1 1 0 1 0 -2 0zM296.03 26.07 a1 1 0 1 0 2 0 a1 1 0 1 0 -2 0zM296.03 24.07 a1 1 0 1 0 2 0 a1 1 0 1 0 -2 0zM296.03 22.07 a1 1 0 1 0 2 0 a1 1 0 1 0 -2 0zM296.03 20.07 a1 1 0 1 0 2 0 a1 1 0 1 0 -2 0zM296.03 18.07 a1 1 0 1 0 2 0 a1 1 0 1 0 -2 0zM296.03 16.07 a1 1 0 1 0 2 0 a1 1 0 1 0 -2 0zM296.03 14.07 a1 1 0 1 0 2 0 a1 1 0 1 0 -2 0zM298.03 38.07 a1 1 0 1 0 2 0 a1 1 0 1 0 -2 0zM298.03 36.07 a1 1 0 1 0 2 0 a1 1 0 1 0 -2 0zM298.03 34.07 a1 1 0 1 0 2 0 a1 1 0 1 0 -2 0zM298.03 32.07 a1 1 0 1 0 2 0 a1 1 0 1 0 -2 0zM298.03 30.07 a1 1 0 1 0 2 0 a1 1 0 1 0 -2 0zM298.03 28.07 a1 1 0 1 0 2 0 a1 1 0 1 0 -2 0zM298.03 26.07 a1 1 0 1 0 2 0 a1 1 0 1 0 -2 0zM298.03 24.07 a1 1 0 1 0 2 0 a1 1 0 1 0 -2 0zM298.03 22.07 a1 1 0 1 0 2 0 a1 1 0 1 0 -2 0zM298.03 20.07 a1 1 0 1 0 2 0 a1 1 0 1 0 -2 0zM298.03 18.07 a1 1 0 1 0 2 0 a1 1 0 1 0 -2 0zM298.03 16.07 a1 1 0 1 0 2 0 a1 1 0 1 0 -2 0zM298.03 14.07 a1 1 0 1 0 2 0 a1 1 0 1 0 -2 0zM300.03 40.07 a1 1 0 1 0 2 0 a1 1 0 1 0 -2 0zM300.03 38.07 a1 1 0 1 0 2 0 a1 1 0 1 0 -2 0zM300.03 36.07 a1 1 0 1 0 2 0 a1 1 0 1 0 -2 0zM300.03 34.07 a1 1 0 1 0 2 0 a1 1 0 1 0 -2 0zM300.03 32.07 a1 1 0 1 0 2 0 a1 1 0 1 0 -2 0zM300.03 30.07 a1 1 0 1 0 2 0 a1 1 0 1 0 -2 0zM300.03 28.07 a1 1 0 1 0 2 0 a1 1 0 1 0 -2 0zM300.03 26.07 a1 1 0 1 0 2 0 a1 1 0 1 0 -2 0zM300.03 24.07 a1 1 0 1 0 2 0 a1 1 0 1 0 -2 0zM300.03 22.07 a1 1 0 1 0 2 0 a1 1 0 1 0 -2 0zM300.03 20.07 a1 1 0 1 0 2 0 a1 1 0 1 0 -2 0zM300.03 18.07 a1 1 0 1 0 2 0 a1 1 0 1 0 -2 0zM300.03 16.07 a1 1 0 1 0 2 0 a1 1 0 1 0 -2 0zM300.03 14.07 a1 1 0 1 0 2 0 a1 1 0 1 0 -2 0zM302.03 40.07 a1 1 0 1 0 2 0 a1 1 0 1 0 -2 0zM302.03 38.07 a1 1 0 1 0 2 0 a1 1 0 1 0 -2 0zM302.03 36.07 a1 1 0 1 0 2 0 a1 1 0 1 0 -2 0zM302.03 34.07 a1 1 0 1 0 2 0 a1 1 0 1 0 -2 0zM302.03 32.07 a1 1 0 1 0 2 0 a1 1 0 1 0 -2 0zM302.03 30.07 a1 1 0 1 0 2 0 a1 1 0 1 0 -2 0zM302.03 28.07 a1 1 0 1 0 2 0 a1 1 0 1 0 -2 0zM302.03 26.07 a1 1 0 1 0 2 0 a1 1 0 1 0 -2 0zM302.03 24.07 a1 1 0 1 0 2 0 a1 1 0 1 0 -2 0zM302.03 22.07 a1 1 0 1 0 2 0 a1 1 0 1 0 -2 0zM302.03 20.07 a1 1 0 1 0 2 0 a1 1 0 1 0 -2 0zM302.03 18.07 a1 1 0 1 0 2 0 a1 1 0 1 0 -2 0zM302.03 16.07 a1 1 0 1 0 2 0 a1 1 0 1 0 -2 0zM302.03 14.07 a1 1 0 1 0 2 0 a1 1 0 1 0 -2 0zM304.03 40.07 a1 1 0 1 0 2 0 a1 1 0 1 0 -2 0zM304.03 38.07 a1 1 0 1 0 2 0 a1 1 0 1 0 -2 0zM304.03 36.07 a1 1 0 1 0 2 0 a1 1 0 1 0 -2 0zM304.03 34.07 a1 1 0 1 0 2 0 a1 1 0 1 0 -2 0zM304.03 32.07 a1 1 0 1 0 2 0 a1 1 0 1 0 -2 0zM304.03 30.07 a1 1 0 1 0 2 0 a1 1 0 1 0 -2 0zM304.03 28.07 a1 1 0 1 0 2 0 a1 1 0 1 0 -2 0zM304.03 26.07 a1 1 0 1 0 2 0 a1 1 0 1 0 -2 0zM304.03 24.07 a1 1 0 1 0 2 0 a1 1 0 1 0 -2 0zM304.03 22.07 a1 1 0 1 0 2 0 a1 1 0 1 0 -2 0zM304.03 20.07 a1 1 0 1 0 2 0 a1 1 0 1 0 -2 0zM304.03 18.07 a1 1 0 1 0 2 0 a1 1 0 1 0 -2 0zM304.03 14.07 a1 1 0 1 0 2 0 a1 1 0 1 0 -2 0zM306.03 38.07 a1 1 0 1 0 2 0 a1 1 0 1 0 -2 0zM306.03 36.07 a1 1 0 1 0 2 0 a1 1 0 1 0 -2 0zM306.03 34.07 a1 1 0 1 0 2 0 a1 1 0 1 0 -2 0zM306.03 32.07 a1 1 0 1 0 2 0 a1 1 0 1 0 -2 0zM306.03 30.07 a1 1 0 1 0 2 0 a1 1 0 1 0 -2 0zM306.03 28.07 a1 1 0 1 0 2 0 a1 1 0 1 0 -2 0zM306.03 26.07 a1 1 0 1 0 2 0 a1 1 0 1 0 -2 0zM306.03 24.07 a1 1 0 1 0 2 0 a1 1 0 1 0 -2 0zM306.03 22.07 a1 1 0 1 0 2 0 a1 1 0 1 0 -2 0zM306.03 20.07 a1 1 0 1 0 2 0 a1 1 0 1 0 -2 0zM306.03 18.07 a1 1 0 1 0 2 0 a1 1 0 1 0 -2 0zM308.03 40.07 a1 1 0 1 0 2 0 a1 1 0 1 0 -2 0zM308.03 38.07 a1 1 0 1 0 2 0 a1 1 0 1 0 -2 0zM308.03 36.07 a1 1 0 1 0 2 0 a1 1 0 1 0 -2 0zM308.03 34.07 a1 1 0 1 0 2 0 a1 1 0 1 0 -2 0zM308.03 32.07 a1 1 0 1 0 2 0 a1 1 0 1 0 -2 0zM308.03 30.07 a1 1 0 1 0 2 0 a1 1 0 1 0 -2 0zM308.03 28.07 a1 1 0 1 0 2 0 a1 1 0 1 0 -2 0zM308.03 26.07 a1 1 0 1 0 2 0 a1 1 0 1 0 -2 0zM308.03 24.07 a1 1 0 1 0 2 0 a1 1 0 1 0 -2 0zM308.03 22.07 a1 1 0 1 0 2 0 a1 1 0 1 0 -2 0zM308.03 20.07 a1 1 0 1 0 2 0 a1 1 0 1 0 -2 0zM308.03 18.07 a1 1 0 1 0 2 0 a1 1 0 1 0 -2 0zM310.03 40.07 a1 1 0 1 0 2 0 a1 1 0 1 0 -2 0zM310.03 38.07 a1 1 0 1 0 2 0 a1 1 0 1 0 -2 0zM310.03 36.07 a1 1 0 1 0 2 0 a1 1 0 1 0 -2 0zM310.03 34.07 a1 1 0 1 0 2 0 a1 1 0 1 0 -2 0zM310.03 32.07 a1 1 0 1 0 2 0 a1 1 0 1 0 -2 0zM310.03 30.07 a1 1 0 1 0 2 0 a1 1 0 1 0 -2 0zM310.03 28.07 a1 1 0 1 0 2 0 a1 1 0 1 0 -2 0zM310.03 26.07 a1 1 0 1 0 2 0 a1 1 0 1 0 -2 0zM310.03 24.07 a1 1 0 1 0 2 0 a1 1 0 1 0 -2 0zM310.03 22.07 a1 1 0 1 0 2 0 a1 1 0 1 0 -2 0zM310.03 20.07 a1 1 0 1 0 2 0 a1 1 0 1 0 -2 0zM310.03 18.07 a1 1 0 1 0 2 0 a1 1 0 1 0 -2 0zM312.03 38.07 a1 1 0 1 0 2 0 a1 1 0 1 0 -2 0zM312.03 36.07 a1 1 0 1 0 2 0 a1 1 0 1 0 -2 0zM312.03 34.07 a1 1 0 1 0 2 0 a1 1 0 1 0 -2 0zM312.03 32.07 a1 1 0 1 0 2 0 a1 1 0 1 0 -2 0zM312.03 30.07 a1 1 0 1 0 2 0 a1 1 0 1 0 -2 0zM312.03 28.07 a1 1 0 1 0 2 0 a1 1 0 1 0 -2 0zM312.03 26.07 a1 1 0 1 0 2 0 a1 1 0 1 0 -2 0zM312.03 24.07 a1 1 0 1 0 2 0 a1 1 0 1 0 -2 0zM312.03 22.07 a1 1 0 1 0 2 0 a1 1 0 1 0 -2 0zM312.03 20.07 a1 1 0 1 0 2 0 a1 1 0 1 0 -2 0zM312.03 18.07 a1 1 0 1 0 2 0 a1 1 0 1 0 -2 0zM314.03 36.07 a1 1 0 1 0 2 0 a1 1 0 1 0 -2 0zM314.03 34.07 a1 1 0 1 0 2 0 a1 1 0 1 0 -2 0zM314.03 32.07 a1 1 0 1 0 2 0 a1 1 0 1 0 -2 0zM314.03 30.07 a1 1 0 1 0 2 0 a1 1 0 1 0 -2 0zM314.03 28.07 a1 1 0 1 0 2 0 a1 1 0 1 0 -2 0zM314.03 26.07 a1 1 0 1 0 2 0 a1 1 0 1 0 -2 0zM314.03 24.07 a1 1 0 1 0 2 0 a1 1 0 1 0 -2 0zM314.03 22.07 a1 1 0 1 0 2 0 a1 1 0 1 0 -2 0zM314.03 20.07 a1 1 0 1 0 2 0 a1 1 0 1 0 -2 0zM314.03 18.07 a1 1 0 1 0 2 0 a1 1 0 1 0 -2 0zM316.03 36.07 a1 1 0 1 0 2 0 a1 1 0 1 0 -2 0zM316.03 34.07 a1 1 0 1 0 2 0 a1 1 0 1 0 -2 0zM316.03 32.07 a1 1 0 1 0 2 0 a1 1 0 1 0 -2 0zM316.03 30.07 a1 1 0 1 0 2 0 a1 1 0 1 0 -2 0zM316.03 28.07 a1 1 0 1 0 2 0 a1 1 0 1 0 -2 0zM316.03 26.07 a1 1 0 1 0 2 0 a1 1 0 1 0 -2 0zM316.03 24.07 a1 1 0 1 0 2 0 a1 1 0 1 0 -2 0zM316.03 22.07 a1 1 0 1 0 2 0 a1 1 0 1 0 -2 0zM316.03 20.07 a1 1 0 1 0 2 0 a1 1 0 1 0 -2 0zM316.03 18.07 a1 1 0 1 0 2 0 a1 1 0 1 0 -2 0zM318.03 36.07 a1 1 0 1 0 2 0 a1 1 0 1 0 -2 0zM318.03 34.07 a1 1 0 1 0 2 0 a1 1 0 1 0 -2 0zM318.03 32.07 a1 1 0 1 0 2 0 a1 1 0 1 0 -2 0zM318.03 30.07 a1 1 0 1 0 2 0 a1 1 0 1 0 -2 0zM318.03 28.07 a1 1 0 1 0 2 0 a1 1 0 1 0 -2 0zM318.03 26.07 a1 1 0 1 0 2 0 a1 1 0 1 0 -2 0zM318.03 24.07 a1 1 0 1 0 2 0 a1 1 0 1 0 -2 0zM318.03 22.07 a1 1 0 1 0 2 0 a1 1 0 1 0 -2 0zM318.03 20.07 a1 1 0 1 0 2 0 a1 1 0 1 0 -2 0zM318.03 18.07 a1 1 0 1 0 2 0 a1 1 0 1 0 -2 0zM320.03 40.07 a1 1 0 1 0 2 0 a1 1 0 1 0 -2 0zM320.03 38.07 a1 1 0 1 0 2 0 a1 1 0 1 0 -2 0zM320.03 36.07 a1 1 0 1 0 2 0 a1 1 0 1 0 -2 0zM320.03 34.07 a1 1 0 1 0 2 0 a1 1 0 1 0 -2 0zM320.03 32.07 a1 1 0 1 0 2 0 a1 1 0 1 0 -2 0zM320.03 30.07 a1 1 0 1 0 2 0 a1 1 0 1 0 -2 0zM320.03 28.07 a1 1 0 1 0 2 0 a1 1 0 1 0 -2 0zM320.03 26.07 a1 1 0 1 0 2 0 a1 1 0 1 0 -2 0zM320.03 24.07 a1 1 0 1 0 2 0 a1 1 0 1 0 -2 0zM320.03 22.07 a1 1 0 1 0 2 0 a1 1 0 1 0 -2 0zM320.03 20.07 a1 1 0 1 0 2 0 a1 1 0 1 0 -2 0zM320.03 18.07 a1 1 0 1 0 2 0 a1 1 0 1 0 -2 0zM322.03 40.07 a1 1 0 1 0 2 0 a1 1 0 1 0 -2 0zM322.03 38.07 a1 1 0 1 0 2 0 a1 1 0 1 0 -2 0zM322.03 36.07 a1 1 0 1 0 2 0 a1 1 0 1 0 -2 0zM322.03 34.07 a1 1 0 1 0 2 0 a1 1 0 1 0 -2 0zM322.03 32.07 a1 1 0 1 0 2 0 a1 1 0 1 0 -2 0zM322.03 30.07 a1 1 0 1 0 2 0 a1 1 0 1 0 -2 0zM322.03 28.07 a1 1 0 1 0 2 0 a1 1 0 1 0 -2 0zM322.03 26.07 a1 1 0 1 0 2 0 a1 1 0 1 0 -2 0zM322.03 24.07 a1 1 0 1 0 2 0 a1 1 0 1 0 -2 0zM322.03 22.07 a1 1 0 1 0 2 0 a1 1 0 1 0 -2 0zM322.03 20.07 a1 1 0 1 0 2 0 a1 1 0 1 0 -2 0zM324.03 46.07 a1 1 0 1 0 2 0 a1 1 0 1 0 -2 0zM324.03 42.07 a1 1 0 1 0 2 0 a1 1 0 1 0 -2 0zM324.03 40.07 a1 1 0 1 0 2 0 a1 1 0 1 0 -2 0zM324.03 38.07 a1 1 0 1 0 2 0 a1 1 0 1 0 -2 0zM324.03 36.07 a1 1 0 1 0 2 0 a1 1 0 1 0 -2 0zM324.03 34.07 a1 1 0 1 0 2 0 a1 1 0 1 0 -2 0zM324.03 32.07 a1 1 0 1 0 2 0 a1 1 0 1 0 -2 0zM324.03 30.07 a1 1 0 1 0 2 0 a1 1 0 1 0 -2 0zM324.03 28.07 a1 1 0 1 0 2 0 a1 1 0 1 0 -2 0zM324.03 26.07 a1 1 0 1 0 2 0 a1 1 0 1 0 -2 0zM324.03 24.07 a1 1 0 1 0 2 0 a1 1 0 1 0 -2 0zM324.03 22.07 a1 1 0 1 0 2 0 a1 1 0 1 0 -2 0zM324.03 20.07 a1 1 0 1 0 2 0 a1 1 0 1 0 -2 0zM326.03 46.07 a1 1 0 1 0 2 0 a1 1 0 1 0 -2 0zM326.03 44.07 a1 1 0 1 0 2 0 a1 1 0 1 0 -2 0zM326.03 40.07 a1 1 0 1 0 2 0 a1 1 0 1 0 -2 0zM326.03 38.07 a1 1 0 1 0 2 0 a1 1 0 1 0 -2 0zM326.03 36.07 a1 1 0 1 0 2 0 a1 1 0 1 0 -2 0zM326.03 34.07 a1 1 0 1 0 2 0 a1 1 0 1 0 -2 0zM326.03 32.07 a1 1 0 1 0 2 0 a1 1 0 1 0 -2 0zM326.03 30.07 a1 1 0 1 0 2 0 a1 1 0 1 0 -2 0zM326.03 28.07 a1 1 0 1 0 2 0 a1 1 0 1 0 -2 0zM326.03 26.07 a1 1 0 1 0 2 0 a1 1 0 1 0 -2 0zM326.03 24.07 a1 1 0 1 0 2 0 a1 1 0 1 0 -2 0zM326.03 22.07 a1 1 0 1 0 2 0 a1 1 0 1 0 -2 0zM326.03 20.07 a1 1 0 1 0 2 0 a1 1 0 1 0 -2 0zM328.03 44.07 a1 1 0 1 0 2 0 a1 1 0 1 0 -2 0zM328.03 42.07 a1 1 0 1 0 2 0 a1 1 0 1 0 -2 0zM328.03 40.07 a1 1 0 1 0 2 0 a1 1 0 1 0 -2 0zM328.03 38.07 a1 1 0 1 0 2 0 a1 1 0 1 0 -2 0zM328.03 36.07 a1 1 0 1 0 2 0 a1 1 0 1 0 -2 0zM328.03 34.07 a1 1 0 1 0 2 0 a1 1 0 1 0 -2 0zM328.03 32.07 a1 1 0 1 0 2 0 a1 1 0 1 0 -2 0zM328.03 30.07 a1 1 0 1 0 2 0 a1 1 0 1 0 -2 0zM328.03 28.07 a1 1 0 1 0 2 0 a1 1 0 1 0 -2 0zM328.03 26.07 a1 1 0 1 0 2 0 a1 1 0 1 0 -2 0zM328.03 24.07 a1 1 0 1 0 2 0 a1 1 0 1 0 -2 0zM328.03 22.07 a1 1 0 1 0 2 0 a1 1 0 1 0 -2 0zM328.03 20.07 a1 1 0 1 0 2 0 a1 1 0 1 0 -2 0zM328.03 16.07 a1 1 0 1 0 2 0 a1 1 0 1 0 -2 0zM330.03 42.07 a1 1 0 1 0 2 0 a1 1 0 1 0 -2 0zM330.03 40.07 a1 1 0 1 0 2 0 a1 1 0 1 0 -2 0zM330.03 38.07 a1 1 0 1 0 2 0 a1 1 0 1 0 -2 0zM330.03 32.07 a1 1 0 1 0 2 0 a1 1 0 1 0 -2 0zM330.03 30.07 a1 1 0 1 0 2 0 a1 1 0 1 0 -2 0zM330.03 28.07 a1 1 0 1 0 2 0 a1 1 0 1 0 -2 0zM330.03 26.07 a1 1 0 1 0 2 0 a1 1 0 1 0 -2 0zM330.03 24.07 a1 1 0 1 0 2 0 a1 1 0 1 0 -2 0zM330.03 22.07 a1 1 0 1 0 2 0 a1 1 0 1 0 -2 0zM330.03 20.07 a1 1 0 1 0 2 0 a1 1 0 1 0 -2 0zM330.03 14.07 a1 1 0 1 0 2 0 a1 1 0 1 0 -2 0zM332.03 40.07 a1 1 0 1 0 2 0 a1 1 0 1 0 -2 0zM332.03 38.07 a1 1 0 1 0 2 0 a1 1 0 1 0 -2 0zM332.03 36.07 a1 1 0 1 0 2 0 a1 1 0 1 0 -2 0zM332.03 32.07 a1 1 0 1 0 2 0 a1 1 0 1 0 -2 0zM332.03 30.07 a1 1 0 1 0 2 0 a1 1 0 1 0 -2 0zM332.03 28.07 a1 1 0 1 0 2 0 a1 1 0 1 0 -2 0zM332.03 26.07 a1 1 0 1 0 2 0 a1 1 0 1 0 -2 0zM332.03 24.07 a1 1 0 1 0 2 0 a1 1 0 1 0 -2 0zM332.03 22.07 a1 1 0 1 0 2 0 a1 1 0 1 0 -2 0zM332.03 20.07 a1 1 0 1 0 2 0 a1 1 0 1 0 -2 0zM332.03 18.07 a1 1 0 1 0 2 0 a1 1 0 1 0 -2 0zM334.03 44.07 a1 1 0 1 0 2 0 a1 1 0 1 0 -2 0zM334.03 38.07 a1 1 0 1 0 2 0 a1 1 0 1 0 -2 0zM334.03 30.07 a1 1 0 1 0 2 0 a1 1 0 1 0 -2 0zM334.03 28.07 a1 1 0 1 0 2 0 a1 1 0 1 0 -2 0zM334.03 26.07 a1 1 0 1 0 2 0 a1 1 0 1 0 -2 0zM334.03 24.07 a1 1 0 1 0 2 0 a1 1 0 1 0 -2 0zM334.03 22.07 a1 1 0 1 0 2 0 a1 1 0 1 0 -2 0zM334.03 20.07 a1 1 0 1 0 2 0 a1 1 0 1 0 -2 0zM334.03 18.07 a1 1 0 1 0 2 0 a1 1 0 1 0 -2 0zM334.03 14.07 a1 1 0 1 0 2 0 a1 1 0 1 0 -2 0zM336.03 40.07 a1 1 0 1 0 2 0 a1 1 0 1 0 -2 0zM336.03 30.07 a1 1 0 1 0 2 0 a1 1 0 1 0 -2 0zM336.03 28.07 a1 1 0 1 0 2 0 a1 1 0 1 0 -2 0zM336.03 26.07 a1 1 0 1 0 2 0 a1 1 0 1 0 -2 0zM336.03 24.07 a1 1 0 1 0 2 0 a1 1 0 1 0 -2 0zM336.03 22.07 a1 1 0 1 0 2 0 a1 1 0 1 0 -2 0zM336.03 20.07 a1 1 0 1 0 2 0 a1 1 0 1 0 -2 0zM336.03 18.07 a1 1 0 1 0 2 0 a1 1 0 1 0 -2 0zM338.03 30.07 a1 1 0 1 0 2 0 a1 1 0 1 0 -2 0zM338.03 28.07 a1 1 0 1 0 2 0 a1 1 0 1 0 -2 0zM338.03 26.07 a1 1 0 1 0 2 0 a1 1 0 1 0 -2 0zM338.03 24.07 a1 1 0 1 0 2 0 a1 1 0 1 0 -2 0zM338.03 22.07 a1 1 0 1 0 2 0 a1 1 0 1 0 -2 0zM338.03 20.07 a1 1 0 1 0 2 0 a1 1 0 1 0 -2 0zM340.03 30.07 a1 1 0 1 0 2 0 a1 1 0 1 0 -2 0zM340.03 28.07 a1 1 0 1 0 2 0 a1 1 0 1 0 -2 0zM340.03 26.07 a1 1 0 1 0 2 0 a1 1 0 1 0 -2 0zM340.03 24.07 a1 1 0 1 0 2 0 a1 1 0 1 0 -2 0zM340.03 22.07 a1 1 0 1 0 2 0 a1 1 0 1 0 -2 0zM340.03 20.07 a1 1 0 1 0 2 0 a1 1 0 1 0 -2 0zM340.03 18.07 a1 1 0 1 0 2 0 a1 1 0 1 0 -2 0zM342.03 44.07 a1 1 0 1 0 2 0 a1 1 0 1 0 -2 0zM342.03 30.07 a1 1 0 1 0 2 0 a1 1 0 1 0 -2 0zM342.03 28.07 a1 1 0 1 0 2 0 a1 1 0 1 0 -2 0zM342.03 26.07 a1 1 0 1 0 2 0 a1 1 0 1 0 -2 0zM342.03 24.07 a1 1 0 1 0 2 0 a1 1 0 1 0 -2 0zM342.03 22.07 a1 1 0 1 0 2 0 a1 1 0 1 0 -2 0zM342.03 20.07 a1 1 0 1 0 2 0 a1 1 0 1 0 -2 0zM344.03 30.07 a1 1 0 1 0 2 0 a1 1 0 1 0 -2 0zM344.03 28.07 a1 1 0 1 0 2 0 a1 1 0 1 0 -2 0zM344.03 26.07 a1 1 0 1 0 2 0 a1 1 0 1 0 -2 0zM344.03 24.07 a1 1 0 1 0 2 0 a1 1 0 1 0 -2 0zM344.03 22.07 a1 1 0 1 0 2 0 a1 1 0 1 0 -2 0zM344.03 20.07 a1 1 0 1 0 2 0 a1 1 0 1 0 -2 0zM346.03 30.07 a1 1 0 1 0 2 0 a1 1 0 1 0 -2 0zM346.03 28.07 a1 1 0 1 0 2 0 a1 1 0 1 0 -2 0zM346.03 26.07 a1 1 0 1 0 2 0 a1 1 0 1 0 -2 0zM346.03 24.07 a1 1 0 1 0 2 0 a1 1 0 1 0 -2 0zM346.03 22.07 a1 1 0 1 0 2 0 a1 1 0 1 0 -2 0zM346.03 20.07 a1 1 0 1 0 2 0 a1 1 0 1 0 -2 0zM348.03 36.07 a1 1 0 1 0 2 0 a1 1 0 1 0 -2 0zM348.03 34.07 a1 1 0 1 0 2 0 a1 1 0 1 0 -2 0zM348.03 28.07 a1 1 0 1 0 2 0 a1 1 0 1 0 -2 0zM348.03 26.07 a1 1 0 1 0 2 0 a1 1 0 1 0 -2 0zM348.03 24.07 a1 1 0 1 0 2 0 a1 1 0 1 0 -2 0zM348.03 22.07 a1 1 0 1 0 2 0 a1 1 0 1 0 -2 0zM348.03 20.07 a1 1 0 1 0 2 0 a1 1 0 1 0 -2 0zM350.03 38.07 a1 1 0 1 0 2 0 a1 1 0 1 0 -2 0zM350.03 36.07 a1 1 0 1 0 2 0 a1 1 0 1 0 -2 0zM350.03 34.07 a1 1 0 1 0 2 0 a1 1 0 1 0 -2 0zM350.03 28.07 a1 1 0 1 0 2 0 a1 1 0 1 0 -2 0zM350.03 26.07 a1 1 0 1 0 2 0 a1 1 0 1 0 -2 0zM350.03 24.07 a1 1 0 1 0 2 0 a1 1 0 1 0 -2 0zM350.03 22.07 a1 1 0 1 0 2 0 a1 1 0 1 0 -2 0zM350.03 20.07 a1 1 0 1 0 2 0 a1 1 0 1 0 -2 0zM352.03 34.07 a1 1 0 1 0 2 0 a1 1 0 1 0 -2 0zM352.03 32.07 a1 1 0 1 0 2 0 a1 1 0 1 0 -2 0zM352.03 28.07 a1 1 0 1 0 2 0 a1 1 0 1 0 -2 0zM352.03 26.07 a1 1 0 1 0 2 0 a1 1 0 1 0 -2 0zM352.03 24.07 a1 1 0 1 0 2 0 a1 1 0 1 0 -2 0zM352.03 22.07 a1 1 0 1 0 2 0 a1 1 0 1 0 -2 0zM354.03 34.07 a1 1 0 1 0 2 0 a1 1 0 1 0 -2 0zM354.03 32.07 a1 1 0 1 0 2 0 a1 1 0 1 0 -2 0zM354.03 30.07 a1 1 0 1 0 2 0 a1 1 0 1 0 -2 0zM354.03 28.07 a1 1 0 1 0 2 0 a1 1 0 1 0 -2 0zM354.03 26.07 a1 1 0 1 0 2 0 a1 1 0 1 0 -2 0zM354.03 24.07 a1 1 0 1 0 2 0 a1 1 0 1 0 -2 0zM354.03 22.07 a1 1 0 1 0 2 0 a1 1 0 1 0 -2 0zM356.03 26.07 a1 1 0 1 0 2 0 a1 1 0 1 0 -2 0zM356.03 24.07 a1 1 0 1 0 2 0 a1 1 0 1 0 -2 0zM356.03 22.07 a1 1 0 1 0 2 0 a1 1 0 1 0 -2 0zM358.03 28.07 a1 1 0 1 0 2 0 a1 1 0 1 0 -2 0zM358.03 26.07 a1 1 0 1 0 2 0 a1 1 0 1 0 -2 0zM358.03 24.07 a1 1 0 1 0 2 0 a1 1 0 1 0 -2 0zM358.03 22.07 a1 1 0 1 0 2 0 a1 1 0 1 0 -2 0zM360.03 28.07 a1 1 0 1 0 2 0 a1 1 0 1 0 -2 0zM360.03 26.07 a1 1 0 1 0 2 0 a1 1 0 1 0 -2 0zM360.03 24.07 a1 1 0 1 0 2 0 a1 1 0 1 0 -2 0zM360.03 22.07 a1 1 0 1 0 2 0 a1 1 0 1 0 -2 0zM362.03 28.07 a1 1 0 1 0 2 0 a1 1 0 1 0 -2 0zM362.03 26.07 a1 1 0 1 0 2 0 a1 1 0 1 0 -2 0zM362.03 24.07 a1 1 0 1 0 2 0 a1 1 0 1 0 -2 0zM362.03 22.07 a1 1 0 1 0 2 0 a1 1 0 1 0 -2 0zM364.03 28.07 a1 1 0 1 0 2 0 a1 1 0 1 0 -2 0zM364.03 26.07 a1 1 0 1 0 2 0 a1 1 0 1 0 -2 0zM364.03 24.07 a1 1 0 1 0 2 0 a1 1 0 1 0 -2 0zM364.03 22.07 a1 1 0 1 0 2 0 a1 1 0 1 0 -2 0zM366.03 28.07 a1 1 0 1 0 2 0 a1 1 0 1 0 -2 0zM366.03 26.07 a1 1 0 1 0 2 0 a1 1 0 1 0 -2 0zM366.03 24.07 a1 1 0 1 0 2 0 a1 1 0 1 0 -2 0zM366.03 22.07 a1 1 0 1 0 2 0 a1 1 0 1 0 -2 0zM368.03 26.07 a1 1 0 1 0 2 0 a1 1 0 1 0 -2 0zM368.03 24.07 a1 1 0 1 0 2 0 a1 1 0 1 0 -2 0zM368.03 22.07 a1 1 0 1 0 2 0 a1 1 0 1 0 -2 0zM370.03 26.07 a1 1 0 1 0 2 0 a1 1 0 1 0 -2 0zM370.03 24.07 a1 1 0 1 0 2 0 a1 1 0 1 0 -2 0zM370.03 22.07 a1 1 0 1 0 2 0 a1 1 0 1 0 -2 0z" transform="scale(3.73)" fill="#ffffff"></path>
    </g>
    <defs>
        <mask id="SvgjsMask1032">
            <rect width="1440" height="560" fill="#ffffff"></rect>
        </mask>
    </defs>
</svg>