<svg xmlns="http://www.w3.org/2000/svg" version="1.1" xmlns:xlink="http://www.w3.org/1999/xlink" xmlns:svgjs="http://svgjs.com/svgjs" width="1440" height="560" preserveAspectRatio="none" viewBox="0 0 1440 560">
    <g mask="url(&quot;#SvgjsMask1033&quot;)" fill="none">
        <path d="M210.03 120.07 a1 1 0 1 0 2 0 a1 1 0 1 0 -2 0zM212.03 124.07 a1 1 0 1 0 2 0 a1 1 0 1 0 -2 0zM212.03 122.07 a1 1 0 1 0 2 0 a1 1 0 1 0 -2 0zM212.03 120.07 a1 1 0 1 0 2 0 a1 1 0 1 0 -2 0zM212.03 118.07 a1 1 0 1 0 2 0 a1 1 0 1 0 -2 0zM212.03 116.07 a1 1 0 1 0 2 0 a1 1 0 1 0 -2 0zM214.03 124.07 a1 1 0 1 0 2 0 a1 1 0 1 0 -2 0zM214.03 122.07 a1 1 0 1 0 2 0 a1 1 0 1 0 -2 0zM214.03 120.07 a1 1 0 1 0 2 0 a1 1 0 1 0 -2 0zM214.03 118.07 a1 1 0 1 0 2 0 a1 1 0 1 0 -2 0zM216.03 124.07 a1 1 0 1 0 2 0 a1 1 0 1 0 -2 0zM216.03 122.07 a1 1 0 1 0 2 0 a1 1 0 1 0 -2 0zM216.03 120.07 a1 1 0 1 0 2 0 a1 1 0 1 0 -2 0zM216.03 118.07 a1 1 0 1 0 2 0 a1 1 0 1 0 -2 0zM216.03 116.07 a1 1 0 1 0 2 0 a1 1 0 1 0 -2 0zM218.03 122.07 a1 1 0 1 0 2 0 a1 1 0 1 0 -2 0zM218.03 120.07 a1 1 0 1 0 2 0 a1 1 0 1 0 -2 0zM218.03 118.07 a1 1 0 1 0 2 0 a1 1 0 1 0 -2 0zM218.03 116.07 a1 1 0 1 0 2 0 a1 1 0 1 0 -2 0zM220.03 122.07 a1 1 0 1 0 2 0 a1 1 0 1 0 -2 0zM220.03 118.07 a1 1 0 1 0 2 0 a1 1 0 1 0 -2 0zM220.03 116.07 a1 1 0 1 0 2 0 a1 1 0 1 0 -2 0zM220.03 114.07 a1 1 0 1 0 2 0 a1 1 0 1 0 -2 0zM222.03 120.07 a1 1 0 1 0 2 0 a1 1 0 1 0 -2 0zM222.03 118.07 a1 1 0 1 0 2 0 a1 1 0 1 0 -2 0zM222.03 116.07 a1 1 0 1 0 2 0 a1 1 0 1 0 -2 0zM222.03 114.07 a1 1 0 1 0 2 0 a1 1 0 1 0 -2 0zM224.03 118.07 a1 1 0 1 0 2 0 a1 1 0 1 0 -2 0z" transform="scale(3.73)" fill="#ffffff"></path>
    </g>
    <defs>
        <mask id="SvgjsMask1033">
            <rect width="1440" height="560" fill="#ffffff"></rect>
        </mask>
    </defs>
</svg>