<svg xmlns="http://www.w3.org/2000/svg" version="1.1" xmlns:xlink="http://www.w3.org/1999/xlink" xmlns:svgjs="http://svgjs.com/svgjs" width="1440" height="560" preserveAspectRatio="none" viewBox="0 0 1440 560">
    <g mask="url(&quot;#SvgjsMask1189&quot;)" fill="none">
        <path d="M216.03 80.07 a1 1 0 1 0 2 0 a1 1 0 1 0 -2 0zM216.03 78.07 a1 1 0 1 0 2 0 a1 1 0 1 0 -2 0zM216.03 76.07 a1 1 0 1 0 2 0 a1 1 0 1 0 -2 0zM216.03 74.07 a1 1 0 1 0 2 0 a1 1 0 1 0 -2 0zM216.03 72.07 a1 1 0 1 0 2 0 a1 1 0 1 0 -2 0zM218.03 78.07 a1 1 0 1 0 2 0 a1 1 0 1 0 -2 0zM218.03 76.07 a1 1 0 1 0 2 0 a1 1 0 1 0 -2 0zM218.03 74.07 a1 1 0 1 0 2 0 a1 1 0 1 0 -2 0zM218.03 72.07 a1 1 0 1 0 2 0 a1 1 0 1 0 -2 0zM218.03 70.07 a1 1 0 1 0 2 0 a1 1 0 1 0 -2 0zM220.03 80.07 a1 1 0 1 0 2 0 a1 1 0 1 0 -2 0zM220.03 78.07 a1 1 0 1 0 2 0 a1 1 0 1 0 -2 0zM220.03 76.07 a1 1 0 1 0 2 0 a1 1 0 1 0 -2 0zM220.03 74.07 a1 1 0 1 0 2 0 a1 1 0 1 0 -2 0zM220.03 72.07 a1 1 0 1 0 2 0 a1 1 0 1 0 -2 0zM220.03 70.07 a1 1 0 1 0 2 0 a1 1 0 1 0 -2 0zM222.03 78.07 a1 1 0 1 0 2 0 a1 1 0 1 0 -2 0zM222.03 76.07 a1 1 0 1 0 2 0 a1 1 0 1 0 -2 0zM222.03 74.07 a1 1 0 1 0 2 0 a1 1 0 1 0 -2 0zM222.03 72.07 a1 1 0 1 0 2 0 a1 1 0 1 0 -2 0zM222.03 70.07 a1 1 0 1 0 2 0 a1 1 0 1 0 -2 0zM224.03 78.07 a1 1 0 1 0 2 0 a1 1 0 1 0 -2 0zM224.03 76.07 a1 1 0 1 0 2 0 a1 1 0 1 0 -2 0zM224.03 74.07 a1 1 0 1 0 2 0 a1 1 0 1 0 -2 0zM224.03 72.07 a1 1 0 1 0 2 0 a1 1 0 1 0 -2 0zM224.03 70.07 a1 1 0 1 0 2 0 a1 1 0 1 0 -2 0zM226.03 80.07 a1 1 0 1 0 2 0 a1 1 0 1 0 -2 0zM226.03 78.07 a1 1 0 1 0 2 0 a1 1 0 1 0 -2 0zM226.03 76.07 a1 1 0 1 0 2 0 a1 1 0 1 0 -2 0zM226.03 74.07 a1 1 0 1 0 2 0 a1 1 0 1 0 -2 0zM226.03 72.07 a1 1 0 1 0 2 0 a1 1 0 1 0 -2 0zM226.03 70.07 a1 1 0 1 0 2 0 a1 1 0 1 0 -2 0zM228.03 76.07 a1 1 0 1 0 2 0 a1 1 0 1 0 -2 0zM228.03 74.07 a1 1 0 1 0 2 0 a1 1 0 1 0 -2 0zM228.03 72.07 a1 1 0 1 0 2 0 a1 1 0 1 0 -2 0zM228.03 70.07 a1 1 0 1 0 2 0 a1 1 0 1 0 -2 0zM230.03 72.07 a1 1 0 1 0 2 0 a1 1 0 1 0 -2 0z" transform="scale(3.73)" fill="#ffffff"></path>
    </g>
    <defs>
        <mask id="SvgjsMask1189">
            <rect width="1440" height="560" fill="#ffffff"></rect>
        </mask>
    </defs>
</svg>