<svg xmlns="http://www.w3.org/2000/svg" version="1.1" xmlns:xlink="http://www.w3.org/1999/xlink" xmlns:svgjs="http://svgjs.com/svgjs" width="1440" height="560" preserveAspectRatio="none" viewBox="0 0 1440 560">
    <g mask="url(&quot;#SvgjsMask1199&quot;)" fill="none">
        <path d="M204.03 32.07 a1 1 0 1 0 2 0 a1 1 0 1 0 -2 0zM206.03 34.07 a1 1 0 1 0 2 0 a1 1 0 1 0 -2 0zM206.03 32.07 a1 1 0 1 0 2 0 a1 1 0 1 0 -2 0zM206.03 30.07 a1 1 0 1 0 2 0 a1 1 0 1 0 -2 0zM206.03 28.07 a1 1 0 1 0 2 0 a1 1 0 1 0 -2 0zM206.03 26.07 a1 1 0 1 0 2 0 a1 1 0 1 0 -2 0zM208.03 32.07 a1 1 0 1 0 2 0 a1 1 0 1 0 -2 0zM208.03 30.07 a1 1 0 1 0 2 0 a1 1 0 1 0 -2 0zM208.03 28.07 a1 1 0 1 0 2 0 a1 1 0 1 0 -2 0zM208.03 26.07 a1 1 0 1 0 2 0 a1 1 0 1 0 -2 0zM208.03 24.07 a1 1 0 1 0 2 0 a1 1 0 1 0 -2 0zM210.03 30.07 a1 1 0 1 0 2 0 a1 1 0 1 0 -2 0zM210.03 26.07 a1 1 0 1 0 2 0 a1 1 0 1 0 -2 0zM210.03 24.07 a1 1 0 1 0 2 0 a1 1 0 1 0 -2 0zM210.03 22.07 a1 1 0 1 0 2 0 a1 1 0 1 0 -2 0zM212.03 26.07 a1 1 0 1 0 2 0 a1 1 0 1 0 -2 0zM212.03 24.07 a1 1 0 1 0 2 0 a1 1 0 1 0 -2 0zM212.03 22.07 a1 1 0 1 0 2 0 a1 1 0 1 0 -2 0zM214.03 24.07 a1 1 0 1 0 2 0 a1 1 0 1 0 -2 0zM214.03 22.07 a1 1 0 1 0 2 0 a1 1 0 1 0 -2 0zM216.03 24.07 a1 1 0 1 0 2 0 a1 1 0 1 0 -2 0z" transform="scale(3.73)" fill="#ffffff"></path>
    </g>
    <defs>
        <mask id="SvgjsMask1199">
            <rect width="1440" height="560" fill="#ffffff"></rect>
        </mask>
    </defs>
</svg>