<svg xmlns="http://www.w3.org/2000/svg" version="1.1" xmlns:xlink="http://www.w3.org/1999/xlink" xmlns:svgjs="http://svgjs.com/svgjs" width="1440" height="560" preserveAspectRatio="none" viewBox="0 0 1440 560">
    <g mask="url(&quot;#SvgjsMask1042&quot;)" fill="none">
        <path d="M262.03 140.07 a1 1 0 1 0 2 0 a1 1 0 1 0 -2 0zM260.03 140.07 a1 1 0 1 0 2 0 a1 1 0 1 0 -2 0zM262.03 138.07 a1 1 0 1 0 2 0 a1 1 0 1 0 -2 0zM260.03 138.07 a1 1 0 1 0 2 0 a1 1 0 1 0 -2 0zM244.03 136.07 a1 1 0 1 0 2 0 a1 1 0 1 0 -2 0zM242.03 136.07 a1 1 0 1 0 2 0 a1 1 0 1 0 -2 0zM270.03 128.07 a1 1 0 1 0 2 0 a1 1 0 1 0 -2 0zM232.03 112.07 a1 1 0 1 0 2 0 a1 1 0 1 0 -2 0zM234.03 108.07 a1 1 0 1 0 2 0 a1 1 0 1 0 -2 0zM246.03 106.07 a1 1 0 1 0 2 0 a1 1 0 1 0 -2 0zM240.03 102.07 a1 1 0 1 0 2 0 a1 1 0 1 0 -2 0z" transform="scale(3.73)" fill="#ffffff"></path>
    </g>
    <defs>
        <mask id="SvgjsMask1042">
            <rect width="1440" height="560" fill="#ffffff"></rect>
        </mask>
    </defs>
</svg>