<svg xmlns="http://www.w3.org/2000/svg" version="1.1" xmlns:xlink="http://www.w3.org/1999/xlink" xmlns:svgjs="http://svgjs.com/svgjs" width="1440" height="560" preserveAspectRatio="none" viewBox="0 0 1440 560">
    <g mask="url(&quot;#SvgjsMask1034&quot;)" fill="none">
        <path d="M246.03 52.07 a1 1 0 1 0 2 0 a1 1 0 1 0 -2 0zM246.03 50.07 a1 1 0 1 0 2 0 a1 1 0 1 0 -2 0zM246.03 48.07 a1 1 0 1 0 2 0 a1 1 0 1 0 -2 0zM248.03 50.07 a1 1 0 1 0 2 0 a1 1 0 1 0 -2 0zM250.03 52.07 a1 1 0 1 0 2 0 a1 1 0 1 0 -2 0zM250.03 50.07 a1 1 0 1 0 2 0 a1 1 0 1 0 -2 0zM250.03 48.07 a1 1 0 1 0 2 0 a1 1 0 1 0 -2 0zM252.03 52.07 a1 1 0 1 0 2 0 a1 1 0 1 0 -2 0zM252.03 50.07 a1 1 0 1 0 2 0 a1 1 0 1 0 -2 0zM254.03 54.07 a1 1 0 1 0 2 0 a1 1 0 1 0 -2 0zM254.03 52.07 a1 1 0 1 0 2 0 a1 1 0 1 0 -2 0zM254.03 50.07 a1 1 0 1 0 2 0 a1 1 0 1 0 -2 0zM256.03 52.07 a1 1 0 1 0 2 0 a1 1 0 1 0 -2 0zM258.03 52.07 a1 1 0 1 0 2 0 a1 1 0 1 0 -2 0z" transform="scale(3.73)" fill="#ffffff"></path>
    </g>
    <defs>
        <mask id="SvgjsMask1034">
            <rect width="1440" height="560" fill="#ffffff"></rect>
        </mask>
    </defs>
</svg>